SplineFontDB: 3.0
FontName: ios7-icon
FullName: ios7-icon
FamilyName: ios7-icon
Weight: Medium
Copyright: Created by Ubuntu with FontForge 2.0 (http://fontforge.sf.net)
Version: 001.000
ItalicAngle: 0
UnderlinePosition: -52
UnderlineWidth: 25
Ascent: 448
Descent: 64
sfntRevision: 0x00010000
LayerCount: 2
Layer: 0 1 "+gMyXYgAA"  1
Layer: 1 1 "+Uk2XYgAA"  0
XUID: [1021 806 750272699 4829380]
FSType: 0
OS2Version: 4
OS2_WeightWidthSlopeOnly: 0
OS2_UseTypoMetrics: 1
CreationTime: 1373123232
ModificationTime: 1373163752
PfmFamily: 17
TTFWeight: 500
TTFWidth: 5
LineGap: 46
VLineGap: 0
Panose: 2 0 6 9 0 0 0 0 0 0
OS2TypoAscent: 448
OS2TypoAOffset: 0
OS2TypoDescent: -64
OS2TypoDOffset: 0
OS2TypoLinegap: 46
OS2WinAscent: 471
OS2WinAOffset: 0
OS2WinDescent: 69
OS2WinDOffset: 0
HheadAscent: 471
HheadAOffset: 0
HheadDescent: -148
HheadDOffset: 0
OS2SubXSize: 332
OS2SubYSize: 358
OS2SubXOff: 0
OS2SubYOff: 71
OS2SupXSize: 332
OS2SupYSize: 358
OS2SupXOff: 0
OS2SupYOff: 245
OS2StrikeYSize: 25
OS2StrikeYPos: 132
OS2Vendor: 'PfEd'
OS2CodePages: 00000001.00000000
OS2UnicodeRanges: 00000000.10000000.00000000.00000000
MarkAttachClasses: 1
DEI: 91125
TtTable: prep
MPPEM
PUSHW_1
 200
GT
IF
PUSHB_2
 1
 1
INSTCTRL
EIF
PUSHW_2
 2048
 2048
MUL
DUP
PUSHB_1
 1
SWAP
WCVTP
DUP
PUSHB_1
 3
SWAP
WCVTF
PUSHB_3
 4
 40
 9
RCVT
GT
WCVTP
PUSHB_2
 6
 1
WCVTP
PUSHB_2
 36
 1
GETINFO
LTEQ
IF
PUSHB_1
 64
GETINFO
IF
PUSHB_2
 6
 3
WCVTP
PUSHB_2
 38
 1
GETINFO
LTEQ
IF
PUSHW_1
 1024
GETINFO
IF
PUSHB_2
 6
 1
WCVTP
EIF
EIF
EIF
EIF
PUSHW_1
 511
SCANCTRL
PUSHB_1
 4
SCANTYPE
PUSHB_2
 5
 0
WCVTP
EndTTInstrs
TtTable: fpgm
PUSHB_1
 0
FDEF
PUSHB_1
 32
ADD
FLOOR
ENDF
PUSHB_1
 1
FDEF
DUP
ABS
DUP
PUSHB_1
 192
LT
PUSHB_1
 4
MINDEX
AND
PUSHB_1
 4
RCVT
OR
IF
POP
SWAP
POP
ELSE
ROLL
IF
DUP
PUSHB_1
 80
LT
IF
POP
PUSHB_1
 64
EIF
ELSE
DUP
PUSHB_1
 56
LT
IF
POP
PUSHB_1
 56
EIF
EIF
DUP
PUSHB_1
 10
RCVT
SUB
ABS
PUSHB_1
 40
LT
IF
POP
PUSHB_1
 10
RCVT
DUP
PUSHB_1
 48
LT
IF
POP
PUSHB_1
 48
EIF
ELSE
DUP
PUSHB_1
 192
LT
IF
DUP
FLOOR
DUP

StartChar: .notdef
Encoding: 65536 -1 0
Width: 512
Flags: W
LayerCount: 2
Fore
SplineSet
17 0 m 1,0,-1
 17 341 l 1,1,-1
 153 341 l 1,2,-1
 153 0 l 1,3,-1
 17 0 l 1,0,-1
34 17 m 1,4,-1
 136 17 l 1,5,-1
 136 324 l 1,6,-1
 34 324 l 1,7,-1
 34 17 l 1,4,-1
EndSplineSet
Validated: 1
EndChar

StartChar: uniF100
Encoding: 61696 61696 3
Width: 512
Flags: W
LayerCount: 2
Fore
SplineSet
214 188 m 128,-1,1
 209 182 209 182 201 182 c 0,2,3
 196 182 196 182 192 184 c 0,4,5
 182 189 182 189 175 200 c 128,-1,6
 168 211 168 211 168 222 c 0,7,8
 168 231 168 231 173 237 c 128,-1,9
 178 243 178 243 186 243 c 0,10,11
 190 243 190 243 195 241 c 0,12,13
 205 237 205 237 212 226 c 128,-1,14
 219 215 219 215 219 203 c 0,15,0
 219 194 219 194 214 188 c 128,-1,1
161 151 m 0,16,17
 156 145 156 145 149 145 c 0,18,19
 144 145 144 145 140 147 c 0,20,21
 130 152 130 152 124 162.5 c 128,-1,22
 118 173 118 173 118 184 c 0,23,24
 118 205 118 205 134 205 c 0,25,26
 138 205 138 205 143 203 c 0,27,28
 152 198 152 198 159 187 c 128,-1,29
 166 176 166 176 166 165 c 0,30,31
 166 156 166 156 161 151 c 0,16,17
111 115 m 0,32,33
 107 109 107 109 100 109 c 0,34,35
 95 109 95 109 90 112 c 0,36,37
 82 116 82 116 75.5 127 c 128,-1,38
 69 138 69 138 69 149 c 0,39,40
 69 168 69 168 85 168 c 0,41,42
 89 168 89 168 94 166 c 0,43,44
 103 162 103 162 109 151 c 128,-1,45
 115 140 115 140 115 129 c 0,46,47
 115 120 115 120 111 115 c 0,32,33
417 125 m 0,48,49
 412 123 412 123 407 123 c 0,50,51
 391 123 391 123 391 143 c 0,52,53
 391 154 391 154 397.5 164.5 c 128,-1,54
 404 175 404 175 413 180 c 0,55,56
 418 182 418 182 422 182 c 0,57,58
 438 182 438 182 438 162 c 0,59,60
 438 151 438 151 432 140.5 c 128,-1,61
 426 130 426 130 417 125 c 0,48,49
356 168 m 0,62,63
 351 166 351 166 346 166 c 0,64,65
 339 166 339 166 334 171.5 c 128,-1,66
 329 177 329 177 329 186 c 0,67,68
 329 198 329 198 336 209 c 128,-1,69
 343 220 343 220 353 224 c 0,70,71
 357 226 357 226 362 226 c 0,72,73
 369 226 369 226 374 220.5 c 128,-1,74
 379 215 379 215 379 206 c 0,75,76
 379 194 379 194 372 183.5 c 128,-1,77
 365 173 365 173 356 168 c 0,62,63
285 351 m 1,78,79
 275 348 275 348 262 348 c 128,-1,80
 249 348 249 348 240 351 c 0,81,82
 229 355 229 355 229 362.5 c 128,-1,83
 229 370 229 370 240 374 c 0,84,85
 262 383 262 383 284 375 c 0,86,87
 296 370 296 370 296 363 c 128,-1,88
 296 356 296 356 285 351 c 1,78,79
20 73 m 1,89,-1
 266 -45 l 1,90,-1
 492 73 l 1,91,-1
 492 369 l 1,92,-1
 256 428 l 1,93,-1
 20 369 l 1,94,-1
 20 73 l 1,89,-1
256 -17.6607 m 1,95,-1
 41 86 l 1,96,-1
 41 346.849 l 1,97,-1
 256 278.193 l 1,98,-1
 256 -17.6607 l 1,95,-1
276 -16.233 m 1,99,-1
 276 278.47 l 1,100,-1
 471 346.142 l 1,101,-1
 471 86 l 1,102,-1
 276 -16.233 l 1,99,-1
68.5719 359.925 m 1,103,-1
 256 407 l 1,104,-1
 444.992 359.532 l 1,105,-1
 265 297 l 1,106,-1
 68.5719 359.925 l 1,103,-1
EndSplineSet
Validated: 524329
EndChar

StartChar: uniF101
Encoding: 61697 61697 4
Width: 512
Flags: W
LayerCount: 2
Fore
SplineSet
158 146 m 1,0,-1
 144 160 l 1,1,2
 129 145 129 145 129 124 c 128,-1,3
 129 103 129 103 144 88 c 128,-1,4
 159 73 159 73 180 73 c 128,-1,5
 201 73 201 73 216 88 c 2,6,-1
 371 243 l 1,7,-1
 356 257 l 1,8,-1
 201 103 l 2,9,10
 193 94 193 94 180 94 c 128,-1,11
 167 94 167 94 158 103 c 128,-1,12
 149 112 149 112 149 124.5 c 128,-1,13
 149 137 149 137 158 146 c 1,0,-1
284 329 m 1,14,-1
 270 344 l 1,15,-1
 68 142 l 2,16,17
 41 115 41 115 41 77 c 128,-1,18
 41 39 41 39 68 12 c 128,-1,19
 95 -15 95 -15 133 -15 c 128,-1,20
 171 -15 171 -15 198 12 c 2,21,-1
 450 264 l 2,22,23
 471 285 471 285 471 315 c 128,-1,24
 471 345 471 345 450 366 c 128,-1,25
 429 387 429 387 399.5 387 c 128,-1,26
 370 387 370 387 349 366 c 2,27,-1
 144 160 l 1,28,-1
 158 146 l 1,29,-1
 363 351 l 2,30,31
 378 366 378 366 399.5 366 c 128,-1,32
 421 366 421 366 436 351 c 128,-1,33
 451 336 451 336 451 315 c 128,-1,34
 451 294 451 294 436 279 c 2,35,-1
 183 27 l 2,36,37
 163 6 163 6 133 6 c 128,-1,38
 103 6 103 6 82 27 c 128,-1,39
 61 48 61 48 61 77.5 c 128,-1,40
 61 107 61 107 82 128 c 2,41,-1
 284 329 l 1,14,-1
EndSplineSet
Validated: 5
EndChar

StartChar: uniF102
Encoding: 61698 61698 5
Width: 512
Flags: W
LayerCount: 2
Fore
SplineSet
499 185 m 2,0,-1
 505 192 l 1,1,-1
 499 199 l 2,2,3
 494 204 494 204 486.5 212.5 c 128,-1,4
 479 221 479 221 453 243 c 128,-1,5
 427 265 427 265 400 281.5 c 128,-1,6
 373 298 373 298 333.5 311.5 c 128,-1,7
 294 325 294 325 256 325 c 128,-1,8
 218 325 218 325 178.5 311.5 c 128,-1,9
 139 298 139 298 112 281.5 c 128,-1,10
 85 265 85 265 59 243 c 128,-1,11
 33 221 33 221 25.5 212.5 c 128,-1,12
 18 204 18 204 13 199 c 2,13,-1
 7 192 l 1,14,-1
 13 185 l 2,15,16
 18 180 18 180 25.5 171.5 c 128,-1,17
 33 163 33 163 59 141 c 128,-1,18
 85 119 85 119 112 102.5 c 128,-1,19
 139 86 139 86 178.5 72.5 c 128,-1,20
 218 59 218 59 256 59 c 128,-1,21
 294 59 294 59 333.5 72.5 c 128,-1,22
 373 86 373 86 400 102.5 c 128,-1,23
 427 119 427 119 453 141 c 128,-1,24
 479 163 479 163 486.5 171.5 c 128,-1,25
 494 180 494 180 499 185 c 2,0,-1
478 192 m 1,26,27
 464 178 464 178 446 162.5 c 128,-1,28
 428 147 428 147 398 126.5 c 128,-1,29
 368 106 368 106 330.5 92.5 c 128,-1,30
 293 79 293 79 256 79 c 256,31,32
 219 79 219 79 180.5 93 c 128,-1,33
 142 107 142 107 112 128 c 128,-1,34
 82 149 82 149 64.5 164 c 128,-1,35
 47 179 47 179 34 192 c 1,36,37
 48 206 48 206 66 221.5 c 128,-1,38
 84 237 84 237 114 257.5 c 128,-1,39
 144 278 144 278 181.5 291.5 c 128,-1,40
 219 305 219 305 256 305 c 256,41,42
 293 305 293 305 331.5 291 c 128,-1,43
 370 277 370 277 400 256 c 128,-1,44
 430 235 430 235 447.5 220 c 128,-1,45
 465 205 465 205 478 192 c 1,26,27
347 305 m 1,46,-1
 332 291 l 1,47,48
 358 262 358 262 358 223 c 0,49,50
 358 180 358 180 328 150 c 128,-1,51
 298 120 298 120 256 120 c 128,-1,52
 214 120 214 120 184 150 c 128,-1,53
 154 180 154 180 154 223 c 0,54,55
 154 262 154 262 180 291 c 1,56,-1
 165 305 l 1,57,58
 133 270 133 270 133 223 c 0,59,60
 133 172 133 172 169 136 c 128,-1,61
 205 100 205 100 256 100 c 128,-1,62
 307 100 307 100 343 136 c 128,-1,63
 379 172 379 172 379 223 c 0,64,65
 379 270 379 270 347 305 c 1,46,-1
225 223 m 128,-1,67
 225 240 225 240 232 246.5 c 128,-1,68
 239 253 239 253 256 253 c 128,-1,69
 273 253 273 253 280 246.5 c 128,-1,70
 287 240 287 240 287 223 c 128,-1,71
 287 206 287 206 280 199 c 128,-1,72
 273 192 273 192 256 192 c 128,-1,73
 239 192 239 192 232 199 c 128,-1,66
 225 206 225 206 225 223 c 128,-1,67
205 223 m 128,-1,75
 205 199 205 199 218.5 185.5 c 128,-1,76
 232 172 232 172 256 172 c 128,-1,77
 280 172 280 172 293.5 185.5 c 128,-1,78
 307 199 307 199 307 223 c 128,-1,79
 307 247 307 247 293.5 260.5 c 128,-1,80
 280 274 280 274 256 274 c 128,-1,81
 232 274 232 274 218.5 260.5 c 128,-1,74
 205 247 205 247 205 223 c 128,-1,75
EndSplineSet
Validated: 5
EndChar

StartChar: uniF103
Encoding: 61699 61699 6
Width: 512
Flags: W
LayerCount: 2
Fore
SplineSet
375 133 m 1,0,-1
 360 147 l 1,1,-1
 256 43 l 1,2,-1
 152 148 l 1,3,-1
 137 133 l 1,4,-1
 256 14 l 1,5,-1
 375 133 l 1,0,-1
266 356 m 1,6,-1
 246 356 l 1,7,-1
 246 34 l 1,8,-1
 266 34 l 1,9,-1
 266 356 l 1,6,-1
EndSplineSet
Validated: 5
EndChar

StartChar: uniF104
Encoding: 61700 61700 7
Width: 512
Flags: W
LayerCount: 2
Fore
SplineSet
211 70 m 128,-1,1
 219 63 219 63 231 61 c 1,2,-1
 230 109 l 1,3,4
 220 111 220 111 212 114 c 128,-1,5
 204 117 204 117 199 120.5 c 128,-1,6
 194 124 194 124 191.5 129.5 c 128,-1,7
 189 135 189 135 189 143 c 128,-1,8
 189 151 189 151 192.5 158 c 128,-1,9
 196 165 196 165 201.5 170 c 128,-1,10
 207 175 207 175 214.5 178 c 128,-1,11
 222 181 222 181 230 181 c 1,12,-1
 230 193 l 1,13,-1
 241 193 l 1,14,-1
 241 181 l 1,15,16
 257 179 257 179 267 170 c 128,-1,17
 277 161 277 161 281 146 c 1,18,-1
 264 146 l 1,19,20
 260 163 260 163 241 166 c 1,21,-1
 241 122 l 1,22,-1
 253 119 l 2,23,24
 257 118 257 118 262.5 116 c 128,-1,25
 268 114 268 114 273 110 c 128,-1,26
 278 106 278 106 281.5 100 c 128,-1,27
 285 94 285 94 285 86 c 0,28,29
 285 77 285 77 282 70 c 128,-1,30
 279 63 279 63 273 58.5 c 128,-1,31
 267 54 267 54 259 51 c 128,-1,32
 251 48 251 48 242 47 c 1,33,-1
 242 32 l 1,34,-1
 231 32 l 1,35,-1
 231 47 l 1,36,37
 211 49 211 49 199 59.5 c 128,-1,38
 187 70 187 70 185 89 c 1,39,-1
 202 89 l 1,40,0
 203 77 203 77 211 70 c 128,-1,1
252 63 m 128,-1,42
 257 64 257 64 260.5 67 c 128,-1,43
 264 70 264 70 265.5 74 c 128,-1,44
 267 78 267 78 267 84 c 256,45,46
 267 90 267 90 265 93 c 128,-1,47
 263 96 263 96 260 98.5 c 128,-1,48
 257 101 257 101 252 103 c 128,-1,49
 247 105 247 105 241 106 c 1,50,-1
 242 61 l 1,51,41
 247 62 247 62 252 63 c 128,-1,42
214 160.5 m 128,-1,53
 207 155 207 155 207 145 c 0,54,55
 207 140 207 140 209 137 c 128,-1,56
 211 134 211 134 214 131.5 c 128,-1,57
 217 129 217 129 221 128 c 0,58,59
 226 126 226 126 230 125 c 1,60,-1
 230 167 l 1,61,52
 221 166 221 166 214 160.5 c 128,-1,53
286 269 m 1,62,-1
 288 263 l 1,63,-1
 294 261 l 1,64,65
 349 245 349 245 392 196 c 128,-1,66
 435 147 435 147 435 94 c 0,67,68
 435 30 435 30 394.5 7 c 128,-1,69
 354 -16 354 -16 241 -16 c 256,70,71
 128 -16 128 -16 87.5 6.5 c 128,-1,72
 47 29 47 29 47 94 c 0,73,74
 47 144 47 144 87.5 195 c 128,-1,75
 128 246 128 246 175 257 c 1,76,-1
 182 258 l 1,77,-1
 183 266 l 2,78,79
 184 274 184 274 183 282.5 c 128,-1,80
 182 291 182 291 181 297.5 c 128,-1,81
 180 304 180 304 177 311.5 c 128,-1,82
 174 319 174 319 172 324 c 128,-1,83
 170 329 170 329 166 334.5 c 128,-1,84
 162 340 162 340 159.5 343.5 c 128,-1,85
 157 347 157 347 153.5 351 c 128,-1,86
 150 355 150 355 148 357 c 128,-1,87
 146 359 146 359 143.5 361 c 128,-1,88
 141 363 141 363 141 363 c 2,89,90
 136 368 136 368 134 372 c 1,91,92
 142 375 142 375 155 375 c 0,93,94
 169 375 169 375 175.5 375.5 c 128,-1,95
 182 376 182 376 193 380 c 128,-1,96
 204 384 204 384 210 393 c 0,97,98
 221 408 221 408 227.5 407.5 c 128,-1,99
 234 407 234 407 251 389 c 1,100,101
 261 380 261 380 272 379 c 128,-1,102
 283 378 283 378 298 382 c 128,-1,103
 313 386 313 386 317 387 c 1,104,105
 315 382 315 382 309 372 c 0,106,107
 274 317 274 317 286 269 c 1,62,-1
305 279 m 1,108,109
 304 291 304 291 303.5 298.5 c 128,-1,110
 303 306 303 306 305 315 c 128,-1,111
 307 324 307 324 308.5 329 c 128,-1,112
 310 334 310 334 313.5 340.5 c 128,-1,113
 317 347 317 347 318.5 350 c 128,-1,114
 320 353 320 353 323 356.5 c 128,-1,115
 326 360 326 360 326 361 c 0,116,117
 329 365 329 365 331.5 370 c 128,-1,118
 334 375 334 375 337.5 385 c 128,-1,119
 341 395 341 395 336 401 c 128,-1,120
 331 407 331 407 317 407 c 0,121,122
 306 407 306 407 293.5 404 c 128,-1,123
 281 401 281 401 277 400.5 c 128,-1,124
 273 400 273 400 266 404 c 1,125,126
 224 446 224 446 194 405 c 0,127,128
 187 395 187 395 155 395 c 0,129,130
 131 395 131 395 122 386.5 c 128,-1,131
 113 378 113 378 115.5 367.5 c 128,-1,132
 118 357 118 357 127 349 c 0,133,134
 163 313 163 313 163 275 c 1,135,136
 109 258 109 258 67.5 204 c 128,-1,137
 26 150 26 150 26 94 c 0,138,139
 26 19 26 19 75 -8.5 c 128,-1,140
 124 -36 124 -36 241 -36 c 256,141,142
 358 -36 358 -36 407 -8.5 c 128,-1,143
 456 19 456 19 456 94 c 0,144,145
 456 154 456 154 410 207 c 128,-1,146
 364 260 364 260 305 279 c 1,108,109
134 380 m 1,147,-1
 116 370 l 1,148,149
 135 338 135 338 159 327 c 128,-1,150
 183 316 183 316 202 333 c 0,151,152
 204 335 204 335 208 338.5 c 128,-1,153
 212 342 212 342 213 343 c 128,-1,154
 214 344 214 344 216.5 346 c 128,-1,155
 219 348 219 348 220 347.5 c 128,-1,156
 221 347 221 347 222.5 347 c 128,-1,157
 224 347 224 347 226 345 c 128,-1,158
 228 343 228 343 230 341 c 128,-1,159
 232 339 232 339 235 335 c 0,160,161
 249 322 249 322 263.5 324 c 128,-1,162
 278 326 278 326 290 337 c 0,163,164
 294 340 294 340 309 351 c 128,-1,165
 324 362 324 362 329.5 370 c 128,-1,166
 335 378 335 378 333 389 c 1,167,-1
 313 386 l 1,168,169
 313 384 313 384 310.5 381.5 c 128,-1,170
 308 379 308 379 297 370 c 128,-1,171
 286 361 286 361 277 352 c 1,172,173
 259 337 259 337 251 348 c 1,174,175
 239 362 239 362 227.5 364.5 c 128,-1,176
 216 367 216 367 207.5 362.5 c 128,-1,177
 199 358 199 358 188 348 c 1,178,179
 182 345 182 345 175 344 c 128,-1,180
 168 343 168 343 156.5 352 c 128,-1,181
 145 361 145 361 134 380 c 1,147,-1
178 276 m 1,182,-1
 167 258 l 1,183,184
 170 256 170 256 174.5 254 c 128,-1,185
 179 252 179 252 193.5 248 c 128,-1,186
 208 244 208 244 223 243 c 128,-1,187
 238 242 238 242 259.5 246.5 c 128,-1,188
 281 251 281 251 301 262 c 0,189,190
 304 264 304 264 321 274.5 c 128,-1,191
 338 285 338 285 346.5 289 c 128,-1,192
 355 293 355 293 372 293.5 c 128,-1,193
 389 294 389 294 405 285 c 1,194,-1
 415 303 l 1,195,196
 398 312 398 312 381.5 314.5 c 128,-1,197
 365 317 365 317 350.5 312 c 128,-1,198
 336 307 336 307 326.5 302 c 128,-1,199
 317 297 317 297 305 289 c 128,-1,200
 293 281 293 281 291 280 c 0,201,202
 263 264 263 264 234.5 263 c 128,-1,203
 206 262 206 262 192 269 c 2,204,-1
 178 276 l 1,182,-1
293 281 m 1,205,-1
 300 262 l 1,206,207
 358 284 358 284 392 247 c 1,208,-1
 407 260 l 1,209,210
 389 280 389 280 363 286 c 128,-1,211
 337 292 337 292 322 289 c 128,-1,212
 307 286 307 286 293 281 c 1,205,-1
EndSplineSet
Validated: 37
EndChar

StartChar: uniF105
Encoding: 61701 61701 8
Width: 512
Flags: W
LayerCount: 2
Fore
SplineSet
484 294 m 1,0,-1
 256 67 l 1,1,-1
 28 294 l 1,2,-1
 50 316 l 1,3,-1
 256 109 l 1,4,-1
 462 316 l 1,5,-1
 484 294 l 1,0,-1
EndSplineSet
Validated: 1
EndChar

StartChar: uniF106
Encoding: 61702 61702 9
Width: 512
Flags: W
LayerCount: 2
Fore
SplineSet
225 239 m 128,-1,1
 225 227 225 227 217.5 220 c 128,-1,2
 210 213 210 213 199 213 c 0,3,4
 184 213 184 213 179 218 c 1,5,6
 189 193 189 193 194 182 c 0,7,8
 195 181 195 181 184.5 180.5 c 128,-1,9
 174 180 174 180 163.5 180.5 c 128,-1,10
 153 181 153 181 154 182 c 2,11,-1
 169 218 l 1,12,13
 163 213 163 213 149 213 c 0,14,15
 138 213 138 213 130.5 220 c 128,-1,16
 123 227 123 227 123 239 c 128,-1,17
 123 251 123 251 136 267.5 c 128,-1,18
 149 284 149 284 161 294 c 2,19,-1
 174 305 l 1,20,21
 180 300 180 300 188.5 293 c 128,-1,22
 197 286 197 286 211 268.5 c 128,-1,0
 225 251 225 251 225 239 c 128,-1,1
0 407 m 2,23,-1
 0 59 l 2,24,25
 0 42 0 42 12 30 c 128,-1,26
 24 18 24 18 41 18 c 2,27,-1
 307 18 l 2,28,29
 324 18 324 18 336 30 c 128,-1,30
 348 42 348 42 348 59 c 2,31,-1
 348 407 l 2,32,33
 348 424 348 424 336 436 c 128,-1,34
 324 448 324 448 307 448 c 2,35,-1
 41 448 l 2,36,37
 24 448 24 448 12 436 c 128,-1,38
 0 424 0 424 0 407 c 2,23,-1
20 407 m 2,39,40
 20 416 20 416 26 422 c 128,-1,41
 32 428 32 428 41 428 c 2,42,-1
 307 428 l 2,43,44
 316 428 316 428 322 422 c 128,-1,45
 328 416 328 416 328 407 c 2,46,-1
 328 59 l 2,47,48
 328 50 328 50 322 44 c 128,-1,49
 316 38 316 38 307 38 c 2,50,-1
 41 38 l 2,51,52
 32 38 32 38 26 44 c 128,-1,53
 20 50 20 50 20 59 c 2,54,-1
 20 407 l 2,39,40
266 406 m 2,55,56
 267 407 267 407 268 407 c 2,57,-1
 275 407 l 2,58,59
 277 407 277 407 277 406 c 2,60,-1
 305 326 l 2,61,62
 305 325 305 325 304 325 c 2,63,-1
 296 325 l 2,64,65
 295 325 295 325 294 326 c 2,66,-1
 288 344 l 1,67,-1
 255 344 l 1,68,-1
 249 326 l 2,69,70
 248 325 248 325 247 325 c 2,71,-1
 239 325 l 2,72,73
 237 325 237 325 238 326 c 2,74,-1
 266 406 l 2,55,56
284 354 m 1,75,-1
 272 391 l 1,76,-1
 271 391 l 1,77,-1
 258 354 l 1,78,-1
 284 354 l 1,75,-1
82 60 m 2,79,80
 82 59 82 59 81 59 c 2,81,-1
 73 59 l 2,82,83
 72 59 72 59 71 60 c 2,84,-1
 43 140 l 2,85,86
 43 141 43 141 44 141 c 2,87,-1
 52 141 l 2,88,89
 54 141 54 141 54 140 c 2,90,-1
 60 122 l 1,91,-1
 93 122 l 1,92,-1
 100 140 l 2,93,94
 100 141 100 141 101 141 c 2,95,-1
 110 141 l 2,96,97
 111 141 111 141 110 140 c 2,98,-1
 82 60 l 2,79,80
64 112 m 1,99,-1
 77 75 l 1,100,-1
 90 112 l 1,101,-1
 64 112 l 1,99,-1
341 391 m 1,102,-1
 335 371 l 1,103,-1
 477 327 l 2,104,105
 485 325 485 325 489 317.5 c 128,-1,106
 493 310 493 310 490 302 c 2,107,-1
 387 -31 l 2,108,109
 384 -39 384 -39 376.5 -43 c 128,-1,110
 369 -47 369 -47 361 -44 c 2,111,-1
 98 38 l 1,112,-1
 92 18 l 1,113,-1
 355 -64 l 2,114,115
 371 -69 371 -69 386 -61 c 128,-1,116
 401 -53 401 -53 406 -37 c 2,117,-1
 510 295 l 2,118,119
 515 312 515 312 507 327 c 128,-1,120
 499 342 499 342 483 347 c 2,121,-1
 341 391 l 1,102,-1
431 319 m 2,122,123
 432 320 432 320 433 319 c 2,124,-1
 441 317 l 2,125,126
 442 317 442 317 442 315 c 2,127,-1
 445 231 l 2,128,129
 445 230 445 230 444 230 c 2,130,-1
 436 233 l 2,131,132
 434 233 434 233 434 234 c 2,133,-1
 434 253 l 1,134,-1
 402 263 l 1,135,-1
 391 248 l 2,136,137
 390 247 390 247 389 247 c 2,138,-1
 381 250 l 2,139,140
 380 250 380 250 381 251 c 2,141,-1
 431 319 l 2,122,123
433 264 m 1,142,-1
 432 303 l 1,143,-1
 408 272 l 1,144,-1
 433 264 l 1,142,-1
EndSplineSet
Validated: 37
EndChar

StartChar: uniF107
Encoding: 61703 61703 10
Width: 512
Flags: W
LayerCount: 2
Fore
SplineSet
61 305 m 1,0,-1
 61 284 l 1,1,-1
 451 284 l 1,2,-1
 451 305 l 1,3,-1
 61 305 l 1,0,-1
61 212 m 1,4,-1
 61 172 l 1,5,-1
 451 172 l 1,6,-1
 451 212 l 1,7,-1
 61 212 l 1,4,-1
61 100 m 1,8,-1
 61 38 l 1,9,-1
 451 38 l 1,10,-1
 451 100 l 1,11,-1
 61 100 l 1,8,-1
EndSplineSet
Validated: 9
EndChar

StartChar: uniF108
Encoding: 61704 61704 11
Width: 512
Flags: W
LayerCount: 2
Fore
SplineSet
491 202 m 128,-1,1
 491 287 491 287 422 346.5 c 128,-1,2
 353 406 353 406 256 406 c 128,-1,3
 159 406 159 406 90 346.5 c 128,-1,4
 21 287 21 287 21 202 c 0,5,6
 21 153 21 153 45.5 111 c 128,-1,7
 70 69 70 69 113 40 c 1,8,9
 109 6 109 6 84 -28 c 1,10,-1
 74 -43 l 1,11,-1
 92 -43 l 2,12,13
 152 -43 152 -43 198 4 c 1,14,15
 227 -2 227 -2 256 -2 c 0,16,17
 353 -2 353 -2 422 57.5 c 128,-1,0
 491 117 491 117 491 202 c 128,-1,1
472 202 m 128,-1,19
 472 126 472 126 409 71.5 c 128,-1,20
 346 17 346 17 256 17 c 0,21,22
 226 17 226 17 197 24 c 1,23,-1
 191 26 l 1,24,-1
 187 21 l 2,25,26
 183 17 183 17 176.5 10.5 c 128,-1,27
 170 4 170 4 149.5 -7.5 c 128,-1,28
 129 -19 129 -19 110 -22 c 1,29,30
 132 17 132 17 132 45 c 2,31,-1
 132 50 l 1,32,-1
 128 53 l 1,33,34
 87 79 87 79 63.5 118 c 128,-1,35
 40 157 40 157 40 202 c 0,36,37
 40 278 40 278 103 332.5 c 128,-1,38
 166 387 166 387 256 387 c 128,-1,39
 346 387 346 387 409 332.5 c 128,-1,18
 472 278 472 278 472 202 c 128,-1,19
EndSplineSet
Validated: 9
EndChar

StartChar: uniF109
Encoding: 61705 61705 12
Width: 512
Flags: W
LayerCount: 2
Fore
SplineSet
143 325 m 2,0,1
 143 341 143 341 155.5 353.5 c 128,-1,2
 168 366 168 366 183 366 c 2,3,-1
 332 366 l 2,4,5
 347 366 347 366 358 355 c 128,-1,6
 369 344 369 344 369 329 c 2,7,-1
 369 -6 l 2,8,9
 369 -22 369 -22 358 -33 c 128,-1,10
 347 -44 347 -44 332 -44 c 2,11,-1
 184 -44 l 2,12,13
 171 -44 171 -44 157 -32 c 128,-1,14
 143 -20 143 -20 143 -3 c 2,15,-1
 143 325 l 2,0,1
123 325 m 2,16,-1
 123 -3 l 2,17,18
 123 -29 123 -29 143 -46.5 c 128,-1,19
 163 -64 163 -64 184 -64 c 2,20,-1
 332 -64 l 2,21,22
 355 -64 355 -64 372 -47 c 128,-1,23
 389 -30 389 -30 389 -6 c 2,24,-1
 389 329 l 2,25,26
 389 353 389 353 372 370 c 128,-1,27
 355 387 355 387 332 387 c 2,28,-1
 183 387 l 2,29,30
 159 387 159 387 141 368 c 128,-1,31
 123 349 123 349 123 325 c 2,16,-1
184 18 m 1,32,-1
 184 315 l 1,33,-1
 328 315 l 1,34,-1
 328 18 l 1,35,-1
 184 18 l 1,32,-1
164 -3 m 1,36,-1
 348 -3 l 1,37,-1
 348 335 l 1,38,-1
 164 335 l 1,39,-1
 164 -3 l 1,36,-1
241 -23 m 128,-1,41
 241 -8 241 -8 256 -8 c 128,-1,42
 271 -8 271 -8 271 -23 c 128,-1,43
 271 -38 271 -38 256 -38 c 128,-1,40
 241 -38 241 -38 241 -23 c 128,-1,41
EndSplineSet
Validated: 9
EndChar

StartChar: uniF10A
Encoding: 61706 61706 13
Width: 512
Flags: W
LayerCount: 2
Fore
SplineSet
490 391 m 1,0,-1
 472 401 l 1,1,-1
 340 152 l 1,2,3
 315 152 315 152 289 173.5 c 128,-1,4
 263 195 263 195 263 213 c 1,5,-1
 386 390 l 1,6,-1
 369 402 l 1,7,-1
 244 221 l 1,8,-1
 243 219 l 1,9,10
 237 185 237 185 277 155.5 c 128,-1,11
 317 126 317 126 348 132 c 2,12,-1
 353 133 l 1,13,-1
 490 391 l 1,0,-1
254 189 m 1,14,-1
 253 209 l 1,15,16
 212 207 212 207 184.5 190 c 128,-1,17
 157 173 157 173 145 149 c 128,-1,18
 133 125 133 125 122.5 95 c 128,-1,19
 112 65 112 65 103.5 38.5 c 128,-1,20
 95 12 95 12 76 -11 c 128,-1,21
 57 -34 57 -34 27 -44 c 2,22,-1
 -32 -64 l 1,23,-1
 31 -64 l 2,24,25
 99 -64 99 -64 145.5 -59.5 c 128,-1,26
 192 -55 192 -55 232.5 -42 c 128,-1,27
 273 -29 273 -29 296 -6 c 128,-1,28
 319 17 319 17 332 53 c 128,-1,29
 345 89 345 89 345 141 c 1,30,-1
 325 141 l 1,31,32
 325 86 325 86 312 51 c 128,-1,33
 299 16 299 16 267 -4.5 c 128,-1,34
 235 -25 235 -25 190.5 -33 c 128,-1,35
 146 -41 146 -41 74 -43 c 1,36,37
 100 -23 100 -23 116.5 8.5 c 128,-1,38
 133 40 133 40 140.5 69 c 128,-1,39
 148 98 148 98 158 125 c 128,-1,40
 168 152 168 152 191.5 169.5 c 128,-1,41
 215 187 215 187 254 189 c 1,14,-1
EndSplineSet
Validated: 37
EndChar

StartChar: uniF10B
Encoding: 61707 61707 14
Width: 512
Flags: W
LayerCount: 2
Fore
SplineSet
471 -3 m 1,0,-1
 451 -3 l 1,1,-1
 451 -33 l 2,2,3
 451 -38 451 -38 448 -41 c 128,-1,4
 445 -44 445 -44 440 -44 c 2,5,-1
 399 -44 l 2,6,7
 395 -44 395 -44 392 -41 c 128,-1,8
 389 -38 389 -38 389 -33 c 2,9,-1
 389 -13 l 1,10,-1
 369 -13 l 1,11,-1
 369 -33 l 2,12,13
 369 -46 369 -46 378 -55 c 128,-1,14
 387 -64 387 -64 399 -64 c 2,15,-1
 440 -64 l 2,16,17
 453 -64 453 -64 462 -55 c 128,-1,18
 471 -46 471 -46 471 -33 c 2,19,-1
 471 -3 l 1,0,-1
143 -13 m 1,20,-1
 123 -13 l 1,21,-1
 123 -33 l 2,22,23
 123 -38 123 -38 120 -41 c 128,-1,24
 117 -44 117 -44 113 -44 c 2,25,-1
 72 -44 l 2,26,27
 67 -44 67 -44 64 -41 c 128,-1,28
 61 -38 61 -38 61 -33 c 2,29,-1
 61 -3 l 1,30,-1
 41 -3 l 1,31,-1
 41 -33 l 2,32,33
 41 -46 41 -46 50 -55 c 128,-1,34
 59 -64 59 -64 72 -64 c 2,35,-1
 113 -64 l 2,36,37
 125 -64 125 -64 134 -55 c 128,-1,38
 143 -46 143 -46 143 -33 c 2,39,-1
 143 -13 l 1,20,-1
461 356 m 2,40,-1
 461 28 l 2,41,42
 461 10 461 10 449 3.5 c 128,-1,43
 437 -3 437 -3 410 -3 c 2,44,-1
 102 -3 l 2,45,46
 75 -3 75 -3 63 3.5 c 128,-1,47
 51 10 51 10 51 28 c 2,48,-1
 51 366 l 2,49,50
 51 403 51 403 65 415.5 c 128,-1,51
 79 428 79 428 123 428 c 2,52,-1
 410 428 l 2,53,54
 441 428 441 428 451 412.5 c 128,-1,55
 461 397 461 397 461 356 c 2,40,-1
481 356 m 2,56,57
 481 401 481 401 466 424.5 c 128,-1,58
 451 448 451 448 410 448 c 2,59,-1
 123 448 l 2,60,61
 74 448 74 448 52.5 429 c 128,-1,62
 31 410 31 410 31 366 c 2,63,-1
 31 28 l 2,64,65
 31 -23 31 -23 102 -23 c 2,66,-1
 410 -23 l 2,67,68
 481 -23 481 -23 481 28 c 2,69,-1
 481 356 l 2,56,57
369 64 m 128,-1,71
 369 78 369 78 374.5 84 c 128,-1,72
 380 90 380 90 394.5 90 c 128,-1,73
 409 90 409 90 414.5 84 c 128,-1,74
 420 78 420 78 420 64 c 128,-1,75
 420 50 420 50 414.5 44 c 128,-1,76
 409 38 409 38 394.5 38 c 128,-1,77
 380 38 380 38 374.5 44 c 128,-1,70
 369 50 369 50 369 64 c 128,-1,71
348 64 m 128,-1,79
 348 42 348 42 360.5 30 c 128,-1,80
 373 18 373 18 394.5 18 c 128,-1,81
 416 18 416 18 428 30 c 128,-1,82
 440 42 440 42 440 64 c 128,-1,83
 440 86 440 86 428 98 c 128,-1,84
 416 110 416 110 394.5 110 c 128,-1,85
 373 110 373 110 360.5 98 c 128,-1,78
 348 86 348 86 348 64 c 128,-1,79
92 64 m 128,-1,87
 92 78 92 78 97.5 84 c 128,-1,88
 103 90 103 90 117.5 90 c 128,-1,89
 132 90 132 90 137.5 84 c 128,-1,90
 143 78 143 78 143 64 c 128,-1,91
 143 50 143 50 137.5 44 c 128,-1,92
 132 38 132 38 117.5 38 c 128,-1,93
 103 38 103 38 97.5 44 c 128,-1,86
 92 50 92 50 92 64 c 128,-1,87
72 64 m 128,-1,95
 72 42 72 42 84 30 c 128,-1,96
 96 18 96 18 117.5 18 c 128,-1,97
 139 18 139 18 151.5 30 c 128,-1,98
 164 42 164 42 164 64 c 128,-1,99
 164 86 164 86 151.5 98 c 128,-1,100
 139 110 139 110 117.5 110 c 128,-1,101
 96 110 96 110 84 98 c 128,-1,94
 72 86 72 86 72 64 c 128,-1,95
471 325 m 1,102,-1
 471 305 l 1,103,-1
 492 305 l 1,104,-1
 492 223 l 1,105,-1
 471 223 l 1,106,-1
 471 202 l 1,107,-1
 492 202 l 2,108,109
 500 202 500 202 506 208 c 128,-1,110
 512 214 512 214 512 223 c 2,111,-1
 512 305 l 2,112,113
 512 313 512 313 506 319 c 128,-1,114
 500 325 500 325 492 325 c 2,115,-1
 471 325 l 1,102,-1
41 305 m 1,116,-1
 41 325 l 1,117,-1
 20 325 l 2,118,119
 12 325 12 325 6 319 c 128,-1,120
 0 313 0 313 0 305 c 2,121,-1
 0 223 l 2,122,123
 0 214 0 214 6 208 c 128,-1,124
 12 202 12 202 20 202 c 2,125,-1
 41 202 l 1,126,-1
 41 223 l 1,127,-1
 20 223 l 1,128,-1
 20 305 l 1,129,-1
 41 305 l 1,116,-1
389 376 m 2,130,-1
 389 397 l 2,131,132
 389 405 389 405 383 411 c 128,-1,133
 377 417 377 417 369 417 c 2,134,-1
 154 417 l 2,135,136
 145 417 145 417 139 411 c 128,-1,137
 133 405 133 405 133 397 c 2,138,-1
 133 376 l 2,139,140
 133 368 133 368 139 362 c 128,-1,141
 145 356 145 356 154 356 c 2,142,-1
 369 356 l 2,143,144
 377 356 377 356 383 362 c 128,-1,145
 389 368 389 368 389 376 c 2,130,-1
369 376 m 1,146,-1
 154 376 l 1,147,-1
 154 397 l 1,148,-1
 369 397 l 1,149,-1
 369 376 l 1,146,-1
399 142 m 2,150,151
 413 142 413 142 426.5 152.5 c 128,-1,152
 440 163 440 163 440 182 c 2,153,-1
 440 305 l 2,154,155
 440 324 440 324 429 335 c 128,-1,156
 418 346 418 346 399 346 c 2,157,-1
 113 346 l 2,158,159
 94 346 94 346 83 335 c 128,-1,160
 72 324 72 324 72 305 c 2,161,-1
 72 182 l 2,162,163
 72 163 72 163 83 152 c 128,-1,164
 94 141 94 141 113 141 c 2,165,-1
 399 142 l 2,150,151
399 162 m 2,166,-1
 113 161 l 2,167,168
 101 161 101 161 96.5 165.5 c 128,-1,169
 92 170 92 170 92 182 c 2,170,-1
 92 305 l 2,171,172
 92 316 92 316 96.5 320.5 c 128,-1,173
 101 325 101 325 113 325 c 2,174,-1
 399 325 l 2,175,176
 411 325 411 325 415.5 320.5 c 128,-1,177
 420 316 420 316 420 305 c 2,178,-1
 420 182 l 2,179,180
 420 173 420 173 413 167.5 c 128,-1,181
 406 162 406 162 399 162 c 2,166,-1
EndSplineSet
Validated: 5
EndChar

StartChar: uniF10C
Encoding: 61708 61708 15
Width: 512
Flags: W
LayerCount: 2
Fore
SplineSet
20 192 m 128,-1,1
 20 311 20 311 78.5 369.5 c 128,-1,2
 137 428 137 428 256 428 c 128,-1,3
 375 428 375 428 433.5 369.5 c 128,-1,4
 492 311 492 311 492 192 c 128,-1,5
 492 73 492 73 433.5 14.5 c 128,-1,6
 375 -44 375 -44 256 -44 c 128,-1,7
 137 -44 137 -44 78.5 14.5 c 128,-1,0
 20 73 20 73 20 192 c 128,-1,1
0 192 m 128,-1,9
 0 66 0 66 65 1 c 128,-1,10
 130 -64 130 -64 256 -64 c 128,-1,11
 382 -64 382 -64 447 1 c 128,-1,12
 512 66 512 66 512 192 c 128,-1,13
 512 318 512 318 447 383 c 128,-1,14
 382 448 382 448 256 448 c 128,-1,15
 130 448 130 448 65 383 c 128,-1,8
 0 318 0 318 0 192 c 128,-1,9
296 83 m 2,16,-1
 296 82 l 1,17,-1
 297 81 l 1,18,19
 304 62 304 62 328 50 c 0,20,21
 349 39 349 39 378 28 c 0,22,23
 395 21 395 21 409 11 c 1,24,25
 389 -9 389 -9 352 -25 c 1,26,27
 309 -45 309 -45 257 -45 c 0,28,29
 224 -45 224 -45 187 -31 c 0,30,31
 150 -16 150 -16 130 -3 c 0,32,33
 116 6 116 6 105 15 c 1,34,35
 117 24 117 24 135 30 c 0,36,37
 163 41 163 41 184 50 c 0,38,39
 209 62 209 62 216 81 c 1,40,-1
 216 82 l 1,41,-1
 216 83 l 1,42,43
 217 92 217 92 217 97 c 2,44,-1
 218 106 l 1,45,-1
 208 107 l 2,46,47
 159 112 159 112 145 123 c 1,48,49
 153 136 153 136 155 163 c 0,50,51
 157 192 157 192 158 226 c 0,52,53
 159 258 159 258 165 290 c 1,54,55
 172 320 172 320 194.5 341 c 128,-1,56
 217 362 217 362 257 365 c 1,57,58
 277 365 277 365 288 356 c 1,59,-1
 291 353 l 1,60,-1
 295 354 l 1,61,62
 322 355 322 355 337 337 c 0,63,64
 352 318 352 318 356 289 c 1,65,66
 359 257 359 257 359 224 c 0,67,68
 359 190 359 190 361 161 c 0,69,70
 362 136 362 136 370 123 c 1,71,72
 363 120 363 120 357 117 c 0,73,74
 337 110 337 110 305 107 c 2,75,-1
 295 106 l 1,76,-1
 296 96 l 2,77,78
 296 87 296 87 296 83 c 2,16,-1
316 88 m 1,79,80
 346 92 346 92 364 98 c 0,81,82
 392 108 392 108 392 124 c 2,83,-1
 392 130 l 1,84,-1
 388 133 l 1,85,86
 383 138 383 138 381 162 c 1,87,88
 380 190 380 190 380 224 c 256,89,90
 380 258 380 258 376 291 c 0,91,92
 372 327 372 327 352.5 350.5 c 128,-1,93
 333 374 333 374 298 374 c 1,94,95
 280 386 280 386 257 386 c 2,96,-1
 256 386 l 1,97,98
 208 382 208 382 181 356 c 1,99,100
 153 331 153 331 145 295 c 0,101,102
 138 261 138 261 137 226 c 0,103,104
 136 193 136 193 134 164 c 0,105,106
 133 138 133 138 126 131 c 2,107,-1
 123 128 l 1,108,-1
 123 124 l 2,109,110
 123 107 123 107 142.5 99.5 c 128,-1,111
 162 92 162 92 197 88 c 1,112,113
 191 76 191 76 175 69 c 0,114,115
 155 60 155 60 128 49 c 1,116,117
 98 38 98 38 81 23 c 1,118,-1
 73 15 l 1,119,-1
 82 8 l 1,120,121
 97 -6 97 -6 118 -20 c 0,122,123
 140 -34 140 -34 180 -50 c 0,124,125
 220 -65 220 -65 257 -65 c 0,126,127
 313 -65 313 -65 361 -43.5 c 128,-1,128
 409 -22 409 -22 432 6 c 1,129,-1
 439 14 l 1,130,-1
 431 20 l 1,131,132
 415 35 415 35 385 47 c 0,133,134
 358 58 358 58 337 68 c 0,135,136
 322 76 322 76 316 88 c 1,79,80
EndSplineSet
Validated: 37
EndChar

StartChar: uniF10D
Encoding: 61709 61709 16
Width: 512
Flags: W
LayerCount: 2
Fore
SplineSet
512 264 m 1,0,-1
 383 264 l 1,1,-1
 373 305 l 1,2,-1
 138 305 l 1,3,-1
 128 253 l 1,4,-1
 0 253 l 1,5,-1
 0 325 l 1,6,-1
 512 325 l 1,7,-1
 512 264 l 1,0,-1
136 297 m 1,8,-1
 116 300 l 1,9,-1
 80 107 l 1,10,11
 72 75 72 75 89 51.5 c 128,-1,12
 106 28 106 28 141 28 c 2,13,-1
 371 28 l 2,14,15
 406 28 406 28 423 51 c 128,-1,16
 440 74 440 74 432 107 c 1,17,-1
 396 300 l 1,18,-1
 376 297 l 1,19,-1
 412 103 l 1,20,21
 418 77 418 77 407.5 63 c 128,-1,22
 397 49 397 49 371 49 c 2,23,-1
 141 49 l 2,24,25
 115 49 115 49 104.5 63.5 c 128,-1,26
 94 78 94 78 100 103 c 1,27,-1
 136 297 l 1,8,-1
357 45 m 1,28,-1
 271 45 l 1,29,-1
 271 305 l 1,30,-1
 325 305 l 1,31,-1
 357 45 l 1,28,-1
EndSplineSet
Validated: 37
EndChar

StartChar: uniF10E
Encoding: 61710 61710 17
Width: 512
Flags: W
LayerCount: 2
Fore
SplineSet
233 374 m 1,0,-1
 229 395 l 1,1,2
 181 386 181 386 152 350.5 c 128,-1,3
 123 315 123 315 123 264 c 0,4,5
 123 218 123 218 114.5 186.5 c 128,-1,6
 106 155 106 155 94 140.5 c 128,-1,7
 82 126 82 126 70 117 c 128,-1,8
 58 108 58 108 49.5 99.5 c 128,-1,9
 41 91 41 91 41 79 c 0,10,11
 41 59 41 59 58.5 46 c 128,-1,12
 76 33 76 33 109.5 27.5 c 128,-1,13
 143 22 143 22 176 20 c 128,-1,14
 209 18 209 18 256 18 c 128,-1,15
 303 18 303 18 336 20 c 128,-1,16
 369 22 369 22 402.5 27.5 c 128,-1,17
 436 33 436 33 453.5 46 c 128,-1,18
 471 59 471 59 471 79 c 0,19,20
 471 91 471 91 462.5 99.5 c 128,-1,21
 454 108 454 108 442 117 c 128,-1,22
 430 126 430 126 418 140.5 c 128,-1,23
 406 155 406 155 397.5 186.5 c 128,-1,24
 389 218 389 218 389 264 c 0,25,26
 389 315 389 315 359.5 351 c 128,-1,27
 330 387 330 387 281 395 c 1,28,-1
 278 375 l 1,29,30
 319 368 319 368 344 338 c 128,-1,31
 369 308 369 308 369 264 c 0,32,33
 369 218 369 218 377.5 182.5 c 128,-1,34
 386 147 386 147 398 129 c 128,-1,35
 410 111 410 111 422 100 c 128,-1,36
 434 89 434 89 442.5 84.5 c 128,-1,37
 451 80 451 80 451 79 c 0,38,39
 451 60 451 60 398.5 49 c 128,-1,40
 346 38 346 38 256 38 c 128,-1,41
 166 38 166 38 113.5 49 c 128,-1,42
 61 60 61 60 61 79 c 0,43,44
 61 80 61 80 69.5 84.5 c 128,-1,45
 78 89 78 89 90 100 c 128,-1,46
 102 111 102 111 114 129 c 128,-1,47
 126 147 126 147 134.5 182.5 c 128,-1,48
 143 218 143 218 143 264 c 0,49,50
 143 308 143 308 167.5 337.5 c 128,-1,51
 192 367 192 367 233 374 c 1,0,-1
236 407 m 128,-1,53
 236 419 236 419 240 423.5 c 128,-1,54
 244 428 244 428 256 428 c 128,-1,55
 268 428 268 428 272 423.5 c 128,-1,56
 276 419 276 419 276 407 c 128,-1,57
 276 395 276 395 272 391 c 128,-1,58
 268 387 268 387 256 387 c 128,-1,59
 244 387 244 387 240 391 c 128,-1,52
 236 395 236 395 236 407 c 128,-1,53
215 407 m 128,-1,61
 215 388 215 388 226 377 c 128,-1,62
 237 366 237 366 256 366 c 128,-1,63
 275 366 275 366 286 377 c 128,-1,64
 297 388 297 388 297 407 c 128,-1,65
 297 426 297 426 286 437 c 128,-1,66
 275 448 275 448 256 448 c 128,-1,67
 237 448 237 448 226 437 c 128,-1,60
 215 426 215 426 215 407 c 128,-1,61
307 32 m 1,68,-1
 290 20 l 1,69,70
 297 10 297 10 297 -3 c 0,71,72
 297 -20 297 -20 285 -32 c 128,-1,73
 273 -44 273 -44 256 -44 c 128,-1,74
 239 -44 239 -44 227 -32 c 128,-1,75
 215 -20 215 -20 215 -3 c 0,76,77
 215 9 215 9 221 19 c 1,78,-1
 204 30 l 1,79,80
 195 15 195 15 195 -3 c 0,81,82
 195 -28 195 -28 213 -46 c 128,-1,83
 231 -64 231 -64 256 -64 c 128,-1,84
 281 -64 281 -64 299 -46 c 128,-1,85
 317 -28 317 -28 317 -3 c 0,86,87
 317 16 317 16 307 32 c 1,68,-1
EndSplineSet
Validated: 5
EndChar

StartChar: uniF10F
Encoding: 61711 61711 18
Width: 512
Flags: W
LayerCount: 2
Fore
SplineSet
379 49 m 1,0,-1
 379 131 l 1,1,-1
 461 131 l 1,2,-1
 461 49 l 1,3,-1
 379 49 l 1,0,-1
358 28 m 1,4,-1
 481 28 l 1,5,-1
 481 151 l 1,6,-1
 358 151 l 1,7,-1
 358 28 l 1,4,-1
51 49 m 1,8,-1
 51 131 l 1,9,-1
 133 131 l 1,10,-1
 133 49 l 1,11,-1
 51 49 l 1,8,-1
31 28 m 1,12,-1
 154 28 l 1,13,-1
 154 151 l 1,14,-1
 31 151 l 1,15,-1
 31 28 l 1,12,-1
215 264 m 1,16,-1
 215 346 l 1,17,-1
 297 346 l 1,18,-1
 297 264 l 1,19,-1
 215 264 l 1,16,-1
195 243 m 1,20,-1
 317 243 l 1,21,-1
 317 366 l 1,22,-1
 195 366 l 1,23,-1
 195 243 l 1,20,-1
314 305 m 1,24,-1
 307 286 l 1,25,26
 353 270 353 270 381.5 230 c 128,-1,27
 410 190 410 190 410 141 c 1,28,-1
 430 141 l 1,29,30
 430 197 430 197 397.5 242 c 128,-1,31
 365 287 365 287 314 305 c 1,24,-1
82 141 m 1,32,-1
 102 141 l 1,33,34
 102 190 102 190 130 229 c 128,-1,35
 158 268 158 268 203 285 c 1,36,-1
 195 304 l 1,37,38
 145 285 145 285 113.5 240.5 c 128,-1,39
 82 196 82 196 82 141 c 1,32,-1
307 315 m 1,40,-1
 307 294 l 1,41,-1
 492 294 l 1,42,-1
 492 315 l 1,43,-1
 307 315 l 1,40,-1
20 315 m 1,44,-1
 20 294 l 1,45,-1
 205 294 l 1,46,-1
 205 315 l 1,47,-1
 20 315 l 1,44,-1
451 304.5 m 128,-1,49
 451 335 451 335 481.5 335 c 128,-1,50
 512 335 512 335 512 304.5 c 128,-1,51
 512 274 512 274 481.5 274 c 128,-1,48
 451 274 451 274 451 304.5 c 128,-1,49
0 304.5 m 128,-1,53
 0 335 0 335 30.5 335 c 128,-1,54
 61 335 61 335 61 304.5 c 128,-1,55
 61 274 61 274 30.5 274 c 128,-1,52
 0 274 0 274 0 304.5 c 128,-1,53
EndSplineSet
Validated: 5
EndChar

StartChar: uniF110
Encoding: 61712 61712 19
Width: 512
Flags: W
LayerCount: 2
Fore
SplineSet
307 212 m 0,0,-1
317 212 m 1,1,-1
 297 212 l 1,2,-1
 297 -15 l 1,3,-1
 215 34 l 1,4,-1
 215 212 l 1,5,-1
 195 212 l 1,6,-1
 195 22 l 1,7,-1
 317 -51 l 1,8,-1
 317 212 l 1,1,-1
317 212 m 1,9,-1
 297 212 l 1,10,-1
 297 -15 l 1,11,-1
 215 34 l 1,12,-1
 215 212 l 1,13,-1
 195 212 l 1,14,-1
 195 22 l 1,15,-1
 317 -51 l 1,16,-1
 317 212 l 1,9,-1
471 387 m 1,17,-1
 481 387 l 1,18,-1
 481 428 l 1,19,-1
 31 428 l 1,20,-1
 31 382 l 1,21,-1
 200 202 l 1,22,-1
 312 202 l 1,23,-1
 478 380 l 1,24,-1
 471 387 l 1,17,-1
471 387 m 1,25,26
 468 389 468 389 458 382 c 128,-1,27
 448 375 448 375 433 361 c 128,-1,28
 418 347 418 347 401.5 330.5 c 128,-1,29
 385 314 385 314 368 295 c 128,-1,30
 351 276 351 276 337.5 261.5 c 128,-1,31
 324 247 324 247 314 235.5 c 128,-1,32
 304 224 304 224 303 223 c 1,33,-1
 209 223 l 1,34,-1
 51 391 l 1,35,-1
 51 407 l 1,36,-1
 461 407 l 1,37,38
 461 404 461 404 466 399 c 128,-1,39
 471 394 471 394 471 387 c 1,25,26
EndSplineSet
Validated: 5
EndChar

StartChar: uniF111
Encoding: 61713 61713 20
Width: 512
Flags: W
LayerCount: 2
Fore
SplineSet
461 233 m 1,0,-1
 440 233 l 1,1,-1
 440 -44 l 1,2,-1
 72 -44 l 1,3,-1
 72 233 l 1,4,-1
 51 233 l 1,5,-1
 51 -64 l 1,6,-1
 461 -64 l 1,7,-1
 461 233 l 1,0,-1
184 -54 m 1,8,-1
 205 -54 l 1,9,-1
 205 151 l 1,10,-1
 307 151 l 1,11,-1
 307 -54 l 1,12,-1
 328 -54 l 1,13,-1
 328 172 l 1,14,-1
 184 172 l 1,15,-1
 184 -54 l 1,8,-1
358 397 m 1,16,-1
 420 397 l 1,17,-1
 420 302 l 1,18,-1
 399 323 l 1,19,-1
 399 376 l 1,20,-1
 379 376 l 1,21,-1
 379 345 l 1,22,-1
 358 366 l 1,23,-1
 358 397 l 1,16,-1
4 189 m 1,24,-1
 19 175 l 1,25,-1
 256 422 l 1,26,-1
 493 175 l 1,27,-1
 508 189 l 1,28,-1
 256 452 l 1,29,-1
 4 189 l 1,24,-1
EndSplineSet
Validated: 5
EndChar

StartChar: uniF112
Encoding: 61714 61714 21
Width: 512
Flags: W
LayerCount: 2
Fore
SplineSet
420 376 m 1,0,-1
 399 376 l 1,1,-1
 399 294 l 1,2,-1
 317 294 l 1,3,-1
 317 274 l 1,4,-1
 420 274 l 1,5,-1
 420 376 l 1,0,-1
440 192 m 1,6,-1
 420 192 l 1,7,8
 420 124 420 124 372 76 c 128,-1,9
 324 28 324 28 256 28 c 128,-1,10
 188 28 188 28 140 76 c 128,-1,11
 92 124 92 124 92 192 c 128,-1,12
 92 260 92 260 140 308 c 128,-1,13
 188 356 188 356 256 356 c 0,14,15
 329 356 329 356 378 302 c 0,16,17
 387 292 387 292 394 280 c 1,18,-1
 411 292 l 1,19,20
 403 304 403 304 393 315 c 0,21,22
 338 376 338 376 256 376 c 0,23,24
 180 376 180 376 126 322 c 128,-1,25
 72 268 72 268 72 192 c 128,-1,26
 72 116 72 116 126 62 c 128,-1,27
 180 8 180 8 256 8 c 128,-1,28
 332 8 332 8 386 62 c 128,-1,29
 440 116 440 116 440 192 c 1,6,-1
EndSplineSet
Validated: 5
EndChar

StartChar: uniF113
Encoding: 61715 61715 22
Width: 512
Flags: W
LayerCount: 2
Fore
SplineSet
28 130 m 132,-1,1
 28 61 28 61 77 12 c 132,-1,2
 126 -37 126 -37 195 -37 c 132,-1,3
 264 -37 264 -37 313 12 c 132,-1,4
 362 61 362 61 362 130 c 132,-1,5
 362 199 362 199 313 248 c 132,-1,6
 264 297 264 297 195 297 c 132,-1,7
 126 297 126 297 77 248 c 132,-1,0
 28 199 28 199 28 130 c 132,-1,1
11 130 m 128,-1,9
 11 206 11 206 65 260 c 128,-1,10
 119 314 119 314 195 314 c 128,-1,11
 271 314 271 314 325 260 c 128,-1,12
 379 206 379 206 379 130 c 128,-1,13
 379 54 379 54 325 0 c 128,-1,14
 271 -54 271 -54 195 -54 c 128,-1,15
 119 -54 119 -54 65 0 c 128,-1,8
 11 54 11 54 11 130 c 128,-1,9
484 256 m 1,16,-1
 499 271 l 1,17,-1
 335 435 l 1,18,-1
 320 420 l 1,19,-1
 484 256 l 1,16,-1
316 266 m 1,20,-1
 330 252 l 1,21,-1
 499 420 l 1,22,-1
 484 435 l 1,23,-1
 316 266 l 1,20,-1
EndSplineSet
Validated: 5
EndChar

StartChar: uniF114
Encoding: 61716 61716 23
Width: 512
Flags: W
LayerCount: 2
Fore
SplineSet
41 18 m 1,0,-1
 41 -3 l 1,1,-1
 225 -3 l 1,2,-1
 236 -3 l 1,3,-1
 246 -3 l 1,4,-1
 246 60.2383 l 1,5,6
 250.951 60 250.951 60 256 60 c 128,-1,7
 261.049 60 261.049 60 266 60.2383 c 1,8,-1
 266 -3 l 1,9,-1
 276 -3 l 1,10,-1
 287 -3 l 1,11,-1
 471 -3 l 1,12,-1
 471 18 l 1,13,-1
 287 18 l 1,14,-1
 287 62.3894 l 1,15,16
 343.359 71.359 343.359 71.359 386 114 c 0,17,18
 440 168 440 168 440 244 c 128,-1,19
 440 320 440 320 386 374 c 128,-1,20
 332 428 332 428 256 428 c 128,-1,21
 180 428 180 428 126 374 c 128,-1,22
 72 320 72 320 72 244 c 128,-1,23
 72 168 72 168 126 114 c 0,24,25
 168.641 71.359 168.641 71.359 225 62.3894 c 1,26,-1
 225 18 l 1,27,-1
 41 18 l 1,0,-1
41 -44 m 1,28,-1
 41 -64 l 1,29,-1
 471 -64 l 1,30,-1
 471 -44 l 1,31,-1
 41 -44 l 1,28,-1
94 243 m 128,-1,33
 94 310 94 310 142 358 c 128,-1,34
 190 406 190 406 257 406 c 128,-1,35
 324 406 324 406 372 358 c 128,-1,36
 420 310 420 310 420 243 c 128,-1,37
 420 176 420 176 372 128 c 128,-1,38
 324 80 324 80 257 80 c 128,-1,39
 190 80 190 80 142 128 c 128,-1,32
 94 176 94 176 94 243 c 128,-1,33
224 243 m 128,-1,41
 224 256 224 256 233.5 265.5 c 128,-1,42
 243 275 243 275 256 275 c 0,43,44
 259.816 275 259.816 275 263.33 274.181 c 1,45,-1
 358 346 l 1,46,47
 309.137 279.425 309.137 279.425 287.135 250.528 c 1,48,49
 288 246.923 288 246.923 288 243 c 0,50,51
 288 230 288 230 278.5 220.5 c 128,-1,52
 269 211 269 211 256 211 c 128,-1,53
 243 211 243 211 233.5 220.5 c 128,-1,40
 224 230 224 230 224 243 c 128,-1,41
EndSplineSet
Validated: 524297
EndChar

StartChar: uniF115
Encoding: 61717 61717 24
Width: 512
Flags: W
LayerCount: 2
Fore
SplineSet
297 223 m 1,0,-1
 297 243 l 1,1,-1
 195 243 l 1,2,-1
 195 346 l 1,3,-1
 174 346 l 1,4,-1
 174 223 l 1,5,-1
 297 223 l 1,0,-1
0 -64 m 1,6,-1
 317 -64 l 1,7,-1
 317 237 l 1,8,-1
 189 366 l 1,9,-1
 0 366 l 1,10,-1
 0 -64 l 1,6,-1
297 -44 m 1,11,-1
 20 -44 l 1,12,-1
 20 346 l 1,13,-1
 180 346 l 1,14,-1
 297 229 l 1,15,-1
 297 -44 l 1,11,-1
492 305 m 1,16,-1
 492 325 l 1,17,-1
 389 325 l 1,18,-1
 389 428 l 1,19,-1
 369 428 l 1,20,-1
 369 305 l 1,21,-1
 492 305 l 1,16,-1
383 448 m 1,22,-1
 512 319 l 1,23,-1
 512 18 l 1,24,-1
 338 18 l 1,25,-1
 338 38 l 1,26,-1
 492 38 l 1,27,-1
 492 311 l 1,28,-1
 375 428 l 1,29,-1
 215 428 l 1,30,-1
 215 366 l 1,31,-1
 195 387 l 1,32,-1
 195 448 l 1,33,-1
 383 448 l 1,22,-1
EndSplineSet
Validated: 5
EndChar

StartChar: uniF116
Encoding: 61718 61718 25
Width: 512
Flags: W
LayerCount: 2
Fore
SplineSet
505 -19 m 1,0,-1
 498 0 l 1,1,2
 491 -2 491 -2 483 -2 c 0,3,4
 452 -2 452 -2 432 13 c 1,5,-1
 426 18 l 1,6,-1
 420 13 l 1,7,8
 400 -2 400 -2 369 -2 c 128,-1,9
 338 -2 338 -2 319 13 c 2,10,-1
 313 18 l 1,11,-1
 306 13 l 1,12,13
 287 -2 287 -2 256 -2 c 128,-1,14
 225 -2 225 -2 206 13 c 1,15,-1
 199 18 l 1,16,-1
 193 13 l 2,17,18
 174 -2 174 -2 143 -2 c 128,-1,19
 112 -2 112 -2 92 13 c 1,20,-1
 86 18 l 1,21,-1
 80 13 l 1,22,23
 60 -2 60 -2 29 -2 c 0,24,25
 21 -2 21 -2 12 -1 c 1,26,-1
 9 -21 l 1,27,28
 19 -22 19 -22 29 -22 c 0,29,30
 61 -22 61 -22 86 -7 c 1,31,32
 110 -22 110 -22 142.5 -22 c 128,-1,33
 175 -22 175 -22 199 -7 c 1,34,35
 224 -22 224 -22 256 -22 c 128,-1,36
 288 -22 288 -22 313 -7 c 1,37,38
 337 -22 337 -22 369.5 -22 c 128,-1,39
 402 -22 402 -22 426 -7 c 1,40,41
 451 -22 451 -22 483 -22 c 0,42,43
 495 -22 495 -22 505 -19 c 1,0,-1
505 -60 m 1,44,-1
 498 -40 l 1,45,46
 491 -43 491 -43 483 -43 c 0,47,48
 452 -43 452 -43 432 -28 c 1,49,-1
 426 -23 l 1,50,-1
 420 -28 l 1,51,52
 400 -43 400 -43 369 -43 c 128,-1,53
 338 -43 338 -43 319 -28 c 2,54,-1
 313 -23 l 1,55,-1
 306 -28 l 1,56,57
 287 -43 287 -43 256 -43 c 128,-1,58
 225 -43 225 -43 206 -28 c 1,59,-1
 199 -23 l 1,60,-1
 193 -28 l 2,61,62
 174 -43 174 -43 143 -43 c 128,-1,63
 112 -43 112 -43 92 -28 c 1,64,-1
 86 -23 l 1,65,-1
 80 -28 l 1,66,67
 60 -43 60 -43 29 -43 c 0,68,69
 21 -43 21 -43 12 -42 c 1,70,-1
 9 -62 l 1,71,72
 19 -63 19 -63 29 -63 c 0,73,74
 61 -63 61 -63 86 -48 c 1,75,76
 110 -63 110 -63 142.5 -63 c 128,-1,77
 175 -63 175 -63 199 -48 c 1,78,79
 224 -63 224 -63 256 -63 c 128,-1,80
 288 -63 288 -63 313 -48 c 1,81,82
 337 -63 337 -63 369.5 -63 c 128,-1,83
 402 -63 402 -63 426 -48 c 1,84,85
 451 -63 451 -63 483 -63 c 0,86,87
 495 -63 495 -63 505 -60 c 1,44,-1
374 0 m 1,88,-1
 386 -16 l 1,89,90
 388 -15 388 -15 402 -4.5 c 128,-1,91
 416 6 416 6 420 9 c 128,-1,92
 424 12 424 12 436.5 22.5 c 128,-1,93
 449 33 449 33 454.5 38 c 128,-1,94
 460 43 460 43 470 53 c 128,-1,95
 480 63 480 63 485.5 70.5 c 128,-1,96
 491 78 491 78 497 87.5 c 128,-1,97
 503 97 503 97 507 106 c 1,98,99
 514 118 514 118 508.5 129.5 c 128,-1,100
 503 141 503 141 485 141 c 2,101,-1
 31 141 l 2,102,103
 17 141 17 141 8.5 131.5 c 128,-1,104
 0 122 0 122 0 110 c 0,105,106
 0 79 0 79 28 43.5 c 128,-1,107
 56 8 56 8 84 -5 c 1,108,-1
 93 13 l 1,109,110
 71 24 71 24 45.5 55.5 c 128,-1,111
 20 87 20 87 20 110 c 0,112,113
 20 120 20 120 31 120 c 2,114,-1
 485 120 l 2,115,116
 487 120 487 120 491 120 c 1,117,118
 490 117 490 117 488 114 c 0,119,120
 480 94 480 94 457.5 70.5 c 128,-1,121
 435 47 435 47 421 36 c 128,-1,122
 407 25 407 25 374 0 c 1,88,-1
276 361 m 128,-1,124
 276 380 276 380 284.5 388.5 c 128,-1,125
 293 397 293 397 312.5 397 c 128,-1,126
 332 397 332 397 340 388.5 c 128,-1,127
 348 380 348 380 348 361 c 128,-1,128
 348 342 348 342 340 333.5 c 128,-1,129
 332 325 332 325 312.5 325 c 128,-1,130
 293 325 293 325 284.5 333.5 c 128,-1,123
 276 342 276 342 276 361 c 128,-1,124
256 361 m 128,-1,132
 256 334 256 334 271 319.5 c 128,-1,133
 286 305 286 305 312.5 305 c 128,-1,134
 339 305 339 305 354 319.5 c 128,-1,135
 369 334 369 334 369 361 c 128,-1,136
 369 388 369 388 354 402.5 c 128,-1,137
 339 417 339 417 312.5 417 c 128,-1,138
 286 417 286 417 271 402.5 c 128,-1,131
 256 388 256 388 256 361 c 128,-1,132
239 139 m 1,139,-1
 256 128 l 1,140,-1
 303 203 l 1,141,142
 390 169 390 169 397 165 c 1,143,144
 404 159 404 159 421.5 161 c 128,-1,145
 439 163 439 163 447 179 c 0,146,147
 454 194 454 194 447 207.5 c 128,-1,148
 440 221 440 221 427 227 c 0,149,150
 277 298 277 298 259 307 c 1,151,152
 252 307 252 307 241.5 306.5 c 128,-1,153
 231 306 231 306 210 299 c 128,-1,154
 189 292 189 292 181 280 c 2,155,-1
 93 136 l 1,156,-1
 110 125 l 1,157,-1
 199 269 l 1,158,159
 220 305 220 305 250 288 c 1,160,-1
 250 288 l 1,161,162
 411 212 411 212 418 208 c 0,163,164
 434 201 434 201 428 187 c 0,165,166
 423 176 423 176 405 184 c 0,167,168
 398 187 398 187 303 226 c 1,169,-1
 295 229 l 1,170,-1
 239 139 l 1,139,-1
206 5 m 1,171,-1
 220 -10 l 1,172,-1
 410 166 l 1,173,-1
 396 181 l 1,174,-1
 206 5 l 1,171,-1
EndSplineSet
Validated: 37
EndChar

StartChar: uniF117
Encoding: 61719 61719 26
Width: 512
Flags: W
LayerCount: 2
Fore
SplineSet
443 208 m 1,0,-1
 458 194 l 1,1,2
 488 223 488 223 491 265 c 2,3,-1
 492 278 l 1,4,-1
 479 276 l 2,5,6
 470 274 470 274 461 274 c 0,7,8
 423 274 423 274 396 301 c 128,-1,9
 369 328 369 328 369 366 c 2,10,-1
 369 387 l 1,11,-1
 357 384 l 1,12,13
 328 379 328 379 306 360 c 128,-1,14
 284 341 284 341 274 314 c 1,15,-1
 293 307 l 1,16,17
 308 345 308 345 348 361 c 1,18,19
 351 317 351 317 383 285 c 128,-1,20
 415 253 415 253 461 253 c 0,21,22
 465 253 465 253 469 254 c 1,23,24
 462 226 462 226 443 208 c 1,0,-1
133 376 m 1,25,-1
 113 376 l 1,26,-1
 113 335 l 1,27,-1
 133 335 l 1,28,-1
 133 376 l 1,25,-1
102 366 m 1,29,-1
 102 346 l 1,30,-1
 143 346 l 1,31,-1
 143 366 l 1,32,-1
 102 366 l 1,29,-1
51 253 m 1,33,-1
 31 253 l 1,34,-1
 31 233 l 1,35,-1
 51 233 l 1,36,-1
 51 253 l 1,33,-1
31 253 m 1,37,-1
 31 233 l 1,38,-1
 51 233 l 1,39,-1
 51 253 l 1,40,-1
 31 253 l 1,37,-1
369 192 m 0,41,42
 398 192 398 192 419 171 c 128,-1,43
 440 150 440 150 440 120.5 c 128,-1,44
 440 91 440 91 419 70 c 128,-1,45
 398 49 398 49 369 49 c 2,46,-1
 154 49 l 2,47,48
 132 49 132 49 117 64 c 128,-1,49
 102 79 102 79 102 100 c 128,-1,50
 102 121 102 121 117 136 c 128,-1,51
 132 151 132 151 154 151 c 2,52,-1
 157 151 l 1,53,-1
 169 151 l 1,54,-1
 166 163 l 2,55,56
 164 173 164 173 164 182 c 0,57,58
 164 216 164 216 188 240 c 128,-1,59
 212 264 212 264 246 264 c 0,60,61
 276 264 276 264 299 244 c 128,-1,62
 322 224 322 224 327 194 c 2,63,-1
 329 181 l 1,64,-1
 341 186 l 2,65,66
 354 192 354 192 369 192 c 0,41,42
369 212 m 0,67,68
 358 212 358 212 344 209 c 1,69,70
 334 243 334 243 307.5 263.5 c 128,-1,71
 281 284 281 284 246 284 c 0,72,73
 203 284 203 284 173 254 c 128,-1,74
 143 224 143 224 143 182 c 0,75,76
 143 178 143 178 144 171 c 1,77,78
 116 166 116 166 99 146.5 c 128,-1,79
 82 127 82 127 82 100 c 0,80,81
 82 70 82 70 103 49 c 128,-1,82
 124 28 124 28 154 28 c 2,83,-1
 369 28 l 2,84,85
 407 28 407 28 434 55 c 128,-1,86
 461 82 461 82 461 120 c 128,-1,87
 461 158 461 158 434 185 c 128,-1,88
 407 212 407 212 369 212 c 0,67,68
EndSplineSet
Validated: 5
EndChar

StartChar: uniF118
Encoding: 61720 61720 27
Width: 512
Flags: W
LayerCount: 2
Fore
SplineSet
167 353 m 1,0,-1
 181 338 l 1,1,-1
 256 413 l 1,2,-1
 331 338 l 1,3,-1
 345 353 l 1,4,-1
 256 442 l 1,5,-1
 167 353 l 1,0,-1
246 120 m 1,6,-1
 266 120 l 1,7,-1
 266 424 l 1,8,-1
 246 424 l 1,9,-1
 246 120 l 1,6,-1
174 264 m 1,10,-1
 174 284 l 1,11,-1
 72 284 l 1,12,-1
 72 -64 l 1,13,-1
 440 -64 l 1,14,-1
 440 284 l 1,15,-1
 338 284 l 1,16,-1
 338 264 l 1,17,-1
 420 264 l 1,18,-1
 420 -44 l 1,19,-1
 92 -44 l 1,20,-1
 92 264 l 1,21,-1
 174 264 l 1,10,-1
EndSplineSet
Validated: 5
EndChar

StartChar: uniF119
Encoding: 61721 61721 28
Width: 512
Flags: W
LayerCount: 2
Fore
SplineSet
257 385 m 1,0,-1
 260 364 l 1,1,2
 273 366 273 366 287 366 c 0,3,4
 372 366 372 366 432 306 c 128,-1,5
 492 246 492 246 492 161 c 128,-1,6
 492 76 492 76 432 16 c 128,-1,7
 372 -44 372 -44 287 -44 c 128,-1,8
 202 -44 202 -44 142 16 c 128,-1,9
 82 76 82 76 82 161 c 0,10,11
 82 176 82 176 84 190 c 1,12,-1
 64 193 l 1,13,14
 61 177 61 177 61 161 c 0,15,16
 61 68 61 68 127 2 c 128,-1,17
 193 -64 193 -64 286.5 -64 c 128,-1,18
 380 -64 380 -64 446 2 c 128,-1,19
 512 68 512 68 512 161.5 c 128,-1,20
 512 255 512 255 446 321 c 128,-1,21
 380 387 380 387 287 387 c 0,22,23
 272 387 272 387 257 385 c 1,0,-1
0 212 m 1,24,-1
 236 212 l 1,25,-1
 236 448 l 1,26,-1
 225 448 l 2,27,28
 132 448 132 448 66 382 c 128,-1,29
 0 316 0 316 0 223 c 2,30,-1
 0 212 l 1,24,-1
215 233 m 1,31,-1
 21 233 l 1,32,33
 25 314 25 314 81 368.5 c 128,-1,34
 137 423 137 423 215 427 c 1,35,-1
 215 233 l 1,31,-1
EndSplineSet
Validated: 9
EndChar

StartChar: uniF11A
Encoding: 61722 61722 29
Width: 512
Flags: W
LayerCount: 2
Fore
SplineSet
471 223 m 1,0,-1
 471 161 l 1,1,-1
 440 161 l 1,2,-1
 440 110 l 2,3,4
 440 97 440 97 431 88 c 128,-1,5
 422 79 422 79 410 79 c 2,6,-1
 82 79 l 2,7,8
 69 79 69 79 60 88 c 128,-1,9
 51 97 51 97 51 110 c 2,10,-1
 51 274 l 2,11,12
 51 287 51 287 60 296 c 128,-1,13
 69 305 69 305 82 305 c 2,14,-1
 410 305 l 2,15,16
 422 305 422 305 431 296 c 128,-1,17
 440 287 440 287 440 274 c 2,18,-1
 440 223 l 1,19,-1
 471 223 l 1,0,-1
492 243 m 1,20,-1
 461 243 l 1,21,-1
 461 274 l 2,22,23
 461 295 461 295 446 310 c 128,-1,24
 431 325 431 325 410 325 c 2,25,-1
 82 325 l 2,26,27
 61 325 61 325 46 310 c 128,-1,28
 31 295 31 295 31 274 c 2,29,-1
 31 110 l 2,30,31
 31 89 31 89 46 74 c 128,-1,32
 61 59 61 59 82 59 c 2,33,-1
 410 59 l 2,34,35
 431 59 431 59 446 74 c 128,-1,36
 461 89 461 89 461 110 c 2,37,-1
 461 141 l 1,38,-1
 492 141 l 1,39,-1
 492 243 l 1,20,-1
92 274 m 1,40,-1
 72 274 l 1,41,-1
 72 110 l 1,42,-1
 92 110 l 1,43,-1
 92 274 l 1,40,-1
133 274 m 1,44,-1
 113 274 l 1,45,-1
 113 110 l 1,46,-1
 133 110 l 1,47,-1
 133 274 l 1,44,-1
EndSplineSet
Validated: 9
EndChar

StartChar: uniF11B
Encoding: 61723 61723 30
Width: 512
Flags: W
LayerCount: 2
Fore
SplineSet
307 116 m 1,0,-1
 307 202 l 1,1,-1
 297 202 l 2,2,3
 106 202 106 202 31 84 c 1,4,5
 38 112 38 112 49 136.5 c 128,-1,6
 60 161 60 161 81 189.5 c 128,-1,7
 102 218 102 218 129.5 238 c 128,-1,8
 157 258 157 258 200.5 271 c 128,-1,9
 244 284 244 284 297 284 c 2,10,-1
 307 284 l 1,11,-1
 307 370 l 1,12,-1
 475 243 l 1,13,-1
 307 116 l 1,0,-1
287 75 m 1,14,-1
 508 243 l 1,15,-1
 287 411 l 1,16,-1
 287 305 l 1,17,18
 226 303 226 303 177.5 285 c 128,-1,19
 129 267 129 267 99.5 240 c 128,-1,20
 70 213 70 213 49 180.5 c 128,-1,21
 28 148 28 148 19 115.5 c 128,-1,22
 10 83 10 83 5 56.5 c 128,-1,23
 0 30 0 30 0 14 c 2,24,-1
 0 -3 l 1,25,-1
 20 -3 l 1,26,27
 21 0 21 0 22 6.5 c 128,-1,28
 23 13 23 13 29.5 32 c 128,-1,29
 36 51 36 51 46 68 c 128,-1,30
 56 85 56 85 76.5 106 c 128,-1,31
 97 127 97 127 123.5 142.5 c 128,-1,32
 150 158 150 158 192.5 169 c 128,-1,33
 235 180 235 180 287 182 c 1,34,-1
 287 75 l 1,14,-1
EndSplineSet
Validated: 9
EndChar

StartChar: uniF11C
Encoding: 61724 61724 31
Width: 512
Flags: W
LayerCount: 2
Fore
SplineSet
62 241 m 132,-1,1
 62 178 62 178 106 134 c 132,-1,2
 150 90 150 90 213 90 c 132,-1,3
 276 90 276 90 320 134 c 132,-1,4
 364 178 364 178 364 241 c 132,-1,5
 364 304 364 304 320 348 c 132,-1,6
 276 392 276 392 213 392 c 132,-1,7
 150 392 150 392 106 348 c 132,-1,0
 62 304 62 304 62 241 c 132,-1,1
41 241 m 128,-1,9
 41 312 41 312 91.5 362.5 c 128,-1,10
 142 413 142 413 213 413 c 128,-1,11
 284 413 284 413 334.5 362.5 c 128,-1,12
 385 312 385 312 385 241 c 128,-1,13
 385 170 385 170 334.5 119.5 c 128,-1,14
 284 69 284 69 213 69 c 128,-1,15
 142 69 142 69 91.5 119.5 c 128,-1,8
 41 170 41 170 41 241 c 128,-1,9
345 132 m 1,16,-1
 316 103 l 1,17,-1
 451 -32 l 1,18,-1
 480 -3 l 1,19,-1
 345 132 l 1,16,-1
133 253 m 1,20,-1
 133 233 l 1,21,-1
 297 233 l 1,22,-1
 297 253 l 1,23,-1
 133 253 l 1,20,-1
EndSplineSet
Validated: 5
EndChar

StartChar: uniF11D
Encoding: 61725 61725 32
Width: 512
Flags: W
LayerCount: 2
Fore
SplineSet
246 346 m 1,0,-1
 266 346 l 1,1,-1
 266 427 l 1,2,3
 362 422 362 422 427 354.5 c 128,-1,4
 492 287 492 287 492 192 c 0,5,6
 492 94 492 94 423 25 c 128,-1,7
 354 -44 354 -44 256 -44 c 128,-1,8
 158 -44 158 -44 89 25 c 128,-1,9
 20 94 20 94 20 192 c 128,-1,10
 20 290 20 290 89 358 c 1,11,-1
 75 373 l 1,12,13
 0 298 0 298 0 192 c 128,-1,14
 0 86 0 86 75 11 c 128,-1,15
 150 -64 150 -64 256 -64 c 128,-1,16
 362 -64 362 -64 437 11 c 128,-1,17
 512 86 512 86 512 192 c 128,-1,18
 512 298 512 298 437 373 c 128,-1,19
 362 448 362 448 256 448 c 2,20,-1
 246 448 l 1,21,-1
 246 346 l 1,0,-1
278 170 m 128,-1,23
 269 161 269 161 256 161 c 128,-1,24
 243 161 243 161 234 170 c 0,25,26
 229 176 229 176 202.5 213.5 c 128,-1,27
 176 251 176 251 152 286 c 2,28,-1
 128 320 l 1,29,30
 266 226 266 226 278 214 c 0,31,32
 287 205 287 205 287 192 c 128,-1,22
 287 179 287 179 278 170 c 128,-1,23
EndSplineSet
Validated: 9
EndChar

StartChar: uniF11E
Encoding: 61726 61726 33
Width: 512
Flags: W
LayerCount: 2
Fore
SplineSet
389 253.5 m 128,-1,1
 389 264 389 264 399.5 264 c 128,-1,2
 410 264 410 264 410 253.5 c 128,-1,3
 410 243 410 243 399.5 243 c 128,-1,0
 389 243 389 243 389 253.5 c 128,-1,1
328 253.5 m 128,-1,5
 328 264 328 264 338 264 c 128,-1,6
 348 264 348 264 348 253.5 c 128,-1,7
 348 243 348 243 338 243 c 128,-1,4
 328 243 328 243 328 253.5 c 128,-1,5
297 284 m 128,-1,9
 297 294 297 294 307 294 c 128,-1,10
 317 294 317 294 317 284 c 128,-1,11
 317 274 317 274 307 274 c 128,-1,8
 297 274 297 274 297 284 c 128,-1,9
266 253.5 m 128,-1,13
 266 264 266 264 276.5 264 c 128,-1,14
 287 264 287 264 287 253.5 c 128,-1,15
 287 243 287 243 276.5 243 c 128,-1,12
 266 243 266 243 266 253.5 c 128,-1,13
205 253.5 m 128,-1,17
 205 264 205 264 215 264 c 128,-1,18
 225 264 225 264 225 253.5 c 128,-1,19
 225 243 225 243 215 243 c 128,-1,16
 205 243 205 243 205 253.5 c 128,-1,17
389 315 m 128,-1,21
 389 325 389 325 399.5 325 c 128,-1,22
 410 325 410 325 410 315 c 128,-1,23
 410 305 410 305 399.5 305 c 128,-1,20
 389 305 389 305 389 315 c 128,-1,21
328 315 m 128,-1,25
 328 325 328 325 338 325 c 128,-1,26
 348 325 348 325 348 315 c 128,-1,27
 348 305 348 305 338 305 c 128,-1,24
 328 305 328 305 328 315 c 128,-1,25
358 284 m 128,-1,29
 358 294 358 294 368.5 294 c 128,-1,30
 379 294 379 294 379 284 c 128,-1,31
 379 274 379 274 368.5 274 c 128,-1,28
 358 274 358 274 358 284 c 128,-1,29
17 202 m 1,32,-1
 451 413 l 1,33,-1
 451 202 l 1,34,-1
 17 202 l 1,32,-1
106 161 m 1,35,-1
 430 161 l 1,36,-1
 430 4 l 1,37,-1
 106 161 l 1,35,-1
451 182 m 1,38,-1
 17 182 l 1,39,-1
 451 -29 l 1,40,-1
 451 182 l 1,38,-1
236.118 286.051 m 2,41,-1
 163.834 251.024 l 1,42,43
 162.679 243 162.679 243 153.5 243 c 0,44,45
 150.766 243 150.766 243 148.743 243.712 c 1,46,-1
 120.641 230.095 l 1,47,48
 122.88 227.61 122.88 227.61 122.994 223 c 1,49,-1
 174.006 223 l 1,50,51
 174.253 233 174.253 233 184.5 233 c 128,-1,52
 194.747 233 194.747 233 194.994 223 c 1,53,-1
 236.006 223 l 1,54,55
 236.241 233 236.241 233 246 233 c 128,-1,56
 255.759 233 255.759 233 255.994 223 c 1,57,-1
 297.006 223 l 1,58,59
 297.241 233 297.241 233 307 233 c 128,-1,60
 316.759 233 316.759 233 316.994 223 c 1,61,-1
 358.006 223 l 1,62,63
 358.253 233 358.253 233 368.5 233 c 128,-1,64
 378.747 233 378.747 233 378.994 223 c 1,65,-1
 420.006 223 l 1,66,67
 420.241 233 420.241 233 430 233 c 1,68,-1
 430 274 l 1,69,70
 420 274 420 274 420 284 c 128,-1,71
 420 294 420 294 430 294 c 1,72,-1
 430 335 l 1,73,74
 420 335 420 335 420 345.5 c 128,-1,75
 420 356 420 356 430 356 c 1,76,-1
 430 380 l 1,77,-1
 375.919 353.794 l 1,78,79
 379 351.187 379 351.187 379 345.5 c 0,80,81
 379 335 379 335 368.5 335 c 128,-1,82
 358.195 335 358.195 335 358.004 345.113 c 1,83,-1
 286.238 310.337 l 1,84,85
 284.171 305 284.171 305 276.5 305 c 0,86,87
 275.879 305 275.879 305 275.295 305.035 c 2,88,-1
 250.865 293.197 l 1,89,90
 256 291.166 256 291.166 256 284 c 0,91,92
 256 274 256 274 246 274 c 128,-1,93
 236 274 236 274 236 284 c 0,94,95
 236 285.084 236 285.084 236.118 286.051 c 2,41,-1
EndSplineSet
Validated: 524297
EndChar

StartChar: uniF11F
Encoding: 61727 61727 34
Width: 512
Flags: W
LayerCount: 2
Fore
SplineSet
133 315 m 0,0,1
 184 366 184 366 249 391.5 c 128,-1,2
 314 417 314 417 373 417 c 0,3,4
 434 417 434 417 457 393 c 0,5,6
 473 377 473 377 478 340.5 c 128,-1,7
 483 304 483 304 476.5 258.5 c 128,-1,8
 470 213 470 213 444.5 161 c 128,-1,9
 419 109 419 109 379 69 c 0,10,11
 328 18 328 18 263 -7.5 c 128,-1,12
 198 -33 198 -33 139 -33 c 0,13,14
 79 -33 79 -33 55 -9 c 0,15,16
 39 7 39 7 34 43.5 c 128,-1,17
 29 80 29 80 35.5 125.5 c 128,-1,18
 42 171 42 171 67.5 223 c 128,-1,19
 93 275 93 275 133 315 c 0,0,1
119 329 m 0,20,21
 63 274 63 274 34.5 199.5 c 128,-1,22
 6 125 6 125 9 64.5 c 128,-1,23
 12 4 12 4 40 -24 c 0,24,25
 70 -54 70 -54 139 -54 c 0,26,27
 202 -54 202 -54 271 -26.5 c 128,-1,28
 340 1 340 1 394 55 c 0,29,30
 449 110 449 110 477.5 184.5 c 128,-1,31
 506 259 506 259 503 319.5 c 128,-1,32
 500 380 500 380 472 408 c 0,33,34
 442 438 442 438 373 438 c 0,35,36
 310 438 310 438 241.5 410.5 c 128,-1,37
 173 383 173 383 119 329 c 0,20,21
468 390 m 1,38,-1
 454 404 l 1,39,-1
 361 312 l 1,40,-1
 376 297 l 1,41,-1
 468 390 l 1,38,-1
151 72 m 1,42,-1
 136 87 l 1,43,-1
 44 -6 l 1,44,-1
 58 -20 l 1,45,-1
 151 72 l 1,42,-1
345 267 m 1,46,-1
 331 281 l 1,47,-1
 167 117 l 1,48,-1
 181 103 l 1,49,-1
 345 267 l 1,46,-1
346 190 m 1,50,-1
 361 204 l 1,51,-1
 268 297 l 1,52,-1
 254 282 l 1,53,-1
 346 190 l 1,50,-1
295 139 m 1,54,-1
 309 153 l 1,55,-1
 217 245 l 1,56,-1
 203 231 l 1,57,-1
 295 139 l 1,54,-1
244 87 m 1,58,-1
 258 102 l 1,59,-1
 166 194 l 1,60,-1
 151 180 l 1,61,-1
 244 87 l 1,58,-1
EndSplineSet
Validated: 37
EndChar

StartChar: uniF120
Encoding: 61728 61728 35
Width: 512
Flags: W
LayerCount: 2
Fore
SplineSet
230.042 217.958 m 1,0,-1
 385.085 321.075 l 1,1,-1
 281.969 166.042 l 1,2,3
 278.492 169.518 278.492 169.518 275.015 172.995 c 1,4,-1
 161.486 97.4854 l 1,5,-1
 236.995 211.005 l 1,6,7
 233.518 214.481 233.518 214.481 230.042 217.958 c 1,0,-1
223.085 224.915 m 1,8,-1
 92.3135 28.3154 l 1,9,-1
 288.926 159.085 l 1,10,-1
 419.658 355.66 l 1,11,-1
 223.085 224.915 l 1,8,-1
0 192 m 128,-1,13
 0 298 0 298 75 373 c 128,-1,14
 150 448 150 448 256 448 c 128,-1,15
 362 448 362 448 437 373 c 128,-1,16
 512 298 512 298 512 192 c 128,-1,17
 512 86 512 86 437 11 c 128,-1,18
 362 -64 362 -64 256 -64 c 128,-1,19
 150 -64 150 -64 75 11 c 128,-1,12
 0 86 0 86 0 192 c 128,-1,13
275.015 172.995 m 1,20,21
 256.005 192 256.005 192 236.995 211.005 c 1,22,-1
 350.502 286.5 l 1,23,-1
 275.015 172.995 l 1,20,21
21.2356 202.24 m 1,24,-1
 30.7197 202.24 l 1,25,-1
 30.7197 181.76 l 1,26,-1
 21.1587 181.76 l 1,27,28
 24.3094 90.6906 24.3094 90.6906 90 25 c 0,29,30
 155.33 -40.3297 155.33 -40.3297 245.76 -43.8048 c 1,31,-1
 245.76 -33.2803 l 1,32,-1
 266.24 -33.2803 l 1,33,-1
 266.24 -43.8048 l 1,34,35
 356.67 -40.3297 356.67 -40.3297 422 25 c 0,36,37
 487.691 90.6906 487.691 90.6906 490.841 181.76 c 1,38,-1
 481.28 181.76 l 1,39,-1
 481.28 202.24 l 1,40,-1
 490.764 202.24 l 1,41,42
 486.968 292.032 486.968 292.032 422 357 c 0,43,44
 356.67 422.33 356.67 422.33 266.24 425.805 c 1,45,-1
 266.24 417.28 l 1,46,-1
 245.76 417.28 l 1,47,-1
 245.76 425.805 l 1,48,49
 155.33 422.33 155.33 422.33 90 357 c 0,50,51
 25.0318 292.032 25.0318 292.032 21.2356 202.24 c 1,24,-1
EndSplineSet
Validated: 5
EndChar

StartChar: uniF121
Encoding: 61729 61729 36
Width: 512
Flags: W
LayerCount: 2
Fore
SplineSet
20 69 m 1,0,-1
 20 356 l 1,1,-1
 492 356 l 1,2,-1
 492 69 l 1,3,-1
 20 69 l 1,0,-1
0 49 m 1,4,-1
 512 49 l 1,5,-1
 512 376 l 1,6,-1
 0 376 l 1,7,-1
 0 49 l 1,4,-1
399 8 m 1,8,-1
 399 28 l 1,9,-1
 113 28 l 1,10,-1
 113 8 l 1,11,-1
 399 8 l 1,8,-1
EndSplineSet
Validated: 9
EndChar

StartChar: uniF122
Encoding: 61730 61730 37
Width: 512
Flags: W
LayerCount: 2
Fore
SplineSet
22 192 m 128,-1,1
 22 95 22 95 90.5 26.5 c 128,-1,2
 159 -42 159 -42 256 -42 c 128,-1,3
 353 -42 353 -42 421.5 26.5 c 128,-1,4
 490 95 490 95 490 192 c 128,-1,5
 490 289 490 289 421.5 357.5 c 128,-1,6
 353 426 353 426 256 426 c 128,-1,7
 159 426 159 426 90.5 357.5 c 128,-1,0
 22 289 22 289 22 192 c 128,-1,1
2 192 m 128,-1,9
 2 297 2 297 76.5 371.5 c 128,-1,10
 151 446 151 446 256 446 c 128,-1,11
 361 446 361 446 435.5 371.5 c 128,-1,12
 510 297 510 297 510 192 c 128,-1,13
 510 87 510 87 435.5 12.5 c 128,-1,14
 361 -62 361 -62 256 -62 c 128,-1,15
 151 -62 151 -62 76.5 12.5 c 128,-1,8
 2 87 2 87 2 192 c 128,-1,9
243 282 m 2,16,17
 240 282 240 282 240 285 c 2,18,-1
 240 312 l 2,19,20
 240 316 240 316 243 316 c 2,21,-1
 268 316 l 2,22,23
 272 316 272 316 272 312 c 2,24,-1
 272 285 l 2,25,26
 272 282 272 282 268 282 c 2,27,-1
 243 282 l 2,16,17
244 66 m 2,28,29
 241 66 241 66 241 70 c 2,30,-1
 241 238 l 2,31,32
 241 242 241 242 244 242 c 2,33,-1
 268 242 l 2,34,35
 271 242 271 242 271 238 c 2,36,-1
 271 70 l 2,37,38
 271 66 271 66 268 66 c 2,39,-1
 244 66 l 2,28,29
EndSplineSet
Validated: 1
EndChar

StartChar: uniF123
Encoding: 61731 61731 38
Width: 512
Flags: W
LayerCount: 2
Fore
SplineSet
471 223 m 1,0,-1
 471 161 l 1,1,-1
 440 161 l 1,2,-1
 440 110 l 2,3,4
 440 97 440 97 431 88 c 128,-1,5
 422 79 422 79 410 79 c 2,6,-1
 82 79 l 2,7,8
 69 79 69 79 60 88 c 128,-1,9
 51 97 51 97 51 110 c 2,10,-1
 51 274 l 2,11,12
 51 287 51 287 60 296 c 128,-1,13
 69 305 69 305 82 305 c 2,14,-1
 410 305 l 2,15,16
 422 305 422 305 431 296 c 128,-1,17
 440 287 440 287 440 274 c 2,18,-1
 440 223 l 1,19,-1
 471 223 l 1,0,-1
492 243 m 1,20,-1
 461 243 l 1,21,-1
 461 274 l 2,22,23
 461 295 461 295 446 310 c 128,-1,24
 431 325 431 325 410 325 c 2,25,-1
 82 325 l 2,26,27
 61 325 61 325 46 310 c 128,-1,28
 31 295 31 295 31 274 c 2,29,-1
 31 110 l 2,30,31
 31 89 31 89 46 74 c 128,-1,32
 61 59 61 59 82 59 c 2,33,-1
 410 59 l 2,34,35
 431 59 431 59 446 74 c 128,-1,36
 461 89 461 89 461 110 c 2,37,-1
 461 141 l 1,38,-1
 492 141 l 1,39,-1
 492 243 l 1,20,-1
92 274 m 1,40,-1
 72 274 l 1,41,-1
 72 110 l 1,42,-1
 92 110 l 1,43,-1
 92 274 l 1,40,-1
133 274 m 1,44,-1
 113 274 l 1,45,-1
 113 110 l 1,46,-1
 133 110 l 1,47,-1
 133 274 l 1,44,-1
174 274 m 1,48,-1
 154 274 l 1,49,-1
 154 110 l 1,50,-1
 174 110 l 1,51,-1
 174 274 l 1,48,-1
215 274 m 1,52,-1
 195 274 l 1,53,-1
 195 110 l 1,54,-1
 215 110 l 1,55,-1
 215 274 l 1,52,-1
256 274 m 1,56,-1
 236 274 l 1,57,-1
 236 110 l 1,58,-1
 256 110 l 1,59,-1
 256 274 l 1,56,-1
297 274 m 1,60,-1
 276 274 l 1,61,-1
 276 110 l 1,62,-1
 297 110 l 1,63,-1
 297 274 l 1,60,-1
338 274 m 1,64,-1
 317 274 l 1,65,-1
 317 110 l 1,66,-1
 338 110 l 1,67,-1
 338 274 l 1,64,-1
379 274 m 1,68,-1
 358 274 l 1,69,-1
 358 110 l 1,70,-1
 379 110 l 1,71,-1
 379 274 l 1,68,-1
420 274 m 1,72,-1
 399 274 l 1,73,-1
 399 110 l 1,74,-1
 420 110 l 1,75,-1
 420 274 l 1,72,-1
EndSplineSet
Validated: 9
EndChar

StartChar: uniF124
Encoding: 61732 61732 39
Width: 512
Flags: W
LayerCount: 2
Fore
SplineSet
308 69 m 128,-1,1
 308 50 308 50 318.5 39.5 c 128,-1,2
 329 29 329 29 348 29 c 128,-1,3
 367 29 367 29 378 39.5 c 128,-1,4
 389 50 389 50 389 69 c 128,-1,5
 389 88 389 88 378 99 c 128,-1,6
 367 110 367 110 348 110 c 128,-1,7
 329 110 329 110 318.5 99 c 128,-1,0
 308 88 308 88 308 69 c 128,-1,1
327 69 m 128,-1,9
 327 81 327 81 331.5 85.5 c 128,-1,10
 336 90 336 90 348 90 c 128,-1,11
 360 90 360 90 364.5 85.5 c 128,-1,12
 369 81 369 81 369 69 c 128,-1,13
 369 57 369 57 364.5 52.5 c 128,-1,14
 360 48 360 48 348 48 c 128,-1,15
 336 48 336 48 331.5 52.5 c 128,-1,8
 327 57 327 57 327 69 c 128,-1,9
123 69 m 128,-1,17
 123 50 123 50 134 39.5 c 128,-1,18
 145 29 145 29 164 29 c 128,-1,19
 183 29 183 29 193.5 39.5 c 128,-1,20
 204 50 204 50 204 69 c 128,-1,21
 204 88 204 88 193.5 99 c 128,-1,22
 183 110 183 110 164 110 c 128,-1,23
 145 110 145 110 134 99 c 128,-1,16
 123 88 123 88 123 69 c 128,-1,17
143 69 m 128,-1,25
 143 81 143 81 147.5 85.5 c 128,-1,26
 152 90 152 90 164 90 c 128,-1,27
 176 90 176 90 180.5 85.5 c 128,-1,28
 185 81 185 81 185 69 c 128,-1,29
 185 57 185 57 180.5 52.5 c 128,-1,30
 176 48 176 48 164 48 c 128,-1,31
 152 48 152 48 147.5 52.5 c 128,-1,24
 143 57 143 57 143 69 c 128,-1,25
348 407 m 1,32,-1
 369 407 l 1,33,34
 369 448 369 448 256 448 c 128,-1,35
 143 448 143 448 143 407 c 1,36,-1
 164 407 l 1,37,38
 164 411 164 411 172 415.5 c 128,-1,39
 180 420 180 420 202.5 424 c 0,40,41
 204.241 424.31 204.241 424.31 206.033 424.595 c 1,42,-1
 214.204 373.936 l 1,43,44
 166.484 368.962 166.484 368.962 131.5 352 c 0,45,46
 82 328 82 328 82 294 c 2,47,-1
 82 56 l 2,48,49
 82 27 82 27 103 7 c 0,50,51
 116.569 -5.92273 116.569 -5.92273 133.895 -10.4956 c 1,52,-1
 92 -46 l 1,53,-1
 105 -62 l 1,54,-1
 162.82 -13 l 1,55,-1
 349.18 -13 l 1,56,-1
 407 -62 l 1,57,-1
 420 -46 l 1,58,-1
 378.105 -10.4956 l 1,59,60
 395.431 -5.92273 395.431 -5.92273 409 7 c 0,61,62
 430 27 430 27 430 56 c 2,63,-1
 430 294 l 2,64,65
 430 328 430 328 380.5 352 c 0,66,67
 345.516 368.962 345.516 368.962 297.796 373.936 c 1,68,-1
 305.967 424.595 l 1,69,70
 307.759 424.31 307.759 424.31 309.5 424 c 0,71,72
 332 420 332 420 340 415.5 c 128,-1,73
 348 411 348 411 348 407 c 1,32,-1
143 255 m 2,74,75
 143 264 143 264 154 264 c 2,76,-1
 195 264 l 1,77,-1
 317 264 l 1,78,-1
 358 264 l 2,79,80
 369 264 369 264 369 255 c 2,81,-1
 369 170 l 2,82,83
 369 161 369 161 358 161 c 2,84,-1
 154 161 l 2,85,86
 143 161 143 161 143 170 c 2,87,-1
 143 255 l 2,74,75
123 255 m 2,88,-1
 123 170 l 2,89,90
 123 157 123 157 132 149 c 128,-1,91
 141 141 141 141 154 141 c 2,92,-1
 358 141 l 2,93,94
 371 141 371 141 380 149 c 128,-1,95
 389 157 389 157 389 170 c 2,96,-1
 389 255 l 2,97,98
 389 267 389 267 380 275.5 c 128,-1,99
 371 284 371 284 358 284 c 2,100,-1
 338 284 l 1,101,-1
 338 305 l 2,102,103
 338 313 338 313 332 319 c 128,-1,104
 326 325 326 325 317 325 c 2,105,-1
 195 325 l 2,106,107
 186 325 186 325 180 319 c 128,-1,108
 174 313 174 313 174 305 c 2,109,-1
 174 284 l 1,110,-1
 154 284 l 2,111,112
 141 284 141 284 132 275.5 c 128,-1,113
 123 267 123 267 123 255 c 2,88,-1
102 294 m 2,114,115
 102 306 102 306 118 319.5 c 128,-1,116
 134 333 134 333 171 344.5 c 128,-1,117
 208 356 208 356 256 356 c 128,-1,118
 304 356 304 356 341 344.5 c 128,-1,119
 378 333 378 333 394 319.5 c 128,-1,120
 410 306 410 306 410 294 c 2,121,-1
 410 56 l 2,122,123
 410 36 410 36 395 22 c 128,-1,124
 380 8 380 8 358 8 c 2,125,-1
 154 8 l 2,126,127
 132 8 132 8 117 22 c 128,-1,128
 102 36 102 36 102 56 c 2,129,-1
 102 294 l 2,114,115
285.84 426.926 m 1,130,-1
 277.408 375.486 l 1,131,132
 266.977 376 266.977 376 256 376 c 128,-1,133
 245.023 376 245.023 376 234.592 375.486 c 1,134,-1
 226.16 426.926 l 1,135,136
 239.939 428 239.939 428 256 428 c 128,-1,137
 272.061 428 272.061 428 285.84 426.926 c 1,130,-1
194 284 m 1,138,-1
 194 305 l 1,139,-1
 195 305 l 1,140,-1
 317 305 l 1,141,-1
 318 305 l 1,142,-1
 318 284 l 1,143,-1
 317 284 l 1,144,-1
 195 284 l 1,145,-1
 194 284 l 1,138,-1
EndSplineSet
Validated: 9
EndChar

StartChar: uniF125
Encoding: 61733 61733 40
Width: 512
Flags: W
LayerCount: 2
Fore
SplineSet
389.12 335.36 m 128,-1,1
 409.6 335.36 409.6 335.36 409.6 304.64 c 2,2,-1
 409.6 99.8398 l 2,3,4
 409.6 88.4556 409.6 88.4556 408.027 76.2843 c 128,-1,5
 406.454 64.1131 406.454 64.1131 399.298 45.1429 c 128,-1,6
 392.141 26.1727 392.141 26.1727 380.184 12.0517 c 128,-1,7
 368.228 -2.0693 368.228 -2.0693 344.574 -12.5547 c 128,-1,8
 320.92 -23.04 320.92 -23.04 289.24 -23.04 c 0,9,10
 236.863 -23.04 236.863 -23.04 211.88 -9.21918 c 128,-1,11
 186.897 4.60168 186.897 4.60168 164.388 35.083 c 0,12,13
 153.233 50.1976 153.233 50.1976 135.364 81.1961 c 128,-1,14
 117.496 112.195 117.496 112.195 105.205 135.636 c 2,15,-1
 92.9141 159.077 l 1,16,-1
 92.6914 159.511 l 1,17,-1
 92.4277 159.922 l 2,18,19
 86.9136 168.52 86.9136 168.52 88.6802 177.903 c 0,20,21
 90.3833 186.95 90.3833 186.95 97.6738 191.57 c 0,22,23
 104.624 196.193 104.624 196.193 114.297 193.668 c 128,-1,24
 123.97 191.144 123.97 191.144 129.6 182.467 c 2,25,-1
 184.32 110.395 l 1,26,-1
 184.32 356.63 l 2,27,28
 184.32 365.767 184.32 365.767 190.468 371.044 c 128,-1,29
 196.616 376.32 196.616 376.32 204.8 376.32 c 128,-1,30
 213.008 376.32 213.008 376.32 219.144 370.962 c 128,-1,31
 225.28 365.603 225.28 365.603 225.28 355.84 c 2,32,-1
 225.28 222.72 l 1,33,34
 228.097 214 228.097 214 235.382 214 c 128,-1,35
 242.667 214 242.667 214 245.76 222.72 c 1,36,-1
 245.76 355.84 l 1,37,-1
 245.76 386.56 l 2,38,39
 245.76 394.57 245.76 394.57 251.275 400.805 c 0,40,41
 257.111 407.401 257.111 407.401 266.24 407.04 c 0,42,43
 285.797 406.345 285.797 406.345 286.666 390.004 c 0,44,45
 286.883 385.993 286.883 385.993 286.721 366.08 c 2,46,-1
 286.666 301.001 l 2,47,48
 286.815 300.592 286.815 300.592 286.721 222.72 c 0,49,50
 286.722 211.943 286.722 211.943 297.929 211.945 c 0,51,52
 307.2 211.948 307.2 211.948 307.2 222.72 c 2,53,-1
 307.2 355.074 l 2,54,55
 307.48 360.747 307.48 360.747 307.48 365.669 c 1,56,-1
 307.2 365.669 l 1,57,-1
 307.2 366.08 l 2,58,59
 307.2 386.56 307.2 386.56 327.68 386.56 c 0,60,61
 338.622 386.56 338.622 386.56 343.391 380.308 c 128,-1,62
 348.159 374.057 348.159 374.057 348.158 355.84 c 2,63,-1
 348.001 213.333 l 1,64,65
 349.297 203.815 349.297 203.815 358.667 204 c 128,-1,66
 367.969 204.223 367.969 204.223 368.64 212.48 c 2,67,-1
 368.64 304.64 l 2,68,0
 368.64 335.36 368.64 335.36 389.12 335.36 c 128,-1,1
225.871 391.212 m 1,69,70
 214.12 396.8 214.12 396.8 204.8 396.8 c 0,71,72
 189.276 396.8 189.276 396.8 176.558 385.983 c 128,-1,73
 163.84 375.166 163.84 375.166 163.84 356.63 c 2,74,-1
 163.84 171.205 l 1,75,-1
 146.573 193.932 l 1,76,77
 136.653 209.223 136.653 209.223 119.39 213.703 c 128,-1,78
 102.126 218.184 102.126 218.184 86.8066 208.93 c 0,79,80
 71.8028 199.419 71.8028 199.419 69.007 181.317 c 128,-1,81
 66.2111 163.214 66.2111 163.214 73.7607 151.354 c 1,82,83
 121.317 58.9534 121.317 58.9534 147.913 22.917 c 0,84,85
 172.173 -9.9348 172.173 -9.9348 202.531 -26.7272 c 128,-1,86
 232.889 -43.5195 232.889 -43.5195 289.24 -43.5195 c 0,87,88
 325.96 -43.5195 325.96 -43.5195 353.569 -31.0059 c 128,-1,89
 381.177 -18.4922 381.177 -18.4922 395.196 -1.61693 c 128,-1,90
 409.214 15.2584 409.214 15.2584 417.708 37.3954 c 128,-1,91
 426.201 59.5325 426.201 59.5325 428.141 73.6317 c 128,-1,92
 430.08 87.7308 430.08 87.7308 430.08 99.8398 c 2,93,-1
 430.08 304.64 l 2,94,95
 430.08 355.84 430.08 355.84 389.12 355.84 c 0,96,97
 377.492 355.84 377.492 355.84 368.64 350.978 c 1,98,-1
 368.64 355.84 l 2,99,100
 368.64 379.577 368.64 379.577 358.165 393.309 c 128,-1,101
 347.69 407.04 347.69 407.04 327.68 407.04 c 0,102,103
 323.796 407.168 323.796 407.168 308.625 403.375 c 0,104,105
 308.275 403.177 308.275 403.177 308 403 c 2,106,-1
 304.204 401.918 l 1,107,108
 293.997 427.52 293.997 427.52 266.24 427.52 c 0,109,110
 250.106 427.52 250.106 427.52 239.391 417.677 c 128,-1,111
 228.676 407.834 228.676 407.834 226.037 394.331 c 1,112,-1
 225.871 391.212 l 1,69,70
EndSplineSet
Validated: 524329
EndChar

StartChar: uniF126
Encoding: 61734 61734 41
Width: 512
Flags: W
LayerCount: 2
Fore
SplineSet
62 73 m 1,0,1
 67 22 67 22 73 -5 c 0,2,3
 75 -16 75 -16 83 -24.5 c 128,-1,4
 91 -33 91 -33 104 -33 c 2,5,-1
 432 -33 l 2,6,7
 450 -33 450 -33 460.5 -22.5 c 128,-1,8
 471 -12 471 -12 471 5 c 2,9,-1
 471 270 l 2,10,11
 471 296 471 296 443 305 c 1,12,-1
 441 305 l 1,13,-1
 439 305 l 1,14,15
 361 297 361 297 334 294 c 0,16,17
 310 292 310 292 327 320 c 0,18,19
 345 348 345 348 345 366 c 0,20,21
 345 396 345 396 323.5 417 c 128,-1,22
 302 438 302 438 272 438 c 128,-1,23
 242 438 242 438 220.5 417 c 128,-1,24
 199 396 199 396 199 366 c 0,25,26
 199 344 199 344 216 320 c 1,27,28
 227 302 227 302 224.5 297.5 c 128,-1,29
 222 293 222 293 210 294 c 2,30,-1
 105 305 l 1,31,32
 75 288 75 288 73 271 c 1,33,34
 68 251 68 251 62 165 c 1,35,-1
 61 160 l 1,36,-1
 62 157 l 1,37,38
 69 121 69 121 121 158 c 0,39,40
 140 172 140 172 157 172 c 0,41,42
 179 172 179 172 194.5 156.5 c 128,-1,43
 210 141 210 141 210 120 c 128,-1,44
 210 99 210 99 194.5 84 c 128,-1,45
 179 69 179 69 157 69 c 0,46,47
 139 69 139 69 120 84 c 0,48,49
 75 119 75 119 63 90 c 0,50,51
 60 82 60 82 62 73 c 1,0,1
451 270 m 2,52,-1
 451 5 l 2,53,54
 451 -13 451 -13 432 -13 c 2,55,-1
 104 -13 l 2,56,57
 96 -13 96 -13 93 0 c 0,58,59
 87 26 87 26 82 76 c 1,60,-1
 82 76 l 1,61,-1
 82 82 l 1,62,63
 90 82 90 82 107 68 c 0,64,65
 132 49 132 49 157 49 c 0,66,67
 187 49 187 49 208.5 70 c 128,-1,68
 230 91 230 91 230 120.5 c 128,-1,69
 230 150 230 150 208.5 171 c 128,-1,70
 187 192 187 192 157 192 c 0,71,72
 134 192 134 192 109 174 c 0,73,74
 94 164 94 164 82 164 c 1,75,76
 85 203 85 203 88 229.5 c 128,-1,77
 91 256 91 256 92 262 c 2,78,-1
 93 268 l 1,79,-1
 93 269 l 1,80,81
 94 280 94 280 96 283 c 128,-1,82
 98 286 98 286 102 285 c 1,83,-1
 103 285 l 1,84,85
 189 275 189 275 208 274 c 0,86,87
 233 272 233 272 241.5 289.5 c 128,-1,88
 250 307 250 307 233 331 c 0,89,90
 219 351 219 351 219 366 c 0,91,92
 219 387 219 387 234.5 402 c 128,-1,93
 250 417 250 417 272 417 c 128,-1,94
 294 417 294 417 309.5 402 c 128,-1,95
 325 387 325 387 325 366 c 0,96,97
 325 357 325 357 322.5 352 c 128,-1,98
 320 347 320 347 310 331 c 0,99,100
 295 307 295 307 303.5 289 c 128,-1,101
 312 271 312 271 336 274 c 0,102,103
 362 277 362 277 439 285 c 1,104,105
 451 280 451 280 451 270 c 2,52,-1
EndSplineSet
Validated: 37
EndChar

StartChar: uniF127
Encoding: 61735 61735 42
Width: 512
Flags: W
LayerCount: 2
Fore
SplineSet
215 192 m 128,-1,1
 215 173 215 173 226 162 c 128,-1,2
 237 151 237 151 256 151 c 128,-1,3
 275 151 275 151 286 162 c 128,-1,4
 297 173 297 173 297 192 c 128,-1,5
 297 211 297 211 286 222 c 128,-1,6
 275 233 275 233 256 233 c 128,-1,7
 237 233 237 233 226 222 c 128,-1,0
 215 211 215 211 215 192 c 128,-1,1
236 192 m 128,-1,9
 236 204 236 204 240 208 c 128,-1,10
 244 212 244 212 256 212 c 128,-1,11
 268 212 268 212 272 208 c 128,-1,12
 276 204 276 204 276 192 c 128,-1,13
 276 180 276 180 272 176 c 128,-1,14
 268 172 268 172 256 172 c 128,-1,15
 244 172 244 172 240 176 c 128,-1,8
 236 180 236 180 236 192 c 128,-1,9
327 172 m 1,16,-1
 412.199 114.254 l 1,17,18
 406.285 102.559 406.285 102.559 398.407 91.6718 c 1,19,-1
 309 140 l 1,20,-1
 303 136 l 1,21,22
 293 127 293 127 281 123 c 1,23,-1
 275 120 l 1,24,25
 272.134 69.2225 272.134 69.2225 269.267 18.4449 c 1,26,27
 262.725 18 262.725 18 256 18 c 0,28,29
 249.79 18 249.79 18 243.737 18.3794 c 1,30,-1
 238 120 l 1,31,-1
 232 122 l 2,32,33
 219 127 219 127 208 136 c 1,34,-1
 203 141 l 1,35,-1
 112.821 92.7465 l 1,36,37
 105.153 103.515 105.153 103.515 99.3929 115.068 c 1,38,-1
 184 172 l 1,39,-1
 183 179 l 2,40,41
 182 187 182 187 182 192 c 128,-1,42
 182 197 182 197 183 205 c 2,43,-1
 184 212 l 1,44,-1
 99.2954 268.736 l 1,45,46
 105.099 280.416 105.099 280.416 112.85 291.294 c 1,47,-1
 203 243 l 1,48,-1
 208 248 l 1,49,50
 219 257 219 257 232 262 c 2,51,-1
 238 264 l 1,52,-1
 243.737 365.621 l 1,53,54
 249.79 366 249.79 366 256 366 c 0,55,56
 262.725 366 262.725 366 269.267 365.555 c 1,57,58
 272.134 314.778 272.134 314.778 275 264 c 1,59,-1
 281 261 l 1,60,61
 293 257 293 257 303 248 c 1,62,-1
 309 244 l 1,63,-1
 398.253 292.541 l 1,64,65
 406.065 281.78 406.065 281.78 411.954 270.227 c 1,66,-1
 327 212 l 1,67,-1
 329 206 l 1,68,69
 330 198 330 198 330 192 c 128,-1,70
 330 186 330 186 329 178 c 1,71,-1
 327 172 l 1,16,-1
350 203 m 1,72,-1
 373.864 219.215 l 1,73,74
 377 206.056 377 206.056 377 192 c 128,-1,75
 377 177.944 377 177.944 373.864 164.785 c 1,76,-1
 350 181 l 1,77,78
 351 189 351 189 351 192 c 128,-1,79
 351 195 351 195 350 203 c 1,72,-1
291 353 m 1,80,-1
 380 306 l 1,81,-1
 355.638 292.583 l 1,82,83
 329.067 318.834 329.067 318.834 292.326 328.135 c 1,84,-1
 291 353 l 1,80,-1
295 278 m 1,85,-1
 293.464 306.791 l 1,86,87
 317.745 299.493 317.745 299.493 336.822 282.221 c 1,88,-1
 311 268 l 1,89,90
 303 274 303 274 295 278 c 1,85,-1
268 388 m 1,91,92
 268.038 387.333 268.038 387.333 268.075 386.665 c 1,93,94
 262.103 387 262.103 387 256 387 c 0,95,96
 250.409 387 250.409 387 244.928 386.719 c 1,97,98
 244.964 387.36 244.964 387.36 245 388 c 1,99,100
 243.71 387.288 243.71 387.288 242.419 386.576 c 0,101,102
 171.06 382.06 171.06 382.06 118.5 329.5 c 0,103,104
 107.916 318.916 107.916 318.916 99.2809 307.571 c 1,105,106
 95.1405 305.285 95.1405 305.285 91 303 c 1,107,108
 92.7774 302.048 92.7774 302.048 94.5547 301.096 c 1,109,110
 87.5073 291.018 87.5073 291.018 81.94 280.361 c 1,111,-1
 78 283 l 1,112,-1
 77.9411 272.218 l 1,113,114
 61 235.424 61 235.424 61 192 c 0,115,116
 61 149.701 61 149.701 77.0748 113.692 c 1,117,-1
 77 100 l 1,118,-1
 82.0619 103.406 l 1,119,120
 87.5706 92.898 87.5706 92.898 94.5201 82.9538 c 1,121,-1
 89 80 l 1,122,-1
 101.912 73.0476 l 1,123,124
 109.502 63.4983 109.502 63.4983 118.5 54.5 c 0,125,126
 171.033 1.96727 171.033 1.96727 242.346 -2.57089 c 1,127,-1
 245 -4 l 2,128,129
 244.964 -3.35957 244.964 -3.35957 244.928 -2.71914 c 1,130,131
 250.409 -3 250.409 -3 256 -3 c 0,132,133
 262.103 -3 262.103 -3 268.075 -2.66535 c 1,134,135
 268.038 -3.33267 268.038 -3.33267 268 -4 c 2,136,-1
 270.713 -2.5008 l 1,137,138
 341.358 2.35763 341.358 2.35763 393.5 54.5 c 0,139,140
 403.717 64.7171 403.717 64.7171 412.119 75.6445 c 1,141,-1
 420 80 l 1,142,-1
 416.668 81.801 l 1,143,144
 451 130.183 451 130.183 451 192 c 128,-1,145
 451 253.981 451 253.981 416.485 302.457 c 1,146,147
 419.742 304.228 419.742 304.228 423 306 c 1,148,-1
 407.417 314.244 l 1,149,150
 400.94 322.06 400.94 322.06 393.5 329.5 c 0,151,152
 341.409 381.591 341.409 381.591 270.852 386.491 c 0,153,154
 269.426 387.246 269.426 387.246 268 388 c 1,91,92
134 303 m 1,155,-1
 223 353 l 1,156,-1
 221.368 328.525 l 1,157,158
 183.137 319.141 183.137 319.141 155.496 291.601 c 1,159,-1
 134 303 l 1,155,-1
200 268 m 1,160,-1
 174.559 281.492 l 1,161,162
 194.546 299.729 194.546 299.729 219.943 307.145 c 1,163,-1
 218 278 l 1,164,165
 209 274 209 274 200 268 c 1,160,-1
98 139 m 1,166,-1
 98 245 l 1,167,-1
 119.795 230.357 l 1,168,169
 115 211.863 115 211.863 115 192 c 128,-1,170
 115 172.137 115 172.137 119.795 153.643 c 1,171,-1
 98 139 l 1,166,-1
162 182 m 1,172,-1
 138.076 165.926 l 1,173,174
 135 178.743 135 178.743 135 192 c 128,-1,175
 135 205.257 135 205.257 138.076 218.074 c 1,176,-1
 162 202 l 1,177,178
 161 195 161 195 161 192 c 128,-1,179
 161 189 161 189 162 182 c 1,172,-1
223 31 m 1,180,-1
 133 80 l 1,181,-1
 155.699 92.1965 l 1,182,183
 183.779 64.2637 183.779 64.2637 221.419 54.717 c 1,184,185
 222.209 42.8585 222.209 42.8585 223 31 c 1,180,-1
218 106 m 1,186,-1
 219.976 76.3617 l 1,187,188
 194.468 84.3725 194.468 84.3725 174.681 102.396 c 1,189,-1
 200 116 l 1,190,191
 209 110 209 110 218 106 c 1,186,-1
75 373 m 128,-1,193
 0 298 0 298 0 192 c 128,-1,194
 0 86 0 86 75 11 c 128,-1,195
 150 -64 150 -64 256 -64 c 128,-1,196
 362 -64 362 -64 437 11 c 128,-1,197
 512 86 512 86 512 192 c 128,-1,198
 512 298 512 298 437 373 c 128,-1,199
 362 448 362 448 256 448 c 128,-1,192
 150 448 150 448 75 373 c 128,-1,193
89 25 m 128,-1,201
 20 94 20 94 20 192 c 128,-1,202
 20 290 20 290 89 359 c 128,-1,203
 158 428 158 428 256 428 c 128,-1,204
 354 428 354 428 423 359 c 128,-1,205
 492 290 492 290 492 192 c 128,-1,206
 492 94 492 94 423 25 c 128,-1,207
 354 -44 354 -44 256 -44 c 128,-1,200
 158 -44 158 -44 89 25 c 128,-1,201
420.311 133.225 m 1,208,-1
 391.479 152.815 l 1,209,210
 397 172.063 397 172.063 397 192 c 128,-1,211
 397 211.937 397 211.937 391.479 231.185 c 1,212,-1
 420.311 250.775 l 1,213,214
 430 223.383 430 223.383 430 192 c 128,-1,215
 430 160.617 430 160.617 420.311 133.225 c 1,208,-1
292.326 55.8648 m 1,216,217
 329.173 65.1933 329.173 65.1933 355.791 91.5684 c 1,218,-1
 377 80 l 1,219,-1
 291 31 l 1,220,-1
 292.326 55.8648 l 1,216,217
293.464 77.2089 m 1,221,-1
 295 106 l 1,222,223
 303 110 303 110 311 116 c 1,224,-1
 336.916 101.864 l 1,225,226
 317.805 84.5247 317.805 84.5247 293.464 77.2089 c 1,221,-1
EndSplineSet
Validated: 9
EndChar

StartChar: uniF128
Encoding: 61736 61736 43
Width: 512
Flags: W
LayerCount: 2
Fore
SplineSet
28 90 m 1,0,-1
 256 317 l 1,1,-1
 484 90 l 1,2,-1
 462 68 l 1,3,-1
 256 275 l 1,4,-1
 50 68 l 1,5,-1
 28 90 l 1,0,-1
EndSplineSet
Validated: 1
EndChar

StartChar: uniF129
Encoding: 61737 61737 44
Width: 512
Flags: W
LayerCount: 2
Fore
SplineSet
113 376 m 1,0,-1
 92 376 l 1,1,-1
 92 274 l 1,2,-1
 195 274 l 1,3,-1
 195 294 l 1,4,-1
 113 294 l 1,5,-1
 113 376 l 1,0,-1
420 192 m 1,6,-1
 440 192 l 1,7,8
 440 268 440 268 386 322 c 128,-1,9
 332 376 332 376 256 376 c 0,10,11
 174 376 174 376 119 315 c 0,12,13
 109 304 109 304 101 292 c 1,14,-1
 118 280 l 1,15,16
 125 292 125 292 134 302 c 0,17,18
 183 356 183 356 256 356 c 0,19,20
 324 356 324 356 372 308 c 128,-1,21
 420 260 420 260 420 192 c 1,6,-1
256 18 m 1,22,-1
 256 -3 l 1,23,24
 267 -3 267 -3 278 -1 c 1,25,-1
 275 19 l 1,26,27
 266 18 266 18 256 18 c 1,22,-1
318 30 m 1,28,-1
 325 11 l 1,29,30
 366 27 366 27 395 60 c 128,-1,31
 424 93 424 93 435 136 c 1,32,-1
 415 141 l 1,33,34
 405 103 405 103 379 73.5 c 128,-1,35
 353 44 353 44 318 30 c 1,28,-1
419 162 m 1,36,-1
 439 160 l 1,37,38
 440 171 440 171 440 182 c 1,39,-1
 420 182 l 1,40,41
 420 172 420 172 419 162 c 1,36,-1
92 182 m 1,42,-1
 72 182 l 1,43,44
 72 176 72 176 72 171 c 1,45,-1
 92 172 l 1,46,47
 92 177 92 177 92 182 c 1,42,-1
101 130 m 1,48,-1
 81 123 l 1,49,50
 97 76 97 76 134.5 43 c 128,-1,51
 172 10 172 10 221 1 c 1,52,-1
 225 21 l 1,53,54
 181 29 181 29 148 58.5 c 128,-1,55
 115 88 115 88 101 130 c 1,48,-1
246 18 m 1,56,-1
 245 -2 l 1,57,58
 250 -3 250 -3 256 -3 c 1,59,-1
 256 18 l 1,60,61
 251 18 251 18 246 18 c 1,56,-1
EndSplineSet
Validated: 5
EndChar

StartChar: uniF12A
Encoding: 61738 61738 45
Width: 512
Flags: W
LayerCount: 2
Fore
SplineSet
0 192 m 128,-1,1
 0 212 0 212 20.5 212 c 128,-1,2
 41 212 41 212 41 192 c 128,-1,3
 41 172 41 172 20.5 172 c 128,-1,0
 0 172 0 172 0 192 c 128,-1,1
133 253.5 m 128,-1,5
 133 274 133 274 153.5 274 c 128,-1,6
 174 274 174 274 174 253.5 c 128,-1,7
 174 233 174 233 153.5 233 c 128,-1,4
 133 233 133 233 133 253.5 c 128,-1,5
236 335.5 m 128,-1,9
 236 356 236 356 256 356 c 128,-1,10
 276 356 276 356 276 335.5 c 128,-1,11
 276 315 276 315 256 315 c 128,-1,8
 236 315 236 315 236 335.5 c 128,-1,9
338 273.5 m 128,-1,13
 338 294 338 294 358.5 294 c 128,-1,14
 379 294 379 294 379 273.5 c 128,-1,15
 379 253 379 253 358.5 253 c 128,-1,12
 338 253 338 253 338 273.5 c 128,-1,13
471 396.5 m 128,-1,17
 471 417 471 417 491.5 417 c 128,-1,18
 512 417 512 417 512 396.5 c 128,-1,19
 512 376 512 376 491.5 376 c 128,-1,16
 471 376 471 376 471 396.5 c 128,-1,17
0 48.5 m 128,-1,21
 0 69 0 69 20.5 69 c 128,-1,22
 41 69 41 69 41 48.5 c 128,-1,23
 41 28 41 28 20.5 28 c 128,-1,20
 0 28 0 28 0 48.5 c 128,-1,21
133 28.5 m 128,-1,25
 133 49 133 49 153.5 49 c 128,-1,26
 174 49 174 49 174 28.5 c 128,-1,27
 174 8 174 8 153.5 8 c 128,-1,24
 133 8 133 8 133 28.5 c 128,-1,25
236 110.5 m 128,-1,29
 236 131 236 131 256 131 c 128,-1,30
 276 131 276 131 276 110.5 c 128,-1,31
 276 90 276 90 256 90 c 128,-1,28
 236 90 236 90 236 110.5 c 128,-1,29
338 7.5 m 128,-1,33
 338 28 338 28 358.5 28 c 128,-1,34
 379 28 379 28 379 7.5 c 128,-1,35
 379 -13 379 -13 358.5 -13 c 128,-1,32
 338 -13 338 -13 338 7.5 c 128,-1,33
471 130.5 m 128,-1,37
 471 151 471 151 491.5 151 c 128,-1,38
 512 151 512 151 512 130.5 c 128,-1,39
 512 110 512 110 491.5 110 c 128,-1,36
 471 110 471 110 471 130.5 c 128,-1,37
16 201 m 1,40,-1
 25 183 l 1,41,-1
 159 245 l 1,42,-1
 257 323 l 1,43,-1
 360 261 l 1,44,-1
 498 389 l 1,45,-1
 485 404 l 1,46,-1
 357 287 l 1,47,-1
 255 348 l 1,48,-1
 148 262 l 1,49,-1
 16 201 l 1,40,-1
22 59 m 1,50,-1
 19 39 l 1,51,-1
 156 17 l 1,52,-1
 255 96 l 1,53,-1
 358 -7 l 1,54,-1
 498 123 l 1,55,-1
 485 138 l 1,56,-1
 359 22 l 1,57,-1
 257 124 l 1,58,-1
 151 39 l 1,59,-1
 22 59 l 1,50,-1
EndSplineSet
Validated: 5
EndChar

StartChar: uniF12B
Encoding: 61739 61739 46
Width: 512
Flags: W
LayerCount: 2
Fore
SplineSet
20 -23 m 0,0,1
 20 -42 20 -42 31 -53 c 128,-1,2
 42 -64 42 -64 61 -64 c 128,-1,3
 80 -64 80 -64 91 -53 c 0,4,5
 98.9242 -45.0758 98.9242 -45.0758 101.14 -33 c 1,6,-1
 113.86 -33 l 1,7,8
 116.076 -45.0758 116.076 -45.0758 124 -53 c 0,9,10
 135 -64 135 -64 154 -64 c 128,-1,11
 173 -64 173 -64 184 -53 c 128,-1,12
 195 -42 195 -42 195 -23 c 0,13,14
 195 -11.5464 195 -11.5464 191.003 -3 c 1,15,-1
 320.997 -3 l 1,16,17
 317 -11.5464 317 -11.5464 317 -23 c 0,18,19
 317 -42 317 -42 328 -53 c 128,-1,20
 339 -64 339 -64 358 -64 c 128,-1,21
 377 -64 377 -64 388 -53 c 0,22,23
 395.924 -45.0758 395.924 -45.0758 398.14 -33 c 1,24,-1
 410.86 -33 l 1,25,26
 413.076 -45.0758 413.076 -45.0758 421 -53 c 0,27,28
 432 -64 432 -64 451 -64 c 128,-1,29
 470 -64 470 -64 481 -53 c 128,-1,30
 492 -42 492 -42 492 -23 c 0,31,32
 492 -11.3003 492 -11.3003 487.829 -2.63406 c 1,33,34
 496.764 -1.23634 496.764 -1.23634 503.5 5.5 c 0,35,36
 512 14 512 14 512 26 c 2,37,-1
 512 166 l 2,38,39
 512 194 512 194 492.5 213.5 c 128,-1,40
 473 233 473 233 445 233 c 2,41,-1
 67 233 l 2,42,43
 39 233 39 233 19.5 213.5 c 128,-1,44
 0 194 0 194 0 166 c 2,45,-1
 0 26 l 2,46,47
 0 14 0 14 8.5 5.5 c 0,48,49
 15.2363 -1.23634 15.2363 -1.23634 24.1709 -2.63406 c 1,50,51
 20 -11.3003 20 -11.3003 20 -23 c 0,0,1
41 -23 m 128,-1,53
 41 -11 41 -11 45.5 -7 c 128,-1,54
 50 -3 50 -3 61.5 -3 c 128,-1,55
 73 -3 73 -3 77.5 -7 c 0,56,57
 79.75 -9 79.75 -9 80.875 -13 c 1,58,-1
 61 -13 l 1,59,-1
 61 -33 l 1,60,-1
 80.9087 -33 l 1,61,62
 79.784 -37.216 79.784 -37.216 77.5 -39.5 c 0,63,64
 73 -44 73 -44 61.5 -44 c 128,-1,65
 50 -44 50 -44 45.5 -39.5 c 128,-1,52
 41 -35 41 -35 41 -23 c 128,-1,53
338 -23 m 128,-1,67
 338 -11 338 -11 342.5 -7 c 128,-1,68
 347 -3 347 -3 358.5 -3 c 128,-1,69
 370 -3 370 -3 374.5 -7 c 0,70,71
 376.75 -9 376.75 -9 377.875 -13 c 1,72,-1
 358 -13 l 1,73,-1
 358 -33 l 1,74,-1
 377.909 -33 l 1,75,76
 376.784 -37.216 376.784 -37.216 374.5 -39.5 c 0,77,78
 370 -44 370 -44 358.5 -44 c 128,-1,79
 347 -44 347 -44 342.5 -39.5 c 128,-1,66
 338 -35 338 -35 338 -23 c 128,-1,67
445 212 m 2,80,81
 464 212 464 212 478 198.5 c 128,-1,82
 492 185 492 185 492 166 c 2,83,-1
 492 26 l 2,84,85
 492 18 492 18 483 18 c 2,86,-1
 451 18 l 1,87,-1
 358 18 l 1,88,-1
 154 18 l 1,89,-1
 61 18 l 1,90,-1
 29 18 l 2,91,92
 20 18 20 18 20 26 c 2,93,-1
 20 166 l 2,94,95
 20 185 20 185 34 198.5 c 128,-1,96
 48 212 48 212 67 212 c 2,97,-1
 445 212 l 2,80,81
101.14 -13 m 1,98,99
 100.146 -7.58216 100.146 -7.58216 98.0027 -3 c 1,100,-1
 116.997 -3 l 1,101,102
 114.854 -7.58216 114.854 -7.58216 113.86 -13 c 1,103,-1
 101.14 -13 l 1,98,99
134.125 -13 m 1,104,105
 135.25 -9 135.25 -9 137.5 -7 c 0,106,107
 142 -3 142 -3 153.5 -3 c 128,-1,108
 165 -3 165 -3 169.5 -7 c 128,-1,109
 174 -11 174 -11 174 -23 c 128,-1,110
 174 -35 174 -35 169.5 -39.5 c 128,-1,111
 165 -44 165 -44 153.5 -44 c 128,-1,112
 142 -44 142 -44 137.5 -39.5 c 0,113,114
 135.216 -37.216 135.216 -37.216 134.091 -33 c 1,115,-1
 154 -33 l 1,116,-1
 154 -13 l 1,117,-1
 134.125 -13 l 1,104,105
398.14 -13 m 1,118,119
 397.146 -7.58216 397.146 -7.58216 395.003 -3 c 1,120,-1
 413.997 -3 l 1,121,122
 411.854 -7.58216 411.854 -7.58216 410.86 -13 c 1,123,-1
 398.14 -13 l 1,118,119
431.125 -13 m 1,124,125
 432.25 -9 432.25 -9 434.5 -7 c 0,126,127
 439 -3 439 -3 450.5 -3 c 128,-1,128
 462 -3 462 -3 466.5 -7 c 128,-1,129
 471 -11 471 -11 471 -23 c 128,-1,130
 471 -35 471 -35 466.5 -39.5 c 128,-1,131
 462 -44 462 -44 450.5 -44 c 128,-1,132
 439 -44 439 -44 434.5 -39.5 c 0,133,134
 432.216 -37.216 432.216 -37.216 431.091 -33 c 1,135,-1
 451 -33 l 1,136,-1
 451 -13 l 1,137,-1
 431.125 -13 l 1,124,125
451 163 m 2,138,-1
 451 108 l 2,139,140
 451 100 451 100 443 100 c 2,141,-1
 407 100 l 2,142,143
 399 100 399 100 399 108 c 2,144,-1
 399 163 l 2,145,146
 399 172 399 172 407 172 c 2,147,-1
 443 172 l 2,148,149
 451 172 451 172 451 163 c 2,138,-1
463 87.5 m 128,-1,151
 471 96 471 96 471 108 c 2,152,-1
 471 163 l 2,153,154
 471 175 471 175 463 183.5 c 128,-1,155
 455 192 455 192 443 192 c 2,156,-1
 407 192 l 2,157,158
 395 192 395 192 387 183.5 c 128,-1,159
 379 175 379 175 379 163 c 2,160,-1
 379 108 l 2,161,162
 379 96 379 96 387 87.5 c 128,-1,163
 395 79 395 79 407 79 c 2,164,-1
 443 79 l 2,165,150
 455 79 455 79 463 87.5 c 128,-1,151
338 163 m 2,166,-1
 338 108 l 2,167,168
 338 100 338 100 330 100 c 2,169,-1
 294 100 l 2,170,171
 287 100 287 100 287 108 c 2,172,-1
 287 163 l 2,173,174
 287 172 287 172 294 172 c 2,175,-1
 330 172 l 2,176,177
 338 172 338 172 338 163 c 2,166,-1
350 87.5 m 128,-1,179
 358 96 358 96 358 108 c 2,180,-1
 358 163 l 2,181,182
 358 175 358 175 350 183.5 c 128,-1,183
 342 192 342 192 330 192 c 2,184,-1
 294 192 l 2,185,186
 283 192 283 192 274.5 183.5 c 128,-1,187
 266 175 266 175 266 163 c 2,188,-1
 266 108 l 2,189,190
 266 96 266 96 274.5 87.5 c 128,-1,191
 283 79 283 79 294 79 c 2,192,-1
 330 79 l 2,193,178
 342 79 342 79 350 87.5 c 128,-1,179
225 163 m 2,194,-1
 225 108 l 2,195,196
 225 100 225 100 218 100 c 2,197,-1
 182 100 l 2,198,199
 174 100 174 100 174 108 c 2,200,-1
 174 163 l 2,201,202
 174 172 174 172 182 172 c 2,203,-1
 218 172 l 2,204,205
 225 172 225 172 225 163 c 2,194,-1
237.5 87.5 m 128,-1,207
 246 96 246 96 246 108 c 2,208,-1
 246 163 l 2,209,210
 246 175 246 175 237.5 183.5 c 128,-1,211
 229 192 229 192 218 192 c 2,212,-1
 182 192 l 2,213,214
 170 192 170 192 162 183.5 c 128,-1,215
 154 175 154 175 154 163 c 2,216,-1
 154 108 l 2,217,218
 154 96 154 96 162 87.5 c 128,-1,219
 170 79 170 79 182 79 c 2,220,-1
 218 79 l 2,221,206
 229 79 229 79 237.5 87.5 c 128,-1,207
113 163 m 2,222,-1
 113 108 l 2,223,224
 113 100 113 100 105 100 c 2,225,-1
 69 100 l 2,226,227
 61 100 61 100 61 108 c 2,228,-1
 61 163 l 2,229,230
 61 172 61 172 69 172 c 2,231,-1
 105 172 l 2,232,233
 113 172 113 172 113 163 c 2,222,-1
125 87.5 m 128,-1,235
 133 96 133 96 133 108 c 2,236,-1
 133 163 l 2,237,238
 133 175 133 175 125 183.5 c 128,-1,239
 117 192 117 192 105 192 c 2,240,-1
 69 192 l 2,241,242
 57 192 57 192 49 183.5 c 128,-1,243
 41 175 41 175 41 163 c 2,244,-1
 41 108 l 2,245,246
 41 96 41 96 49 87.5 c 128,-1,247
 57 79 57 79 69 79 c 2,248,-1
 105 79 l 2,249,234
 117 79 117 79 125 87.5 c 128,-1,235
EndSplineSet
Validated: 9
EndChar

StartChar: uniF12C
Encoding: 61740 61740 47
Width: 512
Flags: W
LayerCount: 2
Fore
SplineSet
4 243 m 1,0,-1
 225 75 l 1,1,-1
 225 182 l 1,2,3
 277 180 277 180 319.5 169 c 128,-1,4
 362 158 362 158 388.5 142.5 c 128,-1,5
 415 127 415 127 435.5 106 c 128,-1,6
 456 85 456 85 466 68 c 128,-1,7
 476 51 476 51 482.5 32 c 128,-1,8
 489 13 489 13 490 6.5 c 128,-1,9
 491 0 491 0 492 -3 c 1,10,-1
 512 -3 l 1,11,12
 512 3 512 3 512 14 c 128,-1,13
 512 25 512 25 507 56.5 c 128,-1,14
 502 88 502 88 493 116.5 c 128,-1,15
 484 145 484 145 463 180 c 128,-1,16
 442 215 442 215 412.5 240.5 c 128,-1,17
 383 266 383 266 334.5 284.5 c 128,-1,18
 286 303 286 303 225 305 c 1,19,-1
 225 411 l 1,20,-1
 4 243 l 1,0,-1
205 116 m 1,21,-1
 37 243 l 1,22,-1
 205 370 l 1,23,-1
 205 284 l 1,24,-1
 215 284 l 2,25,26
 268 284 268 284 311.5 271 c 128,-1,27
 355 258 355 258 382.5 238 c 128,-1,28
 410 218 410 218 431 189.5 c 128,-1,29
 452 161 452 161 463 136.5 c 128,-1,30
 474 112 474 112 481 84 c 1,31,32
 406 202 406 202 215 202 c 2,33,-1
 205 202 l 1,34,-1
 205 116 l 1,21,-1
EndSplineSet
Validated: 9
EndChar

StartChar: uniF12D
Encoding: 61741 61741 48
Width: 512
Flags: W
LayerCount: 2
Fore
SplineSet
2 192 m 128,-1,1
 2 297 2 297 76.5 371.5 c 128,-1,2
 151 446 151 446 256 446 c 128,-1,3
 361 446 361 446 435.5 371.5 c 128,-1,4
 510 297 510 297 510 192 c 128,-1,5
 510 87 510 87 435.5 12.5 c 128,-1,6
 361 -62 361 -62 256 -62 c 128,-1,7
 151 -62 151 -62 76.5 12.5 c 128,-1,0
 2 87 2 87 2 192 c 128,-1,1
21 193 m 128,-1,9
 21 96 21 96 90 27 c 128,-1,10
 159 -42 159 -42 256 -42 c 128,-1,11
 353 -42 353 -42 422 27 c 128,-1,12
 491 96 491 96 491 193 c 128,-1,13
 491 290 491 290 422 359 c 128,-1,14
 353 428 353 428 256 428 c 128,-1,15
 159 428 159 428 90 359 c 128,-1,8
 21 290 21 290 21 193 c 128,-1,9
224 192 m 0,16,17
 224 205 224 205 233 214 c 0,18,19
 238.698 219.698 238.698 219.698 246 221.789 c 1,20,-1
 246 387 l 1,21,-1
 266 387 l 1,22,-1
 266 221.137 l 1,23,24
 272.094 218.906 272.094 218.906 277 214 c 0,25,26
 286 205 286 205 286 192 c 128,-1,27
 286 179 286 179 277 170 c 128,-1,28
 268 161 268 161 255 161 c 0,29,30
 247.773 161 247.773 161 241.782 163.782 c 1,31,-1
 181 103 l 1,32,-1
 167 117 l 1,33,-1
 227.445 177.445 l 1,34,35
 224 183.957 224 183.957 224 192 c 0,16,17
EndSplineSet
Validated: 1
EndChar

StartChar: uniF12E
Encoding: 61742 61742 49
Width: 512
Flags: W
LayerCount: 2
Fore
SplineSet
419 274 m 0,0,1
 419 341 419 341 371 389 c 128,-1,2
 323 437 323 437 256 437 c 128,-1,3
 189 437 189 437 141 389 c 128,-1,4
 93 341 93 341 93 274 c 0,5,6
 93 233 93 233 109 184 c 128,-1,7
 125 135 125 135 148 95.5 c 128,-1,8
 171 56 171 56 194 22 c 128,-1,9
 217 -12 217 -12 233 -30 c 2,10,-1
 249 -49 l 1,11,-1
 256 -57 l 1,12,-1
 263 -49 l 2,13,14
 269 -42 269 -42 279.5 -29 c 128,-1,15
 290 -16 290 -16 317 22.5 c 128,-1,16
 344 61 344 61 364.5 98 c 128,-1,17
 385 135 385 135 402 184 c 128,-1,18
 419 233 419 233 419 274 c 0,0,1
401 274 m 0,19,20
 401 233 401 233 383 183.5 c 128,-1,21
 365 134 365 134 338 89.5 c 128,-1,22
 311 45 311 45 292 18 c 128,-1,23
 273 -9 273 -9 256 -29 c 1,24,25
 238 -8 238 -8 219 19 c 128,-1,26
 200 46 200 46 173 90 c 128,-1,27
 146 134 146 134 128.5 183 c 128,-1,28
 111 232 111 232 111 274 c 0,29,30
 111 334 111 334 153.5 376 c 128,-1,31
 196 418 196 418 256 418 c 128,-1,32
 316 418 316 418 358.5 376 c 128,-1,33
 401 334 401 334 401 274 c 0,19,20
204 263.5 m 128,-1,35
 204 291 204 291 216 303.5 c 128,-1,36
 228 316 228 316 256 316 c 128,-1,37
 284 316 284 316 296 303.5 c 128,-1,38
 308 291 308 291 308 263.5 c 128,-1,39
 308 236 308 236 296 223.5 c 128,-1,40
 284 211 284 211 256 211 c 128,-1,41
 228 211 228 211 216 223.5 c 128,-1,34
 204 236 204 236 204 263.5 c 128,-1,35
186 264 m 128,-1,43
 186 230 186 230 204 211.5 c 128,-1,44
 222 193 222 193 256 193 c 128,-1,45
 290 193 290 193 308 211.5 c 128,-1,46
 326 230 326 230 326 264 c 128,-1,47
 326 298 326 298 308 316 c 128,-1,48
 290 334 290 334 256 334 c 128,-1,49
 222 334 222 334 204 316 c 128,-1,42
 186 298 186 298 186 264 c 128,-1,43
EndSplineSet
Validated: 9
EndChar

StartChar: uniF12F
Encoding: 61743 61743 50
Width: 512
Flags: W
LayerCount: 2
Fore
SplineSet
246 405 m 1,0,-1
 266 405 l 1,1,-1
 266 438 l 1,2,-1
 246 438 l 1,3,-1
 246 405 l 1,0,-1
143 8 m 1,4,-1
 123 8 l 1,5,6
 123 -22 123 -22 144 -43 c 128,-1,7
 165 -64 165 -64 194.5 -64 c 128,-1,8
 224 -64 224 -64 245 -43 c 128,-1,9
 266 -22 266 -22 266 8 c 2,10,-1
 266 212 l 1,11,-1
 246 212 l 1,12,-1
 246 8 l 2,13,14
 246 -14 246 -14 231 -29 c 128,-1,15
 216 -44 216 -44 194.5 -44 c 128,-1,16
 173 -44 173 -44 158 -29 c 128,-1,17
 143 -14 143 -14 143 8 c 1,4,-1
102 233 m 0,18,19
 63 233 63 233 32 209 c 1,20,21
 44 289 44 289 106 338 c 128,-1,22
 168 387 168 387 256 387 c 0,23,24
 345 387 345 387 407.5 338 c 128,-1,25
 470 289 470 289 480 206 c 1,26,27
 445 233 445 233 410 233 c 0,28,29
 364 233 364 233 333 198 c 1,30,31
 302 233 302 233 256 233 c 128,-1,32
 210 233 210 233 179 198 c 1,33,34
 148 233 148 233 102 233 c 0,18,19
102 212 m 0,35,36
 146 212 146 212 170 176 c 2,37,-1
 179 163 l 1,38,-1
 188 176 l 2,39,40
 212 212 212 212 256 212 c 128,-1,41
 300 212 300 212 324 176 c 2,42,-1
 333 163 l 1,43,-1
 342 176 l 2,44,45
 366 212 366 212 410 212 c 0,46,47
 428 212 428 212 446.5 203 c 128,-1,48
 465 194 465 194 474 184 c 1,49,-1
 484 175 l 1,50,-1
 502 155 l 1,51,-1
 502 182 l 2,52,53
 502 281 502 281 430.5 344 c 128,-1,54
 359 407 359 407 256 407 c 128,-1,55
 153 407 153 407 81.5 344 c 128,-1,56
 10 281 10 281 10 182 c 2,57,-1
 10 148 l 1,58,-1
 29 176 l 2,59,60
 32 180 32 180 37 186 c 128,-1,61
 42 192 42 192 61 202 c 128,-1,62
 80 212 80 212 102 212 c 0,35,36
EndSplineSet
Validated: 5
EndChar

StartChar: uniF130
Encoding: 61744 61744 51
Width: 512
Flags: W
LayerCount: 2
Fore
SplineSet
481 335 m 2,0,1
 486 335 486 335 489 332 c 128,-1,2
 492 329 492 329 492 325 c 2,3,-1
 492 -3 l 2,4,5
 492 -7 492 -7 489 -10 c 128,-1,6
 486 -13 486 -13 481 -13 c 2,7,-1
 31 -13 l 2,8,9
 26 -13 26 -13 23 -10 c 128,-1,10
 20 -7 20 -7 20 -3 c 2,11,-1
 20 325 l 2,12,13
 20 329 20 329 23 332 c 128,-1,14
 26 335 26 335 31 335 c 2,15,-1
 481 335 l 2,0,1
481 356 m 2,16,-1
 31 356 l 2,17,18
 18 356 18 356 9 347 c 128,-1,19
 0 338 0 338 0 325 c 2,20,-1
 0 -3 l 2,21,22
 0 -15 0 -15 9 -24 c 128,-1,23
 18 -33 18 -33 31 -33 c 2,24,-1
 481 -33 l 2,25,26
 494 -33 494 -33 503 -24 c 128,-1,27
 512 -15 512 -15 512 -3 c 2,28,-1
 512 325 l 2,29,30
 512 338 512 338 503 347 c 128,-1,31
 494 356 494 356 481 356 c 2,16,-1
20 172 m 1,32,-1
 0 172 l 1,33,34
 0 159 0 159 9 150 c 128,-1,35
 18 141 18 141 31 141 c 2,36,-1
 481 141 l 2,37,38
 494 141 494 141 503 150 c 128,-1,39
 512 159 512 159 512 172 c 1,40,-1
 492 172 l 1,41,42
 492 167 492 167 489 164 c 128,-1,43
 486 161 486 161 481 161 c 2,44,-1
 31 161 l 2,45,46
 26 161 26 161 23 164 c 128,-1,47
 20 167 20 167 20 172 c 1,32,-1
317 356 m 1,48,-1
 338 356 l 1,49,-1
 338 387 l 2,50,51
 338 399 338 399 329 408 c 128,-1,52
 320 417 320 417 307 417 c 2,53,-1
 205 417 l 2,54,55
 192 417 192 417 183 408 c 128,-1,56
 174 399 174 399 174 387 c 2,57,-1
 174 356 l 1,58,-1
 195 356 l 1,59,-1
 195 387 l 2,60,61
 195 391 195 391 198 394 c 128,-1,62
 201 397 201 397 205 397 c 2,63,-1
 307 397 l 2,64,65
 311 397 311 397 314 394 c 128,-1,66
 317 391 317 391 317 387 c 2,67,-1
 317 356 l 1,48,-1
236 202.5 m 128,-1,69
 236 223 236 223 256 223 c 128,-1,70
 276 223 276 223 276 202.5 c 128,-1,71
 276 182 276 182 256 182 c 128,-1,68
 236 182 236 182 236 202.5 c 128,-1,69
EndSplineSet
Validated: 5
EndChar

StartChar: uniF131
Encoding: 61745 61745 52
Width: 512
Flags: W
LayerCount: 2
Fore
SplineSet
440 417 m 2,0,-1
 440 59 l 2,1,2
 440 56 440 56 439.5 52 c 128,-1,3
 439 48 439 48 435 37.5 c 128,-1,4
 431 27 431 27 424.5 19 c 128,-1,5
 418 11 418 11 403 4 c 128,-1,6
 388 -3 388 -3 369 -3 c 0,7,8
 342 -3 342 -3 324 5 c 128,-1,9
 306 13 306 13 298.5 24.5 c 128,-1,10
 291 36 291 36 289 44 c 128,-1,11
 287 52 287 52 287 59 c 0,12,13
 287 82 287 82 303.5 96 c 128,-1,14
 320 110 320 110 369 110 c 0,15,16
 393 110 393 110 401.5 117 c 128,-1,17
 410 124 410 124 410 141 c 2,18,-1
 410 313 l 2,19,20
 410 324 410 324 407 327 c 128,-1,21
 404 330 404 330 394 328 c 0,22,23
 383 325 383 325 334 314.5 c 128,-1,24
 285 304 285 304 240.5 294 c 128,-1,25
 196 284 196 284 193 284 c 0,26,27
 184 282 184 282 184 266 c 2,28,-1
 184 8 l 2,29,30
 184 -15 184 -15 164.5 -34.5 c 128,-1,31
 145 -54 145 -54 102 -54 c 0,32,33
 80 -54 80 -54 64.5 -47.5 c 128,-1,34
 49 -41 49 -41 42.5 -30.5 c 128,-1,35
 36 -20 36 -20 33.5 -11 c 128,-1,36
 31 -2 31 -2 31 8 c 0,37,38
 31 31 31 31 49 44.5 c 128,-1,39
 67 58 67 58 102 58 c 0,40,41
 134 58 134 58 144 65.5 c 128,-1,42
 154 73 154 73 154 90 c 2,43,-1
 154 366 l 2,44,45
 154 382 154 382 168 385 c 2,46,-1
 421 437 l 2,47,48
 422 437 422 437 426 437.5 c 128,-1,49
 430 438 430 438 435 433 c 128,-1,50
 440 428 440 428 440 417 c 2,0,-1
EndSplineSet
Validated: 1
EndChar

StartChar: uniF132
Encoding: 61746 61746 53
Width: 512
Flags: W
LayerCount: 2
Fore
SplineSet
369 131 m 2,0,-1
 123 131 l 2,1,2
 97 131 97 131 79 149 c 128,-1,3
 61 167 61 167 61 192 c 128,-1,4
 61 217 61 217 79 235 c 128,-1,5
 97 253 97 253 123 253 c 0,6,7
 127 253 127 253 133 253 c 1,8,-1
 147 250 l 1,9,-1
 145 264 l 2,10,11
 143 272 143 272 143 279 c 0,12,13
 143 315 143 315 168.5 340.5 c 128,-1,14
 194 366 194 366 230 366 c 0,15,16
 263 366 263 366 287 345 c 128,-1,17
 311 324 311 324 316 293 c 2,18,-1
 318 279 l 1,19,-1
 331 285 l 2,20,21
 349 294 349 294 369 294 c 0,22,23
 403 294 403 294 427 270 c 128,-1,24
 451 246 451 246 451 212.5 c 128,-1,25
 451 179 451 179 427 155 c 128,-1,26
 403 131 403 131 369 131 c 2,0,-1
369 110 m 2,27,28
 411 110 411 110 441 140 c 128,-1,29
 471 170 471 170 471 212.5 c 128,-1,30
 471 255 471 255 441 285 c 128,-1,31
 411 315 411 315 369 315 c 0,32,33
 352 315 352 315 334 309 c 1,34,35
 324 343 324 343 295.5 365 c 128,-1,36
 267 387 267 387 230 387 c 0,37,38
 186 387 186 387 154.5 355.5 c 128,-1,39
 123 324 123 324 123 279 c 0,40,41
 123 274 123 274 126 273 c 1,42,-1
 127 274 l 1,43,-1
 123 274 l 2,44,45
 89 274 89 274 65 250 c 128,-1,46
 41 226 41 226 41 192 c 128,-1,47
 41 158 41 158 65 134 c 128,-1,48
 89 110 89 110 123 110 c 2,49,-1
 369 110 l 2,27,28
235 -37 m 1,50,-1
 253 -29 l 1,51,-1
 237 12 l 1,52,-1
 218 4 l 1,53,-1
 235 -37 l 1,50,-1
211 -12 m 1,54,-1
 219 -31 l 1,55,-1
 260 -14 l 1,56,-1
 252 5 l 1,57,-1
 211 -12 l 1,54,-1
142 34 m 1,58,-1
 161 42 l 1,59,-1
 144 83 l 1,60,-1
 125 75 l 1,61,-1
 142 34 l 1,58,-1
119 60 m 1,62,-1
 127 41 l 1,63,-1
 168 58 l 1,64,-1
 160 77 l 1,65,-1
 119 60 l 1,62,-1
337 14 m 1,66,-1
 356 22 l 1,67,-1
 339 63 l 1,68,-1
 320 55 l 1,69,-1
 337 14 l 1,66,-1
314 39 m 1,70,-1
 321 20 l 1,71,-1
 362 37 l 1,72,-1
 354 56 l 1,73,-1
 314 39 l 1,70,-1
EndSplineSet
Validated: 5
EndChar

StartChar: uniF133
Encoding: 61747 61747 54
Width: 512
Flags: W
LayerCount: 2
Fore
SplineSet
91 294 m 1,0,-1
 421 294 l 1,1,-1
 460 -44 l 1,2,-1
 52 -44 l 1,3,-1
 91 294 l 1,0,-1
73 315 m 1,4,-1
 29 -64 l 1,5,-1
 483 -64 l 1,6,-1
 439 315 l 1,7,-1
 73 315 l 1,4,-1
338 253 m 1,8,-1
 358 253 l 1,9,-1
 358 335 l 2,10,11
 358 378 358 378 328 408 c 128,-1,12
 298 438 298 438 256 438 c 128,-1,13
 214 438 214 438 184 408 c 128,-1,14
 154 378 154 378 154 335 c 2,15,-1
 154 253 l 1,16,-1
 174 253 l 1,17,-1
 174 335 l 2,18,19
 174 369 174 369 198 393 c 128,-1,20
 222 417 222 417 256 417 c 128,-1,21
 290 417 290 417 314 393 c 128,-1,22
 338 369 338 369 338 335 c 2,23,-1
 338 253 l 1,8,-1
328 253.5 m 128,-1,25
 328 274 328 274 348.5 274 c 128,-1,26
 369 274 369 274 369 253.5 c 128,-1,27
 369 233 369 233 348.5 233 c 128,-1,24
 328 233 328 233 328 253.5 c 128,-1,25
143 253.5 m 128,-1,29
 143 274 143 274 163.5 274 c 128,-1,30
 184 274 184 274 184 253.5 c 128,-1,31
 184 233 184 233 163.5 233 c 128,-1,28
 143 233 143 233 143 253.5 c 128,-1,29
EndSplineSet
Validated: 5
EndChar

StartChar: uniF134
Encoding: 61748 61748 55
Width: 512
Flags: W
LayerCount: 2
Fore
SplineSet
188.5 49 m 128,-1,1
 180 47 180 47 173 52 c 128,-1,2
 166 57 166 57 164.5 65 c 128,-1,3
 163 73 163 73 167.5 80 c 128,-1,4
 172 87 172 87 180 89 c 128,-1,5
 188 91 188 91 195.5 86.5 c 128,-1,6
 203 82 203 82 204.5 73.5 c 128,-1,7
 206 65 206 65 201.5 58 c 128,-1,0
 197 51 197 51 188.5 49 c 128,-1,1
250 59.5 m 128,-1,9
 242 58 242 58 234.5 62.5 c 128,-1,10
 227 67 227 67 225.5 75 c 128,-1,11
 224 83 224 83 228.5 90.5 c 128,-1,12
 233 98 233 98 241.5 99.5 c 128,-1,13
 250 101 250 101 257 96.5 c 128,-1,14
 264 92 264 92 266 83.5 c 128,-1,15
 268 75 268 75 263 68 c 128,-1,8
 258 61 258 61 250 59.5 c 128,-1,9
311.5 69.5 m 128,-1,17
 303 68 303 68 296 72.5 c 128,-1,18
 289 77 289 77 287 85.5 c 128,-1,19
 285 94 285 94 290 101 c 128,-1,20
 295 108 295 108 303 109.5 c 128,-1,21
 311 111 311 111 318 106.5 c 128,-1,22
 325 102 325 102 327 94 c 128,-1,23
 329 86 329 86 324.5 78.5 c 128,-1,16
 320 71 320 71 311.5 69.5 c 128,-1,17
505 -60 m 1,24,-1
 498 -40 l 1,25,26
 491 -43 491 -43 483 -43 c 0,27,28
 452 -43 452 -43 432 -28 c 1,29,-1
 426 -23 l 1,30,-1
 420 -28 l 1,31,32
 400 -43 400 -43 369 -43 c 128,-1,33
 338 -43 338 -43 319 -28 c 2,34,-1
 313 -23 l 1,35,-1
 306 -28 l 1,36,37
 287 -43 287 -43 256 -43 c 128,-1,38
 225 -43 225 -43 206 -28 c 1,39,-1
 199 -23 l 1,40,-1
 193 -28 l 2,41,42
 174 -43 174 -43 143 -43 c 128,-1,43
 112 -43 112 -43 92 -28 c 1,44,-1
 86 -23 l 1,45,-1
 80 -28 l 1,46,47
 60 -43 60 -43 29 -43 c 0,48,49
 21 -43 21 -43 12 -42 c 1,50,-1
 9 -62 l 1,51,52
 19 -63 19 -63 29 -63 c 0,53,54
 61 -63 61 -63 86 -48 c 1,55,56
 110 -63 110 -63 142.5 -63 c 128,-1,57
 175 -63 175 -63 199 -48 c 1,58,59
 224 -63 224 -63 256 -63 c 128,-1,60
 288 -63 288 -63 313 -48 c 1,61,62
 337 -63 337 -63 369.5 -63 c 128,-1,63
 402 -63 402 -63 426 -48 c 1,64,65
 451 -63 451 -63 483 -63 c 0,66,67
 495 -63 495 -63 505 -60 c 1,24,-1
505 -19 m 1,68,-1
 498 0 l 1,69,70
 491 -2 491 -2 483 -2 c 0,71,72
 452 -2 452 -2 432 13 c 1,73,-1
 426 18 l 1,74,-1
 420 13 l 2,75,76
 407.874 3.90547 407.874 3.90547 391.704 0.324968 c 1,77,78
 394.867 3.04132 394.867 3.04132 398 6 c 0,79,80
 416 23 416 23 432.5 48 c 128,-1,81
 449 73 449 73 460 90.5 c 128,-1,82
 471 108 471 108 487 138 c 128,-1,83
 503 168 503 168 507 177 c 0,84,85
 515 191 515 191 507.5 201 c 128,-1,86
 500 211 500 211 488 208 c 0,87,88
 450.472 198.646 450.472 198.646 416.769 190.23 c 1,89,90
 416.884 190.615 416.884 190.615 417 191 c 0,91,92
 293 232 293 232 255 226 c 0,93,94
 249 225 249 225 232 223.5 c 128,-1,95
 215 222 215 222 199.5 220 c 128,-1,96
 184 218 184 218 167.5 215.5 c 0,97,98
 158.681 214.164 158.681 214.164 151.291 212.399 c 1,99,100
 103.978 239.015 103.978 239.015 101 241 c 0,101,102
 92 247 92 247 83 247 c 2,103,-1
 54 247 l 2,104,105
 44 247 44 247 41 238 c 128,-1,106
 38 229 38 229 44 223 c 0,107,108
 46.9144 220.086 46.9144 220.086 106.452 167.154 c 1,109,110
 104.027 161.863 104.027 161.863 101.5 156 c 0,111,112
 89.4837 128.122 89.4837 128.122 89.9428 102.093 c 1,113,114
 66.4084 89.0102 66.4084 89.0102 49 68 c 0,115,116
 20 33 20 33 20 6 c 0,117,118
 20 1.74331 20 1.74331 20.4955 -1.73482 c 1,119,120
 16.3654 -1.48504 16.3654 -1.48504 12 -1 c 1,121,-1
 9 -21 l 1,122,123
 19 -22 19 -22 29 -22 c 0,124,125
 61 -22 61 -22 86 -7 c 1,126,127
 110 -22 110 -22 142.5 -22 c 128,-1,128
 175 -22 175 -22 199 -7 c 1,129,130
 224 -22 224 -22 256 -22 c 128,-1,131
 288 -22 288 -22 313 -7 c 1,132,133
 337 -22 337 -22 369.5 -22 c 128,-1,134
 402 -22 402 -22 426 -7 c 1,135,136
 451 -22 451 -22 483 -22 c 0,137,138
 495 -22 495 -22 505 -19 c 1,68,-1
379.371 180.884 m 1,139,140
 152.718 124.205 152.718 124.205 124 116 c 0,141,142
 117.179 114.072 117.179 114.072 110.733 111.661 c 1,143,144
 112.707 127.767 112.707 127.767 120 146 c 0,145,146
 130 171 130 171 140 187 c 1,147,148
 152 191 152 191 258 206 c 0,149,150
 271 208 271 208 309.5 199 c 128,-1,151
 348 190 348 190 379 181 c 0,152,153
 379.185 180.942 379.185 180.942 379.371 180.884 c 1,139,140
115.839 186.206 m 1,154,155
 87.5372 211.216 87.5372 211.216 70 227 c 1,156,-1
 83 227 l 2,157,158
 86 227 86 227 90 224 c 0,159,160
 93.3078 221.519 93.3078 221.519 126.705 202.626 c 1,161,162
 125.079 201.349 125.079 201.349 124 200 c 0,163,164
 120.109 194.163 120.109 194.163 115.839 186.206 c 1,154,155
36.5572 -1.76695 m 1,165,-1
 40 3 l 1,166,-1
 40 6 l 2,167,168
 40 25 40 25 65 55 c 128,-1,169
 90 85 90 85 129 96 c 0,170,171
 161 105 161 105 490 187 c 1,172,173
 486 180 486 180 468.5 148.5 c 128,-1,174
 451 117 451 117 441.5 101 c 128,-1,175
 432 85 432 85 415.5 61 c 128,-1,176
 399 37 399 37 383.5 21.5 c 0,177,178
 368.927 6.92674 368.927 6.92674 353.911 -1.01655 c 1,179,180
 333.135 1.84079 333.135 1.84079 319 13 c 2,181,-1
 313 18 l 1,182,-1
 306 13 l 1,183,184
 287 -2 287 -2 256 -2 c 128,-1,185
 225 -2 225 -2 206 13 c 1,186,-1
 199 18 l 1,187,-1
 193 13 l 2,188,189
 174 -2 174 -2 143 -2 c 128,-1,190
 112 -2 112 -2 92 13 c 1,191,-1
 86 18 l 1,192,-1
 80 13 l 1,193,194
 62.4929 -0.130296 62.4929 -0.130296 36.5572 -1.76695 c 1,165,-1
EndSplineSet
Validated: 41
EndChar

StartChar: uniF135
Encoding: 61749 61749 56
Width: 512
Flags: W
LayerCount: 2
Fore
SplineSet
358 356 m 0,0,1
 405 356 405 356 438 323 c 128,-1,2
 471 290 471 290 471 243 c 0,3,4
 471 206 471 206 456.5 173 c 128,-1,5
 442 140 442 140 414.5 112.5 c 128,-1,6
 387 85 387 85 363.5 66 c 128,-1,7
 340 47 340 47 304.5 23.5 c 128,-1,8
 269 0 269 0 256 -10 c 1,9,10
 244 -1 244 -1 209 22.5 c 128,-1,11
 174 46 174 46 150.5 64.5 c 128,-1,12
 127 83 127 83 99 111 c 128,-1,13
 71 139 71 139 56 172.5 c 128,-1,14
 41 206 41 206 41 243 c 0,15,16
 41 290 41 290 74 323 c 128,-1,17
 107 356 107 356 154 356 c 0,18,19
 214 356 214 356 247 305 c 1,20,-1
 256 293 l 1,21,-1
 265 305 l 1,22,23
 298 356 298 356 358 356 c 0,0,1
358 376 m 0,24,25
 328 376 328 376 300.5 362.5 c 128,-1,26
 273 349 273 349 256 328 c 1,27,28
 216 376 216 376 154 376 c 0,29,30
 98 376 98 376 59 337 c 128,-1,31
 20 298 20 298 20 243 c 0,32,33
 20 201 20 201 37.5 162.5 c 128,-1,34
 55 124 55 124 85 94.5 c 128,-1,35
 115 65 115 65 143 44 c 128,-1,36
 171 23 171 23 204.5 1 c 128,-1,37
 238 -21 238 -21 249 -31 c 1,38,-1
 256 -36 l 1,39,-1
 263 -31 l 1,40,41
 274 -21 274 -21 307.5 1 c 128,-1,42
 341 23 341 23 369 44 c 128,-1,43
 397 65 397 65 427 94.5 c 128,-1,44
 457 124 457 124 474.5 162.5 c 128,-1,45
 492 201 492 201 492 243 c 0,46,47
 492 298 492 298 453 337 c 128,-1,48
 414 376 414 376 358 376 c 0,24,25
EndSplineSet
Validated: 9
EndChar

StartChar: uniF136
Encoding: 61750 61750 57
Width: 512
Flags: W
LayerCount: 2
Fore
SplineSet
343.5 206.5 m 128,-1,1
 339 202 339 202 333 202 c 2,2,-1
 179 202 l 2,3,4
 173 202 173 202 168.5 206.5 c 128,-1,5
 164 211 164 211 164 217.5 c 128,-1,6
 164 224 164 224 168.5 228.5 c 128,-1,7
 173 233 173 233 179 233 c 2,8,-1
 333 233 l 2,9,10
 339 233 339 233 343.5 228.5 c 128,-1,11
 348 224 348 224 348 217.5 c 128,-1,0
 348 211 348 211 343.5 206.5 c 128,-1,1
179 182 m 2,12,-1
 333 182 l 2,13,14
 348 182 348 182 358.5 192.5 c 128,-1,15
 369 203 369 203 369 217.5 c 128,-1,16
 369 232 369 232 358.5 242.5 c 128,-1,17
 348 253 348 253 333 253 c 2,18,-1
 179 253 l 2,19,20
 164 253 164 253 153.5 242.5 c 128,-1,21
 143 232 143 232 143 217.5 c 128,-1,22
 143 203 143 203 153.5 192.5 c 128,-1,23
 164 182 164 182 179 182 c 2,12,-1
461 294 m 1,24,-1
 461 -23 l 1,25,-1
 51 -23 l 1,26,-1
 51 294 l 1,27,-1
 461 294 l 1,24,-1
31 294 m 1,28,-1
 31 -44 l 1,29,-1
 481 -44 l 1,30,-1
 481 294 l 1,31,-1
 502 294 l 1,32,-1
 502 417 l 1,33,-1
 10 417 l 1,34,-1
 10 294 l 1,35,-1
 31 294 l 1,28,-1
481 315 m 1,36,-1
 31 315 l 1,37,-1
 31 397 l 1,38,-1
 481 397 l 1,39,-1
 481 315 l 1,36,-1
EndSplineSet
Validated: 9
EndChar

StartChar: uniF137
Encoding: 61751 61751 58
Width: 512
Flags: W
LayerCount: 2
Fore
SplineSet
328 100 m 1,0,-1
 328 79 l 1,1,-1
 421 79 l 2,2,3
 459 79 459 79 485.5 106 c 128,-1,4
 512 133 512 133 512 171 c 0,5,6
 512 206 512 206 487.5 231.5 c 128,-1,7
 463 257 463 257 431 261 c 1,8,9
 432 264 432 264 432 267 c 0,10,11
 432 323 432 323 392.5 362 c 128,-1,12
 353 401 353 401 297 401 c 0,13,14
 258 401 258 401 226 380.5 c 128,-1,15
 194 360 194 360 176 326 c 1,16,17
 156 338 156 338 137 338 c 0,18,19
 108 338 108 338 88 318.5 c 128,-1,20
 68 299 68 299 65 271 c 1,21,22
 34 259 34 259 17 234.5 c 128,-1,23
 0 210 0 210 0 178 c 0,24,25
 0 137 0 137 29 108 c 128,-1,26
 58 79 58 79 99 79 c 2,27,-1
 184 79 l 1,28,-1
 184 100 l 1,29,-1
 99 100 l 2,30,31
 66 100 66 100 43 123 c 128,-1,32
 20 146 20 146 20 178 c 0,33,34
 20 205 20 205 36.5 226 c 128,-1,35
 53 247 53 247 78 254 c 2,36,-1
 85 256 l 1,37,-1
 85 266 l 2,38,39
 85 288 85 288 100.5 303 c 128,-1,40
 116 318 116 318 137 318 c 128,-1,41
 158 318 158 318 173 303 c 2,42,-1
 184 291 l 1,43,-1
 190 306 l 1,44,45
 202 339 202 339 231.5 360 c 128,-1,46
 261 381 261 381 297 381 c 0,47,48
 344 381 344 381 377.5 347.5 c 128,-1,49
 411 314 411 314 411 267 c 0,50,51
 411 261 411 261 410 253 c 2,52,-1
 409 241 l 1,53,-1
 422 241 l 1,54,55
 450 240 450 240 471 220 c 128,-1,56
 492 200 492 200 492 170.5 c 128,-1,57
 492 141 492 141 471 120.5 c 128,-1,58
 450 100 450 100 421 100 c 2,59,-1
 328 100 l 1,0,-1
314 21 m 1,60,-1
 300 35 l 1,61,-1
 256 -9 l 1,62,-1
 212 35 l 1,63,-1
 198 21 l 1,64,-1
 256 -38 l 1,65,-1
 314 21 l 1,60,-1
266 182 m 1,66,-1
 246 182 l 1,67,-1
 246 -20 l 1,68,-1
 266 -20 l 1,69,-1
 266 182 l 1,66,-1
EndSplineSet
Validated: 5
EndChar

StartChar: uniF138
Encoding: 61752 61752 59
Width: 512
Flags: W
LayerCount: 2
Fore
SplineSet
441 377 m 1,0,-1
 284 11 l 1,1,-1
 214 150 l 1,2,-1
 75 220 l 1,3,-1
 441 377 l 1,0,-1
480 416 m 1,4,-1
 27 221 l 1,5,-1
 199 135 l 1,6,-1
 285 -37 l 1,7,-1
 480 416 l 1,4,-1
204 155 m 1,8,-1
 219 140 l 1,9,-1
 454 376 l 1,10,-1
 440 390 l 1,11,-1
 204 155 l 1,8,-1
EndSplineSet
Validated: 5
EndChar

StartChar: uniF139
Encoding: 61753 61753 60
Width: 512
Flags: W
LayerCount: 2
Fore
SplineSet
20 79 m 1,0,-1
 20 387 l 1,1,-1
 492 387 l 1,2,-1
 492 79 l 1,3,-1
 20 79 l 1,0,-1
0 59 m 1,4,-1
 512 59 l 1,5,-1
 512 407 l 1,6,-1
 0 407 l 1,7,-1
 0 59 l 1,4,-1
266 438 m 1,8,-1
 246 438 l 1,9,-1
 246 397 l 1,10,-1
 266 397 l 1,11,-1
 266 438 l 1,8,-1
266 69 m 1,12,-1
 246 69 l 1,13,-1
 246 -13 l 1,14,-1
 266 -13 l 1,15,-1
 266 69 l 1,12,-1
263 31 m 1,16,-1
 249 46 l 1,17,-1
 157 -47 l 1,18,-1
 171 -61 l 1,19,-1
 263 31 l 1,16,-1
263 46 m 1,20,-1
 249 31 l 1,21,-1
 341 -61 l 1,22,-1
 355 -47 l 1,23,-1
 263 46 l 1,20,-1
86 210 m 1,24,-1
 98 194 l 1,25,-1
 174 251 l 1,26,-1
 287 169 l 1,27,-1
 426 276 l 1,28,-1
 414 292 l 1,29,-1
 287 195 l 1,30,-1
 174 276 l 1,31,-1
 86 210 l 1,24,-1
266 181.5 m 128,-1,33
 266 202 266 202 286.5 202 c 128,-1,34
 307 202 307 202 307 181.5 c 128,-1,35
 307 161 307 161 286.5 161 c 128,-1,32
 266 161 266 161 266 181.5 c 128,-1,33
154 263.5 m 128,-1,37
 154 284 154 284 174.5 284 c 128,-1,38
 195 284 195 284 195 263.5 c 128,-1,39
 195 243 195 243 174.5 243 c 128,-1,36
 154 243 154 243 154 263.5 c 128,-1,37
72 202.5 m 128,-1,41
 72 223 72 223 92.5 223 c 128,-1,42
 113 223 113 223 113 202.5 c 128,-1,43
 113 182 113 182 92.5 182 c 128,-1,40
 72 182 72 182 72 202.5 c 128,-1,41
399 284.5 m 128,-1,45
 399 305 399 305 419.5 305 c 128,-1,46
 440 305 440 305 440 284.5 c 128,-1,47
 440 264 440 264 419.5 264 c 128,-1,44
 399 264 399 264 399 284.5 c 128,-1,45
EndSplineSet
Validated: 5
EndChar

StartChar: uniF13A
Encoding: 61754 61754 61
Width: 512
Flags: W
LayerCount: 2
Fore
SplineSet
92 212 m 1,0,-1
 92 172 l 1,1,-1
 420 172 l 1,2,-1
 420 212 l 1,3,-1
 92 212 l 1,0,-1
EndSplineSet
Validated: 9
EndChar

StartChar: uniF13B
Encoding: 61755 61755 62
Width: 512
Flags: W
LayerCount: 2
Fore
SplineSet
28 171 m 1,0,-1
 19 153 l 1,1,-1
 403 -56 l 1,2,-1
 403 -57 l 1,3,4
 406 -58 406 -58 410 -59.5 c 128,-1,5
 414 -61 414 -61 425 -63 c 128,-1,6
 436 -65 436 -65 446 -64.5 c 128,-1,7
 456 -64 456 -64 468.5 -58 c 128,-1,8
 481 -52 481 -52 490 -40 c 1,9,-1
 473 -28 l 1,10,11
 464 -40 464 -40 448 -42 c 128,-1,12
 432 -44 432 -44 424 -42 c 128,-1,13
 416 -40 416 -40 412 -38 c 2,14,-1
 270.505 39.0117 l 1,15,16
 310.301 84.6362 310.301 84.6362 340 122 c 0,17,18
 355 140 355 140 358 157.5 c 128,-1,19
 361 175 361 175 354 188 c 128,-1,20
 347 201 347 201 340.5 208.5 c 128,-1,21
 334 216 334 216 326 222 c 0,22,23
 320 227 320 227 292 247 c 1,24,-1
 305.359 255.713 l 1,25,26
 307.68 254.356 307.68 254.356 310 253 c 1,27,-1
 315 262 l 1,28,29
 315 244 315 244 317 236 c 0,30,31
 322 222 322 222 344 210 c 128,-1,32
 366 198 366 198 416 177 c 0,33,34
 447 164 447 164 456.5 181.5 c 128,-1,35
 466 199 466 199 442 219 c 0,36,37
 431 227 431 227 378 258 c 1,38,39
 399 312 399 312 399 338 c 0,40,41
 399 363 399 363 381.5 377.5 c 128,-1,42
 364 392 364 392 343 395 c 0,43,44
 318 399 318 399 293 391.5 c 128,-1,45
 268 384 268 384 250 370.5 c 128,-1,46
 232 357 232 357 217.5 342.5 c 0,47,48
 213.756 338.756 213.756 338.756 210.511 335.311 c 1,49,-1
 114 392 l 1,50,-1
 103 374 l 1,51,-1
 196.824 319.156 l 2,52,53
 196.4 318.571 196.4 318.571 196 318 c 2,54,-1
 189 307 l 1,55,56
 171 285 171 285 173.5 262 c 128,-1,57
 176 239 176 239 185.5 224 c 128,-1,58
 195 209 195 209 208 201 c 0,59,60
 216 195 216 195 234.5 183.5 c 128,-1,61
 253 172 253 172 259 167 c 0,62,63
 266 162 266 162 266.5 158.5 c 128,-1,64
 267 155 267 155 263 150 c 2,65,-1
 204.357 75.014 l 1,66,-1
 28 171 l 1,0,-1
389 391.5 m 128,-1,68
 389 368 389 368 405.5 351.5 c 128,-1,69
 422 335 422 335 445.5 335 c 128,-1,70
 469 335 469 335 485.5 351.5 c 128,-1,71
 502 368 502 368 502 391.5 c 128,-1,72
 502 415 502 415 485.5 431.5 c 128,-1,73
 469 448 469 448 445.5 448 c 128,-1,74
 422 448 422 448 405.5 431.5 c 128,-1,67
 389 415 389 415 389 391.5 c 128,-1,68
410 392 m 128,-1,76
 410 407 410 407 420.5 417.5 c 128,-1,77
 431 428 431 428 445.5 428 c 128,-1,78
 460 428 460 428 470.5 417.5 c 128,-1,79
 481 407 481 407 481 392 c 128,-1,80
 481 377 481 377 470.5 366.5 c 128,-1,81
 460 356 460 356 445.5 356 c 128,-1,82
 431 356 431 356 420.5 366.5 c 128,-1,75
 410 377 410 377 410 392 c 128,-1,76
251.364 49.4293 m 1,83,-1
 222.229 65.287 l 1,84,85
 270.372 125.496 270.372 125.496 279 137 c 0,86,87
 298 163 298 163 271 184 c 0,88,89
 264 189 264 189 245.5 200.5 c 128,-1,90
 227 212 227 212 219 218 c 0,91,92
 210 224 210 224 203 235 c 128,-1,93
 196 246 196 246 194 262.5 c 128,-1,94
 192 279 192 279 205 296 c 0,95,96
 208 299 208 299 213 305.5 c 0,97,98
 213.975 306.768 213.975 306.768 215.294 308.36 c 1,99,-1
 285.463 267.343 l 1,100,-1
 256 247 l 1,101,-1
 268 239 l 2,102,103
 307 212 307 212 313 206 c 1,104,105
 356 173 356 173 324 135 c 2,106,-1
 251.364 49.4293 l 1,83,-1
304.2 280.281 m 1,107,-1
 229.408 324.212 l 1,108,109
 230.663 325.567 230.663 325.567 232 327 c 0,110,111
 246 342 246 342 261.5 353 c 128,-1,112
 277 364 277 364 298.5 371 c 128,-1,113
 320 378 320 378 340 375 c 0,114,115
 355 373 355 373 367 363 c 128,-1,116
 379 353 379 353 379 338 c 0,117,118
 379 327 379 327 373 307 c 128,-1,119
 367 287 367 287 362 273 c 2,120,-1
 356 258 l 1,121,-1
 353 250 l 1,122,-1
 360 245 l 1,123,124
 418 211 418 211 429 203 c 0,125,126
 436 197 436 197 439 192 c 1,127,128
 433 192 433 192 424 196 c 0,129,130
 398 207 398 207 377.5 217.5 c 128,-1,131
 357 228 357 228 347.5 234 c 128,-1,132
 338 240 338 240 337 243 c 0,133,134
 335 247 335 247 335 257 c 128,-1,135
 335 267 335 267 336 274 c 2,136,-1
 337 282 l 1,137,-1
 340 305 l 1,138,-1
 304.2 280.281 l 1,107,-1
EndSplineSet
Validated: 41
EndChar

StartChar: uniF13C
Encoding: 61756 61756 63
Width: 512
Flags: W
LayerCount: 2
Fore
SplineSet
358 120 m 128,-1,1
 358 107 358 107 348 98 c 1,2,-1
 348 69 l 2,3,4
 348 61 348 61 342 55 c 128,-1,5
 336 49 336 49 327.5 49 c 128,-1,6
 319 49 319 49 313 55 c 128,-1,7
 307 61 307 61 307 69 c 2,8,-1
 307 98 l 1,9,10
 297 107 297 107 297 120 c 128,-1,11
 297 133 297 133 306 142 c 128,-1,12
 315 151 315 151 327.5 151 c 128,-1,13
 340 151 340 151 349 142 c 128,-1,0
 358 133 358 133 358 120 c 128,-1,1
184 -23 m 2,14,15
 180 -23 180 -23 177 -20 c 128,-1,16
 174 -17 174 -17 174 -13 c 2,17,-1
 174 212 l 2,18,19
 174 217 174 217 177 220 c 128,-1,20
 180 223 180 223 184 223 c 2,21,-1
 471 223 l 2,22,23
 475 223 475 223 478 220 c 128,-1,24
 481 217 481 217 481 212 c 2,25,-1
 481 -13 l 2,26,27
 481 -17 481 -17 478 -20 c 128,-1,28
 475 -23 475 -23 471 -23 c 2,29,-1
 184 -23 l 2,14,15
184 -44 m 2,30,-1
 471 -44 l 2,31,32
 484 -44 484 -44 493 -35 c 128,-1,33
 502 -26 502 -26 502 -13 c 2,34,-1
 502 212 l 2,35,36
 502 225 502 225 493 234 c 128,-1,37
 484 243 484 243 471 243 c 2,38,-1
 440 243 l 1,39,-1
 440 305 l 2,40,41
 440 351 440 351 407 384 c 128,-1,42
 374 417 374 417 327.5 417 c 128,-1,43
 281 417 281 417 248 384 c 128,-1,44
 215 351 215 351 215 305 c 2,45,-1
 215 243 l 1,46,-1
 184 243 l 2,47,48
 172 243 172 243 163 234 c 128,-1,49
 154 225 154 225 154 212 c 2,50,-1
 154 -13 l 2,51,52
 154 -26 154 -26 163 -35 c 128,-1,53
 172 -44 172 -44 184 -44 c 2,30,-1
236 243 m 1,54,-1
 236 305 l 2,55,56
 236 343 236 343 262.5 370 c 128,-1,57
 289 397 289 397 327.5 397 c 128,-1,58
 366 397 366 397 393 370 c 128,-1,59
 420 343 420 343 420 305 c 2,60,-1
 420 243 l 1,61,-1
 236 243 l 1,54,-1
EndSplineSet
Validated: 9
EndChar

StartChar: uniF13D
Encoding: 61757 61757 64
Width: 512
Flags: W
LayerCount: 2
Fore
SplineSet
250 28 m 1,0,-1
 391 192 l 1,1,-1
 168 192 l 1,2,-1
 86 28 l 1,3,-1
 250 28 l 1,0,-1
346 172 m 1,4,-1
 241 49 l 1,5,-1
 119 49 l 1,6,-1
 180 172 l 1,7,-1
 346 172 l 1,4,-1
304 261 m 1,8,-1
 290 246 l 1,9,10
 298 238 298 238 308.5 235.5 c 128,-1,11
 319 233 319 233 349 233 c 1,12,13
 364 139 364 139 400 35 c 1,14,-1
 419 42 l 1,15,16
 402 91 402 91 389.5 142 c 128,-1,17
 377 193 377 193 373 214.5 c 128,-1,18
 369 236 369 236 369 244 c 2,19,-1
 368 253 l 1,20,-1
 358 253 l 2,21,22
 319 253 319 253 314.5 254 c 128,-1,23
 310 255 310 255 304 261 c 1,8,-1
159 234 m 1,24,-1
 141 225 l 1,25,-1
 237 34 l 1,26,-1
 255 43 l 1,27,-1
 159 234 l 1,24,-1
205 237 m 0,28,29
 205 223 205 223 167 223 c 0,30,31
 160 223 160 223 151 220.5 c 128,-1,32
 142 218 142 218 136 215.5 c 128,-1,33
 130 213 130 213 124 212.5 c 128,-1,34
 118 212 118 212 115.5 215.5 c 128,-1,35
 113 219 113 219 113 229 c 0,36,37
 113 243 113 243 126 243 c 2,38,-1
 192 243 l 2,39,40
 205 243 205 243 205 237 c 0,28,29
20 38.5 m 128,-1,42
 20 81 20 81 40 100.5 c 128,-1,43
 60 120 60 120 102.5 120 c 128,-1,44
 145 120 145 120 164.5 100.5 c 128,-1,45
 184 81 184 81 184 38.5 c 128,-1,46
 184 -4 184 -4 164.5 -24 c 128,-1,47
 145 -44 145 -44 102.5 -44 c 128,-1,48
 60 -44 60 -44 40 -24 c 128,-1,41
 20 -4 20 -4 20 38.5 c 128,-1,42
0 38.5 m 128,-1,50
 0 -11 0 -11 26.5 -37.5 c 128,-1,51
 53 -64 53 -64 102.5 -64 c 128,-1,52
 152 -64 152 -64 178.5 -37.5 c 128,-1,53
 205 -11 205 -11 205 38.5 c 128,-1,54
 205 88 205 88 178.5 114.5 c 128,-1,55
 152 141 152 141 102.5 141 c 128,-1,56
 53 141 53 141 26.5 114.5 c 128,-1,49
 0 88 0 88 0 38.5 c 128,-1,50
328 38.5 m 128,-1,58
 328 81 328 81 347.5 100.5 c 128,-1,59
 367 120 367 120 409.5 120 c 128,-1,60
 452 120 452 120 472 100.5 c 128,-1,61
 492 81 492 81 492 38.5 c 128,-1,62
 492 -4 492 -4 472 -24 c 128,-1,63
 452 -44 452 -44 409.5 -44 c 128,-1,64
 367 -44 367 -44 347.5 -24 c 128,-1,57
 328 -4 328 -4 328 38.5 c 128,-1,58
307 38.5 m 128,-1,66
 307 -11 307 -11 333.5 -37.5 c 128,-1,67
 360 -64 360 -64 409.5 -64 c 128,-1,68
 459 -64 459 -64 485.5 -37.5 c 128,-1,69
 512 -11 512 -11 512 38.5 c 128,-1,70
 512 88 512 88 485.5 114.5 c 128,-1,71
 459 141 459 141 409.5 141 c 128,-1,72
 360 141 360 141 333.5 114.5 c 128,-1,65
 307 88 307 88 307 38.5 c 128,-1,66
EndSplineSet
Validated: 5
EndChar

StartChar: uniF13E
Encoding: 61758 61758 65
Width: 512
Flags: W
LayerCount: 2
Fore
SplineSet
225 376 m 1,0,-1
 246 376 l 1,1,-1
 246 412 l 2,2,3
 246 417 246 417 251 417 c 128,-1,4
 256 417 256 417 256 412 c 2,5,-1
 256 376 l 1,6,-1
 276 376 l 1,7,-1
 276 412 l 2,8,9
 276 423 276 423 268.5 430.5 c 128,-1,10
 261 438 261 438 250.5 438 c 128,-1,11
 240 438 240 438 232.5 430.5 c 128,-1,12
 225 423 225 423 225 412 c 2,13,-1
 225 376 l 1,0,-1
276 253 m 1,14,-1
 256 253 l 1,15,-1
 256 202 l 1,16,-1
 276 202 l 1,17,-1
 276 253 l 1,14,-1
225 202 m 1,18,-1
 246 202 l 1,19,-1
 246 253 l 1,20,-1
 225 253 l 1,21,-1
 225 202 l 1,18,-1
276 79 m 1,22,-1
 256 79 l 1,23,-1
 256 -64 l 1,24,-1
 276 -64 l 1,25,-1
 276 79 l 1,22,-1
225 -64 m 1,26,-1
 246 -64 l 1,27,-1
 246 79 l 1,28,-1
 225 79 l 1,29,-1
 225 -64 l 1,26,-1
92 243 m 1,30,-1
 455 243 l 1,31,-1
 515 315 l 1,32,-1
 455 387 l 1,33,-1
 92 387 l 1,34,-1
 92 243 l 1,30,-1
446 264 m 1,35,-1
 113 264 l 1,36,-1
 113 366 l 1,37,-1
 446 366 l 1,38,-1
 488 315 l 1,39,-1
 446 264 l 1,35,-1
66 90 m 1,40,-1
 24 141 l 1,41,-1
 66 192 l 1,42,-1
 399 192 l 1,43,-1
 399 90 l 1,44,-1
 66 90 l 1,40,-1
57 69 m 1,45,-1
 420 69 l 1,46,-1
 420 212 l 1,47,-1
 57 212 l 1,48,-1
 -3 141 l 1,49,-1
 57 69 l 1,45,-1
EndSplineSet
Validated: 5
EndChar

StartChar: uniF13F
Encoding: 61759 61759 66
Width: 512
Flags: W
LayerCount: 2
Fore
SplineSet
256 394 m 1,0,1
 265 387 265 387 296.5 366 c 128,-1,2
 328 345 328 345 347 329 c 128,-1,3
 366 313 366 313 390.5 288 c 128,-1,4
 415 263 415 263 427.5 234.5 c 128,-1,5
 440 206 440 206 440 174 c 0,6,7
 440 135 440 135 412 107 c 128,-1,8
 384 79 384 79 344 79 c 0,9,10
 317 79 317 79 294 94 c 2,11,-1
 271 108 l 1,12,-1
 303 0 l 1,13,14
 276 3 276 3 256 3 c 128,-1,15
 236 3 236 3 209 0 c 1,16,-1
 241 108 l 1,17,-1
 218 94 l 2,18,19
 195 79 195 79 168 79 c 0,20,21
 128 79 128 79 100 107 c 128,-1,22
 72 135 72 135 72 174 c 0,23,24
 72 206 72 206 84 234 c 128,-1,25
 96 262 96 262 120 286.5 c 128,-1,26
 144 311 144 311 163 327 c 128,-1,27
 182 343 182 343 214 365 c 128,-1,28
 246 387 246 387 256 394 c 1,0,1
249 415 m 1,29,30
 240 407 240 407 210.5 387.5 c 128,-1,31
 181 368 181 368 157.5 349.5 c 128,-1,32
 134 331 134 331 107.5 304.5 c 128,-1,33
 81 278 81 278 66 244.5 c 128,-1,34
 51 211 51 211 51 174 c 0,35,36
 51 127 51 127 85 93 c 128,-1,37
 119 59 119 59 168 59 c 0,38,39
 187 59 187 59 207 66 c 1,40,-1
 180 -26 l 1,41,-1
 196 -23 l 2,42,43
 226 -18 226 -18 256 -18 c 0,44,45
 269 -18 269 -18 284 -19 c 128,-1,46
 299 -20 299 -20 307 -22 c 1,47,-1
 316 -23 l 1,48,-1
 332 -26 l 1,49,-1
 305 66 l 1,50,51
 325 59 325 59 344 59 c 0,52,53
 393 59 393 59 427 93 c 128,-1,54
 461 127 461 127 461 174 c 0,55,56
 461 211 461 211 446 244.5 c 128,-1,57
 431 278 431 278 404.5 304.5 c 128,-1,58
 378 331 378 331 354.5 349.5 c 128,-1,59
 331 368 331 368 301.5 387.5 c 128,-1,60
 272 407 272 407 263 415 c 1,61,-1
 256 420 l 1,62,-1
 249 415 l 1,29,30
EndSplineSet
Validated: 9
EndChar

StartChar: uniF140
Encoding: 61760 61760 67
Width: 512
Flags: W
LayerCount: 2
Fore
SplineSet
197 73 m 1,0,-1
 211 88 l 1,1,-1
 107 192 l 1,2,-1
 212 296 l 1,3,-1
 197 311 l 1,4,-1
 78 192 l 1,5,-1
 197 73 l 1,0,-1
420 182 m 1,6,-1
 420 202 l 1,7,-1
 99 202 l 1,8,-1
 99 182 l 1,9,-1
 420 182 l 1,6,-1
EndSplineSet
Validated: 5
EndChar

StartChar: uniF141
Encoding: 61761 61761 68
Width: 512
Flags: W
LayerCount: 2
Fore
SplineSet
205 192 m 0,0,1
 205 168 205 168 218.5 154.5 c 128,-1,2
 232 141 232 141 256 141 c 128,-1,3
 280 141 280 141 293.5 154.5 c 128,-1,4
 307 168 307 168 307 192 c 0,5,6
 307 203.129 307 203.129 304.097 212 c 1,7,-1
 439.028 212 l 1,8,9
 440 202.198 440 202.198 440 192 c 0,10,11
 440 176.013 440 176.013 437.611 161 c 1,12,-1
 348 161 l 2,13,14
 323 161 323 161 305 143 c 128,-1,15
 287 125 287 125 287 100 c 2,16,-1
 287 10.3894 l 1,17,18
 271.987 8 271.987 8 256 8 c 0,19,20
 180 8 180 8 126 62 c 0,21,22
 91.0958 96.9042 91.0958 96.9042 78.7528 141 c 1,23,-1
 164 141 l 2,24,25
 182 141 182 141 193.5 129 c 128,-1,26
 205 117 205 117 205 100 c 2,27,-1
 205 18 l 1,28,-1
 225 18 l 1,29,-1
 225 100 l 2,30,31
 225 125 225 125 207.5 143 c 128,-1,32
 190 161 190 161 164 161 c 2,33,-1
 74.3894 161 l 1,34,35
 72 176.013 72 176.013 72 192 c 0,36,37
 72 202.198 72 202.198 72.9723 212 c 1,38,-1
 207.903 212 l 1,39,40
 205 203.129 205 203.129 205 192 c 0,0,1
160 233 m 1,41,42
 164 235 164 235 182.5 243.5 c 128,-1,43
 201 252 201 252 208 254.5 c 128,-1,44
 215 257 215 257 229 260.5 c 128,-1,45
 243 264 243 264 256 264 c 0,46,47
 267 264 267 264 276 262.5 c 128,-1,48
 285 261 285 261 296 257.5 c 128,-1,49
 307 254 307 254 312.5 251.5 c 128,-1,50
 318 249 318 249 333 242.5 c 128,-1,51
 348 236 348 236 355 233 c 1,52,-1
 289.534 233 l 1,53,54
 276.656 243 276.656 243 256 243 c 128,-1,55
 235.344 243 235.344 243 222.466 233 c 1,56,-1
 160 233 l 1,41,42
256 449 m 128,-1,58
 150 449 150 449 74.5 373.5 c 128,-1,59
 -1 298 -1 298 -1 192 c 128,-1,60
 -1 86 -1 86 74.5 10.5 c 128,-1,61
 150 -65 150 -65 256 -65 c 128,-1,62
 362 -65 362 -65 437.5 10.5 c 128,-1,63
 513 86 513 86 513 192 c 128,-1,64
 513 298 513 298 437.5 373.5 c 128,-1,57
 362 449 362 449 256 449 c 128,-1,58
256 427 m 128,-1,66
 353 427 353 427 422 358 c 128,-1,67
 491 289 491 289 491 192 c 128,-1,68
 491 95 491 95 422 26 c 128,-1,69
 353 -43 353 -43 256 -43 c 128,-1,70
 159 -43 159 -43 90 26 c 128,-1,71
 21 95 21 95 21 192 c 128,-1,72
 21 289 21 289 90 358 c 128,-1,65
 159 427 159 427 256 427 c 128,-1,66
415 141 m 1,73,-1
 307 41 l 1,74,-1
 307 100 l 2,75,76
 307 116 307 116 319.5 128.5 c 128,-1,77
 332 141 332 141 348 141 c 2,78,-1
 415 141 l 1,73,-1
467 161 m 1,79,-1
 458.89 161 l 1,80,81
 461 176.06 461 176.06 461 192 c 0,82,83
 461 277 461 277 401 337 c 128,-1,84
 341 397 341 397 256 397 c 128,-1,85
 171 397 171 397 111 337 c 128,-1,86
 51 277 51 277 51 192 c 128,-1,87
 51 107 51 107 111 47 c 128,-1,88
 171 -13 171 -13 256 -13 c 128,-1,89
 341 -13 341 -13 401 47 c 0,90,91
 446.435 92.4352 446.435 92.4352 457.464 152.206 c 1,92,-1
 467 161 l 1,79,-1
229.007 212 m 1,93,-1
 282.993 212 l 1,94,95
 287 204.862 287 204.862 287 192 c 0,96,97
 287 175 287 175 280 168 c 128,-1,98
 273 161 273 161 256 161 c 128,-1,99
 239 161 239 161 232 168 c 128,-1,100
 225 175 225 175 225 192 c 0,101,102
 225 204.862 225 204.862 229.007 212 c 1,93,-1
309.058 15.3427 m 1,103,-1
 427.877 124.92 l 1,104,105
 414.414 90.4145 414.414 90.4145 386 62 c 0,106,107
 351.912 27.9124 351.912 27.9124 309.058 15.3427 c 1,103,-1
435.655 233.347 m 1,108,109
 399.35 235.975 399.35 235.975 349 258.5 c 0,110,111
 292 284 292 284 256 284 c 128,-1,112
 220 284 220 284 164.5 258.5 c 0,113,114
 115.062 235.785 115.062 235.785 76.3358 233.304 c 1,115,116
 87.3014 283.301 87.3014 283.301 126 322 c 0,117,118
 180 376 180 376 256 376 c 128,-1,119
 332 376 332 376 386 322 c 0,120,121
 424.682 283.318 424.682 283.318 435.655 233.347 c 1,108,109
EndSplineSet
Validated: 9
EndChar

StartChar: uniF142
Encoding: 61762 61762 69
Width: 512
Flags: W
LayerCount: 2
Fore
SplineSet
379 -23 m 128,-1,1
 379 -15 379 -15 385.5 -9 c 128,-1,2
 392 -3 392 -3 399.5 -3 c 128,-1,3
 407 -3 407 -3 413.5 -9 c 128,-1,4
 420 -15 420 -15 420 -23 c 128,-1,5
 420 -31 420 -31 413.5 -37.5 c 128,-1,6
 407 -44 407 -44 399.5 -44 c 128,-1,7
 392 -44 392 -44 385.5 -37.5 c 128,-1,0
 379 -31 379 -31 379 -23 c 128,-1,1
358 -23 m 128,-1,9
 358 -36 358 -36 372.5 -50 c 128,-1,10
 387 -64 387 -64 399.5 -64 c 128,-1,11
 412 -64 412 -64 426 -50 c 128,-1,12
 440 -36 440 -36 440 -23 c 128,-1,13
 440 -10 440 -10 426 4 c 128,-1,14
 412 18 412 18 399.5 18 c 128,-1,15
 387 18 387 18 372.5 4 c 128,-1,8
 358 -10 358 -10 358 -23 c 128,-1,9
246 -23 m 128,-1,17
 246 -15 246 -15 252 -9 c 128,-1,18
 258 -3 258 -3 266 -3 c 128,-1,19
 274 -3 274 -3 280.5 -9 c 128,-1,20
 287 -15 287 -15 287 -23 c 128,-1,21
 287 -31 287 -31 280.5 -37.5 c 128,-1,22
 274 -44 274 -44 266 -44 c 128,-1,23
 258 -44 258 -44 252 -37.5 c 128,-1,16
 246 -31 246 -31 246 -23 c 128,-1,17
225 -23 m 128,-1,25
 225 -36 225 -36 239.5 -50 c 128,-1,26
 254 -64 254 -64 266.5 -64 c 128,-1,27
 279 -64 279 -64 293 -50 c 128,-1,28
 307 -36 307 -36 307 -23 c 128,-1,29
 307 -10 307 -10 293 4 c 128,-1,30
 279 18 279 18 266.5 18 c 128,-1,31
 254 18 254 18 239.5 4 c 128,-1,24
 225 -10 225 -10 225 -23 c 128,-1,25
0 407.5 m 128,-1,33
 0 428 0 428 20.5 428 c 128,-1,34
 41 428 41 428 41 407.5 c 128,-1,35
 41 387 41 387 20.5 387 c 128,-1,32
 0 387 0 387 0 407.5 c 128,-1,33
420 -2 m 1,36,-1
 420 18 l 1,37,-1
 263 18 l 2,38,39
 244 18 244 18 239 24 c 0,40,41
 232 32 232 32 227 51 c 2,42,-1
 145 382 l 1,43,44
 138 405 138 405 126 416 c 0,45,46
 121 420 121 420 108.5 423.5 c 128,-1,47
 96 427 96 427 89 427 c 2,48,-1
 20 427 l 1,49,-1
 20 407 l 1,50,-1
 89 407 l 2,51,52
 105 407 105 407 112 401 c 0,53,54
 120 394 120 394 125 377 c 2,55,-1
 207 46 l 2,56,57
 213 22 213 22 223 11 c 0,58,59
 228 6 228 6 241 2 c 128,-1,60
 254 -2 254 -2 263 -2 c 2,61,-1
 420 -2 l 1,36,-1
164 294 m 1,62,-1
 164 274 l 1,63,-1
 467 274 l 1,64,-1
 401 100 l 1,65,-1
 211 100 l 1,66,-1
 211 79 l 1,67,-1
 415 79 l 1,68,-1
 496 294 l 1,69,-1
 164 294 l 1,62,-1
284 240 m 1,70,-1
 269 226 l 1,71,-1
 351 144 l 1,72,-1
 366 158 l 1,73,-1
 284 240 l 1,70,-1
366 226 m 1,74,-1
 351 240 l 1,75,-1
 269 158 l 1,76,-1
 284 144 l 1,77,-1
 366 226 l 1,74,-1
EndSplineSet
Validated: 5
EndChar

StartChar: uniF143
Encoding: 61763 61763 70
Width: 512
Flags: W
LayerCount: 2
Fore
SplineSet
358 151 m 128,-1,1
 358 161 358 161 368.5 161 c 128,-1,2
 378.863 161 378.863 161 378.998 151.26 c 1,3,-1
 399.568 172 l 1,4,-1
 399.5 172 l 2,5,6
 389 172 389 172 389 182 c 128,-1,7
 389 192 389 192 399.5 192 c 0,8,9
 409.728 192 409.728 192 409.993 182.512 c 1,10,-1
 429.333 202.012 l 1,11,12
 420 202.356 420 202.356 420 212.5 c 0,13,14
 420 223 420 223 430 223 c 128,-1,15
 439.873 223 439.873 223 439.998 212.766 c 1,16,-1
 460.087 233.022 l 1,17,18
 451 233.467 451 233.467 451 243 c 0,19,20
 451 253 451 253 461 253 c 0,21,22
 469.912 253 469.912 253 470.882 245.058 c 1,23,24
 472.971 250.029 472.971 250.029 468 255 c 2,25,-1
 341 383 l 2,26,27
 334 391 334 391 327 383 c 2,28,-1
 199.484 254.549 l 1,29,30
 202.767 251.49 202.767 251.49 206.05 248.43 c 1,31,32
 208.24 253 208.24 253 215 253 c 0,33,34
 225 253 225 253 225 243 c 0,35,36
 225 236.752 225 236.752 221.096 234.407 c 1,37,-1
 237.524 219.097 l 1,38,39
 239.903 223 239.903 223 246 223 c 0,40,41
 256 223 256 223 256 212.5 c 0,42,43
 256 207.029 256 207.029 253.285 204.408 c 1,44,-1
 268.96 189.8 l 1,45,46
 271.575 192 271.575 192 276.5 192 c 0,47,48
 287 192 287 192 287 182 c 0,49,50
 287 177.471 287 177.471 284.846 174.993 c 1,51,-1
 301.194 159.758 l 1,52,53
 303.476 161 303.476 161 307 161 c 0,54,55
 317 161 317 161 317 151 c 0,56,57
 317 147.983 317 147.983 316.09 145.876 c 1,58,-1
 333.012 130.104 l 1,59,60
 335.08 131 335.08 131 338 131 c 0,61,62
 348 131 348 131 348 120.5 c 0,63,64
 348 120.246 348 120.246 347.994 119.998 c 2,65,-1
 368.825 141.002 l 2,66,67
 368.664 141 368.664 141 368.5 141 c 0,68,0
 358 141 358 141 358 151 c 128,-1,1
358 212.5 m 128,-1,70
 358 223 358 223 368.5 223 c 128,-1,71
 379 223 379 223 379 212.5 c 128,-1,72
 379 202 379 202 368.5 202 c 128,-1,69
 358 202 358 202 358 212.5 c 128,-1,70
297 212.5 m 128,-1,74
 297 223 297 223 307 223 c 128,-1,75
 317 223 317 223 317 212.5 c 128,-1,76
 317 202 317 202 307 202 c 128,-1,73
 297 202 297 202 297 212.5 c 128,-1,74
328 182 m 128,-1,78
 328 192 328 192 338 192 c 128,-1,79
 348 192 348 192 348 182 c 128,-1,80
 348 172 348 172 338 172 c 128,-1,77
 328 172 328 172 328 182 c 128,-1,78
420 274 m 128,-1,82
 420 284 420 284 430 284 c 128,-1,83
 440 284 440 284 440 274 c 128,-1,84
 440 264 440 264 430 264 c 128,-1,81
 420 264 420 264 420 274 c 128,-1,82
389 243 m 128,-1,86
 389 253 389 253 399.5 253 c 128,-1,87
 410 253 410 253 410 243 c 128,-1,88
 410 233 410 233 399.5 233 c 128,-1,85
 389 233 389 233 389 243 c 128,-1,86
358 274 m 128,-1,90
 358 284 358 284 368.5 284 c 128,-1,91
 379 284 379 284 379 274 c 128,-1,92
 379 264 379 264 368.5 264 c 128,-1,89
 358 264 358 264 358 274 c 128,-1,90
297 274 m 128,-1,94
 297 284 297 284 307 284 c 128,-1,95
 317 284 317 284 317 274 c 128,-1,96
 317 264 317 264 307 264 c 128,-1,93
 297 264 297 264 297 274 c 128,-1,94
328 243 m 128,-1,98
 328 253 328 253 338 253 c 128,-1,99
 348 253 348 253 348 243 c 128,-1,100
 348 233 348 233 338 233 c 128,-1,97
 328 233 328 233 328 243 c 128,-1,98
358 335.5 m 128,-1,102
 358 346 358 346 368.5 346 c 128,-1,103
 379 346 379 346 379 335.5 c 128,-1,104
 379 325 379 325 368.5 325 c 128,-1,101
 358 325 358 325 358 335.5 c 128,-1,102
297 335.5 m 128,-1,106
 297 346 297 346 307 346 c 128,-1,107
 317 346 317 346 317 335.5 c 128,-1,108
 317 325 317 325 307 325 c 128,-1,105
 297 325 297 325 297 335.5 c 128,-1,106
266 243 m 128,-1,110
 266 253 266 253 276.5 253 c 128,-1,111
 287 253 287 253 287 243 c 128,-1,112
 287 233 287 233 276.5 233 c 128,-1,109
 266 233 266 233 266 243 c 128,-1,110
236 274 m 128,-1,114
 236 284 236 284 246 284 c 128,-1,115
 256 284 256 284 256 274 c 128,-1,116
 256 264 256 264 246 264 c 128,-1,113
 236 264 236 264 236 274 c 128,-1,114
266 304.5 m 128,-1,118
 266 315 266 315 276.5 315 c 128,-1,119
 287 315 287 315 287 304.5 c 128,-1,120
 287 294 287 294 276.5 294 c 128,-1,117
 266 294 266 294 266 304.5 c 128,-1,118
389 304.5 m 128,-1,122
 389 315 389 315 399.5 315 c 128,-1,123
 410 315 410 315 410 304.5 c 128,-1,124
 410 294 410 294 399.5 294 c 128,-1,121
 389 294 389 294 389 304.5 c 128,-1,122
328 304.5 m 128,-1,126
 328 315 328 315 338 315 c 128,-1,127
 348 315 348 315 348 304.5 c 128,-1,128
 348 294 348 294 338 294 c 128,-1,125
 328 294 328 294 328 304.5 c 128,-1,126
328 366 m 128,-1,130
 328 376 328 376 338 376 c 128,-1,131
 348 376 348 376 348 366 c 128,-1,132
 348 356 348 356 338 356 c 128,-1,129
 328 356 328 356 328 366 c 128,-1,130
141 -23 m 1,133,-1
 40 79 l 2,134,135
 31 88 31 88 31 101 c 128,-1,136
 31 114 31 114 40 123 c 2,137,-1
 312 398 l 2,138,139
 321 407 321 407 334 407 c 128,-1,140
 347 407 347 407 356 398 c 2,141,-1
 483 270 l 2,142,143
 492 261 492 261 492 248 c 128,-1,144
 492 235 492 235 483 226 c 2,145,-1
 256.831 -2 l 1,146,-1
 420 -2 l 1,147,-1
 420 -23 l 1,148,-1
 236 -23 l 1,149,-1
 177 -23 l 1,150,-1
 141 -23 l 1,133,-1
185.021 239.981 m 1,151,-1
 54 108 l 2,152,153
 47 101 47 101 54 93 c 2,154,-1
 149 -2 l 1,155,-1
 177 -2 l 1,156,-1
 227 -2 l 1,157,-1
 331.551 103.419 l 1,158,-1
 185.021 239.981 l 1,151,-1
EndSplineSet
Validated: 524289
EndChar

StartChar: uniF144
Encoding: 61764 61764 71
Width: 512
Flags: W
LayerCount: 2
Fore
SplineSet
471 223 m 1,0,-1
 471 161 l 1,1,-1
 440 161 l 1,2,-1
 440 110 l 2,3,4
 440 97 440 97 431 88 c 128,-1,5
 422 79 422 79 410 79 c 2,6,-1
 82 79 l 2,7,8
 69 79 69 79 60 88 c 128,-1,9
 51 97 51 97 51 110 c 2,10,-1
 51 274 l 2,11,12
 51 287 51 287 60 296 c 128,-1,13
 69 305 69 305 82 305 c 2,14,-1
 410 305 l 2,15,16
 422 305 422 305 431 296 c 128,-1,17
 440 287 440 287 440 274 c 2,18,-1
 440 223 l 1,19,-1
 471 223 l 1,0,-1
492 243 m 1,20,-1
 461 243 l 1,21,-1
 461 274 l 2,22,23
 461 295 461 295 446 310 c 128,-1,24
 431 325 431 325 410 325 c 2,25,-1
 82 325 l 2,26,27
 61 325 61 325 46 310 c 128,-1,28
 31 295 31 295 31 274 c 2,29,-1
 31 110 l 2,30,31
 31 89 31 89 46 74 c 128,-1,32
 61 59 61 59 82 59 c 2,33,-1
 410 59 l 2,34,35
 431 59 431 59 446 74 c 128,-1,36
 461 89 461 89 461 110 c 2,37,-1
 461 141 l 1,38,-1
 492 141 l 1,39,-1
 492 243 l 1,20,-1
143 182 m 1,40,-1
 256 233 l 1,41,-1
 256 192 l 1,42,-1
 348 202 l 1,43,-1
 236 151 l 1,44,-1
 236 192 l 1,45,-1
 143 182 l 1,40,-1
EndSplineSet
Validated: 9
EndChar

StartChar: uniF145
Encoding: 61765 61765 72
Width: 512
Flags: W
LayerCount: 2
Fore
SplineSet
143 202.5 m 128,-1,1
 143 241 143 241 180 278 c 128,-1,2
 217 315 217 315 256 315 c 128,-1,3
 295 315 295 315 332 278 c 128,-1,4
 369 241 369 241 369 202.5 c 128,-1,5
 369 164 369 164 332 127 c 128,-1,6
 295 90 295 90 256 90 c 128,-1,7
 217 90 217 90 180 127 c 128,-1,0
 143 164 143 164 143 202.5 c 128,-1,1
123 202.5 m 128,-1,9
 123 159 123 159 168 114 c 128,-1,10
 213 69 213 69 256 69 c 128,-1,11
 299 69 299 69 344 114 c 128,-1,12
 389 159 389 159 389 202.5 c 128,-1,13
 389 246 389 246 344 290.5 c 128,-1,14
 299 335 299 335 256 335 c 128,-1,15
 213 335 213 335 168 290.5 c 128,-1,8
 123 246 123 246 123 202.5 c 128,-1,9
184 202 m 128,-1,17
 184 227 184 227 207.5 250.5 c 128,-1,18
 231 274 231 274 256 274 c 128,-1,19
 281 274 281 274 304.5 250.5 c 128,-1,20
 328 227 328 227 328 202 c 128,-1,21
 328 177 328 177 304.5 154 c 128,-1,22
 281 131 281 131 256 131 c 128,-1,23
 231 131 231 131 207.5 154 c 128,-1,16
 184 177 184 177 184 202 c 128,-1,17
164 202.5 m 128,-1,25
 164 173 164 173 195 141.5 c 128,-1,26
 226 110 226 110 256 110 c 128,-1,27
 286 110 286 110 317 141.5 c 128,-1,28
 348 173 348 173 348 202.5 c 128,-1,29
 348 232 348 232 317 263 c 128,-1,30
 286 294 286 294 256 294 c 128,-1,31
 226 294 226 294 195 263 c 128,-1,24
 164 232 164 232 164 202.5 c 128,-1,25
481 335 m 2,32,33
 486 335 486 335 489 332 c 128,-1,34
 492 329 492 329 492 325 c 2,35,-1
 492 49 l 1,36,37
 491 44 491 44 488 41 c 128,-1,38
 485 38 485 38 481 38 c 2,39,-1
 31 38 l 2,40,41
 26 38 26 38 23 41 c 128,-1,42
 20 44 20 44 20 49 c 2,43,-1
 20 325 l 2,44,45
 20 329 20 329 23 332 c 128,-1,46
 26 335 26 335 31 335 c 2,47,-1
 133 335 l 2,48,49
 139 335 139 335 148 344 c 128,-1,50
 157 353 157 353 162 361 c 0,51,52
 170 373 170 373 175 376 c 1,53,-1
 337 376 l 1,54,55
 343 372 343 372 350 361 c 0,56,57
 355 353 355 353 364 344 c 128,-1,58
 373 335 373 335 379 335 c 2,59,-1
 481 335 l 2,32,33
481 356 m 2,60,-1
 380 356 l 1,61,62
 375 359 375 359 367 372 c 0,63,64
 362 380 362 380 353 388.5 c 128,-1,65
 344 397 344 397 338 397 c 2,66,-1
 174 397 l 2,67,68
 168 397 168 397 159 388.5 c 128,-1,69
 150 380 150 380 145 372 c 0,70,71
 138 360 138 360 132 356 c 1,72,-1
 31 356 l 2,73,74
 18 356 18 356 9 347 c 128,-1,75
 0 338 0 338 0 325 c 2,76,-1
 0 49 l 2,77,78
 0 36 0 36 9 27 c 128,-1,79
 18 18 18 18 31 18 c 2,80,-1
 481 18 l 2,81,82
 494 18 494 18 503 27 c 128,-1,83
 512 36 512 36 512 49 c 2,84,-1
 512 325 l 2,85,86
 512 338 512 338 503 347 c 128,-1,87
 494 356 494 356 481 356 c 2,60,-1
92 305 m 2,88,89
 101 305 101 305 107 299 c 128,-1,90
 113 293 113 293 113 284.5 c 128,-1,91
 113 276 113 276 107 270 c 128,-1,92
 101 264 101 264 92 264 c 2,93,-1
 82 264 l 2,94,95
 73 264 73 264 67 270 c 128,-1,96
 61 276 61 276 61 284.5 c 128,-1,97
 61 293 61 293 67 299 c 128,-1,98
 73 305 73 305 82 305 c 2,99,-1
 92 305 l 2,88,89
EndSplineSet
Validated: 9
EndChar

StartChar: uniF146
Encoding: 61766 61766 73
Width: 512
Flags: W
LayerCount: 2
Fore
SplineSet
246 182 m 1,0,-1
 154 182 l 1,1,-1
 154 161 l 1,2,-1
 256 161 l 1,3,-1
 256 162 l 1,4,-1
 266 162 l 1,5,-1
 266 335 l 1,6,-1
 246 335 l 1,7,-1
 246 182 l 1,0,-1
487 322 m 1,8,-1
 386 423 l 1,9,10
 401 428 401 428 413 428 c 1,11,12
 424 427 424 427 442.5 419.5 c 128,-1,13
 461 412 461 412 468.5 404.5 c 128,-1,14
 476 397 476 397 484 378.5 c 128,-1,15
 492 360 492 360 492 349 c 0,16,17
 491 336 491 336 487 322 c 1,8,-1
499 300 m 2,18,19
 503 307 503 307 507.5 323.5 c 128,-1,20
 512 340 512 340 512 349 c 0,21,22
 512 362 512 362 502.5 385.5 c 128,-1,23
 493 409 493 409 483 419 c 128,-1,24
 473 429 473 429 449.5 438.5 c 128,-1,25
 426 448 426 448 413 448 c 0,26,27
 404 448 404 448 387.5 443.5 c 128,-1,28
 371 439 371 439 364 435 c 2,29,-1
 352 428 l 1,30,-1
 492 288 l 1,31,-1
 499 300 l 2,18,19
13 300 m 2,32,-1
 20 288 l 1,33,-1
 160 428 l 1,34,-1
 148 435 l 2,35,36
 141 439 141 439 124.5 443.5 c 128,-1,37
 108 448 108 448 99 448 c 0,38,39
 86 448 86 448 62.5 438.5 c 128,-1,40
 39 429 39 429 29 419 c 128,-1,41
 19 409 19 409 9.5 385.5 c 128,-1,42
 0 362 0 362 0 349 c 0,43,44
 0 340 0 340 4.5 323.5 c 128,-1,45
 9 307 9 307 13 300 c 2,32,-1
25 322 m 1,46,47
 20 336 20 336 20 349 c 0,48,49
 20 360 20 360 28 378.5 c 128,-1,50
 36 397 36 397 43.5 404.5 c 128,-1,51
 51 412 51 412 69.5 420 c 128,-1,52
 88 428 88 428 99 428 c 0,53,54
 112 427 112 427 126 423 c 1,55,-1
 25 322 l 1,46,47
19 174 m 0,56,57
 19 273 19 273 88.5 342.5 c 128,-1,58
 158 412 158 412 257 412 c 128,-1,59
 356 412 356 412 425.5 342.5 c 128,-1,60
 495 273 495 273 495 174 c 0,61,62
 495 75.3253 495 75.3253 425.956 5.95706 c 1,63,-1
 478 -47 l 1,64,-1
 464 -61 l 1,65,-1
 410.983 -7.98275 l 1,66,67
 345.88 -64 345.88 -64 257 -64 c 0,68,69
 167.387 -64 167.387 -64 101.945 -7.05497 c 1,70,-1
 48 -61 l 1,71,-1
 34 -47 l 1,72,-1
 87.0403 6.97078 l 1,73,74
 19 76.0452 19 76.0452 19 174 c 0,56,57
42 173 m 128,-1,76
 42 84 42 84 105 21 c 128,-1,77
 168 -42 168 -42 257 -42 c 128,-1,78
 346 -42 346 -42 409 21 c 128,-1,79
 472 84 472 84 472 173 c 128,-1,80
 472 262 472 262 409 325 c 128,-1,81
 346 388 346 388 257 388 c 128,-1,82
 168 388 168 388 105 325 c 128,-1,75
 42 262 42 262 42 173 c 128,-1,76
EndSplineSet
Validated: 524297
EndChar

StartChar: uniF147
Encoding: 61767 61767 74
Width: 512
Flags: W
LayerCount: 2
Fore
SplineSet
245 268 m 1,0,-1
 230 282 l 1,1,-1
 17 47 l 2,2,3
 9 37 9 37 10.5 25.5 c 128,-1,4
 12 14 12 14 21 5 c 2,5,-1
 69 -43 l 2,6,7
 77 -52 77 -52 89 -53.5 c 128,-1,8
 101 -55 101 -55 111 -47 c 2,9,-1
 346 166 l 1,10,-1
 332 181 l 1,11,-1
 98 -32 l 2,12,13
 92 -37 92 -37 83 -28 c 2,14,-1
 36 19 l 2,15,16
 27 28 27 28 32 34 c 2,17,-1
 245 268 l 1,0,-1
370 169 m 1,18,-1
 495 239 l 1,19,20
 507 251 507 251 497 273 c 128,-1,21
 487 295 487 295 461.5 323 c 128,-1,22
 436 351 436 351 410 375.5 c 128,-1,23
 384 400 384 400 363 416 c 0,24,25
 353 423 353 423 347.5 426.5 c 128,-1,26
 342 430 342 430 332 435 c 128,-1,27
 322 440 322 440 315 439 c 128,-1,28
 308 438 308 438 303 431 c 1,29,-1
 303 430 l 1,30,-1
 233 306 l 1,31,32
 224 293 224 293 227 277 c 128,-1,33
 230 261 230 261 242 249 c 2,34,-1
 313 178 l 2,35,36
 325 166 325 166 341 163 c 128,-1,37
 357 160 357 160 370 169 c 1,18,-1
319 417 m 1,38,39
 342 412 342 412 408.5 346.5 c 128,-1,40
 475 281 475 281 481 255 c 1,41,-1
 359 186 l 1,42,-1
 358 186 l 1,43,44
 354 182 354 182 344.5 183.5 c 128,-1,45
 335 185 335 185 327 192 c 2,46,-1
 256 263 l 2,47,48
 249 271 249 271 247.5 280.5 c 128,-1,49
 246 290 246 290 250 294 c 1,50,-1
 250 295 l 1,51,-1
 319 417 l 1,38,39
213 134 m 0,52,53
 211 132 211 132 206.5 128 c 128,-1,54
 202 124 202 124 197 119 c 128,-1,55
 192 114 192 114 191 112 c 0,56,57
 184 105 184 105 176.5 112.5 c 128,-1,58
 169 120 169 120 176 127 c 0,59,60
 178 129 178 129 182.5 133 c 128,-1,61
 187 137 187 137 192 142 c 128,-1,62
 197 147 197 147 198 149 c 0,63,64
 205 156 205 156 212.5 148.5 c 128,-1,65
 220 141 220 141 213 134 c 0,52,53
227 120 m 0,66,67
 236 129 236 129 236 141.5 c 128,-1,68
 236 154 236 154 227 163 c 128,-1,69
 218 172 218 172 205.5 172 c 128,-1,70
 193 172 193 172 184 163 c 0,71,72
 162 142 162 142 162 141 c 0,73,74
 153 132 153 132 153 119.5 c 128,-1,75
 153 107 153 107 162 98 c 128,-1,76
 171 89 171 89 183.5 89 c 128,-1,77
 196 89 196 89 205 98 c 0,78,79
 225 118 225 118 227 120 c 0,66,67
EndSplineSet
Validated: 37
EndChar

StartChar: uniF148
Encoding: 61768 61768 75
Width: 512
Flags: W
LayerCount: 2
Fore
SplineSet
317 115 m 0,0,1
 322 99 322 99 345.5 87.5 c 128,-1,2
 369 76 369 76 393.5 68 c 128,-1,3
 418 60 418 60 438.5 39.5 c 128,-1,4
 459 19 459 19 461 -13 c 1,5,-1
 72 -13 l 1,6,7
 74 19 74 19 94.5 39.5 c 128,-1,8
 115 60 115 60 139.5 68 c 128,-1,9
 164 76 164 76 187.5 87.5 c 128,-1,10
 211 99 211 99 216 115 c 1,11,12
 217 123 217 123 217 128 c 1,13,14
 144 136 144 136 144 155 c 1,15,-1
 144 155 l 1,16,-1
 144 155 l 1,17,18
 153 165 153 165 155 194.5 c 128,-1,19
 157 224 157 224 158 257 c 128,-1,20
 159 290 159 290 165.5 323 c 128,-1,21
 172 356 172 356 197.5 379.5 c 128,-1,22
 223 403 223 403 267 406 c 1,23,24
 291 406 291 406 305 394 c 1,25,26
 337 396 337 396 354.5 374.5 c 128,-1,27
 372 353 372 353 376 320.5 c 128,-1,28
 380 288 380 288 380 254.5 c 128,-1,29
 380 221 380 221 381.5 192.5 c 128,-1,30
 383 164 383 164 392 156 c 0,31,32
 392 155 392 155 392 155 c 2,33,34
 392 146 392 146 371 138.5 c 128,-1,35
 350 131 350 131 316 127 c 1,36,37
 316 119 316 119 317 115 c 0,0,1
EndSplineSet
Validated: 37
EndChar

StartChar: uniF149
Encoding: 61769 61769 76
Width: 512
Flags: W
LayerCount: 2
Fore
SplineSet
420 284 m 1,0,-1
 420 305 l 1,1,-1
 297 305 l 1,2,-1
 297 428 l 1,3,-1
 276 428 l 1,4,-1
 276 284 l 1,5,-1
 420 284 l 1,0,-1
72 -64 m 1,6,-1
 440 -64 l 1,7,-1
 440 299 l 1,8,-1
 291 448 l 1,9,-1
 72 448 l 1,10,-1
 72 -64 l 1,6,-1
420 -44 m 1,11,-1
 92 -44 l 1,12,-1
 92 428 l 1,13,-1
 282 428 l 1,14,-1
 420 290 l 1,15,-1
 420 -44 l 1,11,-1
EndSplineSet
Validated: 5
EndChar

StartChar: uniF14A
Encoding: 61770 61770 77
Width: 512
Flags: W
LayerCount: 2
Fore
SplineSet
195 38 m 1,0,-1
 317 38 l 1,1,-1
 317 8 l 2,2,3
 317 3 317 3 314 0 c 128,-1,4
 311 -3 311 -3 307 -3 c 2,5,-1
 205 -3 l 2,6,7
 201 -3 201 -3 198 0 c 128,-1,8
 195 3 195 3 195 8 c 2,9,-1
 195 38 l 1,0,-1
174 59 m 1,10,-1
 174 8 l 2,11,12
 174 -5 174 -5 183 -14 c 128,-1,13
 192 -23 192 -23 205 -23 c 2,14,-1
 307 -23 l 2,15,16
 320 -23 320 -23 329 -14 c 128,-1,17
 338 -5 338 -5 338 8 c 2,18,-1
 338 59 l 1,19,-1
 174 59 l 1,10,-1
317 49 m 1,20,-1
 338 49 l 1,21,-1
 338 110 l 2,22,23
 338 124 338 124 349 138 c 128,-1,24
 360 152 360 152 373.5 164 c 128,-1,25
 387 176 387 176 398.5 202.5 c 128,-1,26
 410 229 410 229 410 264 c 0,27,28
 410 327 410 327 365 372 c 128,-1,29
 320 417 320 417 256 417 c 128,-1,30
 192 417 192 417 147 372 c 128,-1,31
 102 327 102 327 102 264 c 0,32,33
 102 228 102 228 113.5 200.5 c 128,-1,34
 125 173 125 173 138.5 159.5 c 128,-1,35
 152 146 152 146 163 133 c 128,-1,36
 174 120 174 120 174 110 c 2,37,-1
 174 49 l 1,38,-1
 195 49 l 1,39,-1
 195 110 l 2,40,41
 195 129 195 129 183.5 145.5 c 128,-1,42
 172 162 172 162 158.5 173.5 c 128,-1,43
 145 185 145 185 134 208.5 c 128,-1,44
 123 232 123 232 123 264 c 0,45,46
 123 319 123 319 162 358 c 128,-1,47
 201 397 201 397 256 397 c 128,-1,48
 311 397 311 397 350 358 c 128,-1,49
 389 319 389 319 389 264 c 0,50,51
 389 233 389 233 378 211 c 128,-1,52
 367 189 367 189 353.5 178 c 128,-1,53
 340 167 340 167 328.5 149.5 c 128,-1,54
 317 132 317 132 317 110 c 2,55,-1
 317 49 l 1,20,-1
297 -13 m 1,56,-1
 276 -13 l 1,57,58
 276 -21 276 -21 270 -27 c 128,-1,59
 264 -33 264 -33 256 -33 c 128,-1,60
 248 -33 248 -33 242 -27 c 128,-1,61
 236 -21 236 -21 236 -13 c 1,62,-1
 215 -13 l 1,63,64
 215 -30 215 -30 227 -42 c 128,-1,65
 239 -54 239 -54 256 -54 c 128,-1,66
 273 -54 273 -54 285 -42 c 128,-1,67
 297 -30 297 -30 297 -13 c 1,56,-1
266 212 m 1,68,-1
 246 212 l 1,69,-1
 246 79 l 1,70,-1
 266 79 l 1,71,-1
 266 212 l 1,68,-1
222 261 m 1,72,-1
 208 246 l 1,73,-1
 256 198 l 1,74,-1
 304 246 l 1,75,-1
 290 261 l 1,76,-1
 256 227 l 1,77,-1
 222 261 l 1,72,-1
EndSplineSet
Validated: 5
EndChar

StartChar: uniF14B
Encoding: 61771 61771 78
Width: 512
Flags: W
LayerCount: 2
Fore
SplineSet
205 268 m 1,0,-1
 205 182 l 1,1,-1
 215 182 l 2,2,3
 406 182 406 182 481 300 c 1,4,5
 474 272 474 272 463 247.5 c 128,-1,6
 452 223 452 223 431 194.5 c 128,-1,7
 410 166 410 166 382.5 146 c 128,-1,8
 355 126 355 126 311.5 113 c 128,-1,9
 268 100 268 100 215 100 c 2,10,-1
 205 100 l 1,11,-1
 205 14 l 1,12,-1
 37 141 l 1,13,-1
 205 268 l 1,0,-1
225 309 m 1,14,-1
 4 141 l 1,15,-1
 225 -27 l 1,16,-1
 225 79 l 1,17,18
 286 81 286 81 334.5 99 c 128,-1,19
 383 117 383 117 412.5 144 c 128,-1,20
 442 171 442 171 463 203.5 c 128,-1,21
 484 236 484 236 493 268.5 c 128,-1,22
 502 301 502 301 507 327.5 c 128,-1,23
 512 354 512 354 512 370 c 2,24,-1
 512 387 l 1,25,-1
 492 387 l 1,26,27
 491 384 491 384 490 377.5 c 128,-1,28
 489 371 489 371 482.5 352 c 128,-1,29
 476 333 476 333 466 316 c 128,-1,30
 456 299 456 299 435.5 278 c 128,-1,31
 415 257 415 257 388.5 241.5 c 128,-1,32
 362 226 362 226 319.5 215 c 128,-1,33
 277 204 277 204 225 202 c 1,34,-1
 225 309 l 1,14,-1
EndSplineSet
Validated: 9
EndChar

StartChar: uniF14C
Encoding: 61772 61772 79
Width: 512
Flags: W
LayerCount: 2
Fore
SplineSet
452 315 m 1,0,1
 461 268 461 268 461 248 c 0,2,3
 461 212 461 212 435 212 c 0,4,5
 419.931 212 419.931 212 409.577 223 c 1,6,-1
 410 223 l 1,7,-1
 410 315 l 1,8,-1
 452 315 l 1,0,1
92 8 m 1,9,-1
 276 8 l 1,10,-1
 276 161 l 1,11,-1
 92 161 l 1,12,-1
 92 8 l 1,9,-1
113 28 m 1,13,-1
 113 141 l 1,14,-1
 256 141 l 1,15,-1
 256 28 l 1,16,-1
 113 28 l 1,13,-1
389 315 m 1,17,-1
 389 223.621 l 1,18,19
 378.533 212 378.533 212 363.5 212 c 128,-1,20
 348.467 212 348.467 212 338 223.621 c 1,21,-1
 338 315 l 1,22,-1
 389 315 l 1,17,-1
317 315 m 1,23,-1
 317 223 l 1,24,-1
 317.423 223 l 1,25,26
 307.069 212 307.069 212 292 212 c 0,27,28
 276.509 212 276.509 212 266 223.625 c 1,29,-1
 266 315 l 1,30,-1
 317 315 l 1,23,-1
246 315 m 1,31,-1
 246 223.625 l 1,32,33
 235.491 212 235.491 212 220 212 c 0,34,35
 204.931 212 204.931 212 194.577 223 c 1,36,-1
 195 223 l 1,37,-1
 195 315 l 1,38,-1
 246 315 l 1,31,-1
174 315 m 1,39,-1
 174 223.621 l 1,40,41
 163.533 212 163.533 212 148.5 212 c 128,-1,42
 133.467 212 133.467 212 123 223.621 c 1,43,-1
 123 315 l 1,44,-1
 174 315 l 1,39,-1
102 315 m 1,45,-1
 102 223 l 1,46,-1
 102.423 223 l 1,47,48
 92.0689 212 92.0689 212 77 212 c 0,49,50
 51 212 51 212 51 248 c 0,51,52
 51 268 51 268 60 315 c 1,53,-1
 102 315 l 1,45,-1
41 327 m 1,54,55
 31 274 31 274 31 248 c 0,56,57
 31 226.552 31 226.552 41 210.757 c 1,58,-1
 41 -44 l 1,59,-1
 471 -44 l 1,60,-1
 471 210.757 l 1,61,62
 481 226.552 481 226.552 481 248 c 0,63,64
 481 274 481 274 471 327 c 1,65,-1
 471 387 l 1,66,-1
 41 387 l 1,67,-1
 41 327 l 1,54,55
451 335 m 1,68,-1
 61 335 l 1,69,-1
 61 366 l 1,70,-1
 451 366 l 1,71,-1
 451 335 l 1,68,-1
61 194.444 m 1,72,73
 68.1484 192 68.1484 192 77 192 c 0,74,75
 97 192 97 192 113 205 c 1,76,77
 129 192 129 192 148.5 192 c 128,-1,78
 168 192 168 192 184 205 c 1,79,80
 200 192 200 192 220 192 c 128,-1,81
 240 192 240 192 256 205 c 1,82,83
 272 192 272 192 292 192 c 128,-1,84
 312 192 312 192 328 205 c 1,85,86
 344 192 344 192 363.5 192 c 128,-1,87
 383 192 383 192 399 205 c 1,88,89
 415 192 415 192 435 192 c 0,90,91
 443.852 192 443.852 192 451 194.444 c 1,92,-1
 451 -23 l 1,93,-1
 420 -23 l 1,94,-1
 420 161 l 1,95,-1
 307 161 l 1,96,-1
 307 -23 l 1,97,-1
 61 -23 l 1,98,-1
 61 194.444 l 1,72,73
328 -23 m 1,99,-1
 328 141 l 1,100,-1
 399 141 l 1,101,-1
 399 -23 l 1,102,-1
 328 -23 l 1,99,-1
EndSplineSet
Validated: 524297
EndChar

StartChar: uniF14D
Encoding: 61773 61773 80
Width: 512
Flags: W
LayerCount: 2
Fore
SplineSet
225 346 m 1,0,-1
 205 346 l 1,1,-1
 205 243 l 1,2,-1
 102 243 l 1,3,-1
 102 223 l 1,4,-1
 225 223 l 1,5,-1
 225 346 l 1,0,-1
79 384 m 1,6,-1
 64 369 l 1,7,-1
 203 230 l 1,8,-1
 218 245 l 1,9,-1
 79 384 l 1,6,-1
225 346 m 1,10,-1
 205 346 l 1,11,-1
 205 243 l 1,12,-1
 102 243 l 1,13,-1
 102 223 l 1,14,-1
 225 223 l 1,15,-1
 225 346 l 1,10,-1
79 384 m 1,16,-1
 64 369 l 1,17,-1
 203 230 l 1,18,-1
 218 245 l 1,19,-1
 79 384 l 1,16,-1
287 38 m 1,20,-1
 307 38 l 1,21,-1
 307 141 l 1,22,-1
 410 141 l 1,23,-1
 410 161 l 1,24,-1
 287 161 l 1,25,-1
 287 38 l 1,20,-1
433 0 m 1,26,-1
 448 15 l 1,27,-1
 309 154 l 1,28,-1
 294 139 l 1,29,-1
 433 0 l 1,26,-1
287 38 m 1,30,-1
 307 38 l 1,31,-1
 307 141 l 1,32,-1
 410 141 l 1,33,-1
 410 161 l 1,34,-1
 287 161 l 1,35,-1
 287 38 l 1,30,-1
433 0 m 1,36,-1
 448 15 l 1,37,-1
 309 154 l 1,38,-1
 294 139 l 1,39,-1
 433 0 l 1,36,-1
410 223 m 1,40,-1
 410 243 l 1,41,-1
 307 243 l 1,42,-1
 307 346 l 1,43,-1
 287 346 l 1,44,-1
 287 223 l 1,45,-1
 410 223 l 1,40,-1
448 369 m 1,46,-1
 433 384 l 1,47,-1
 294 245 l 1,48,-1
 309 230 l 1,49,-1
 448 369 l 1,46,-1
410 223 m 1,50,-1
 410 243 l 1,51,-1
 307 243 l 1,52,-1
 307 346 l 1,53,-1
 287 346 l 1,54,-1
 287 223 l 1,55,-1
 410 223 l 1,50,-1
448 369 m 1,56,-1
 433 384 l 1,57,-1
 294 245 l 1,58,-1
 309 230 l 1,59,-1
 448 369 l 1,56,-1
102 161 m 1,60,-1
 102 141 l 1,61,-1
 205 141 l 1,62,-1
 205 38 l 1,63,-1
 225 38 l 1,64,-1
 225 161 l 1,65,-1
 102 161 l 1,60,-1
64 15 m 1,66,-1
 79 0 l 1,67,-1
 218 139 l 1,68,-1
 203 154 l 1,69,-1
 64 15 l 1,66,-1
102 161 m 1,70,-1
 102 141 l 1,71,-1
 205 141 l 1,72,-1
 205 38 l 1,73,-1
 225 38 l 1,74,-1
 225 161 l 1,75,-1
 102 161 l 1,70,-1
64 15 m 1,76,-1
 79 0 l 1,77,-1
 218 139 l 1,78,-1
 203 154 l 1,79,-1
 64 15 l 1,76,-1
EndSplineSet
Validated: 5
EndChar

StartChar: uniF14E
Encoding: 61774 61774 81
Width: 512
Flags: W
LayerCount: 2
Fore
SplineSet
236 141 m 1,0,-1
 184 141 l 1,1,-1
 184 193 l 2,2,3
 184 202 184 202 195 202 c 2,4,-1
 236 202 l 1,5,-1
 236 141 l 1,0,-1
256 141 m 1,6,-1
 256 202 l 1,7,-1
 287 202 l 2,8,9
 292 202 292 202 303 196.5 c 128,-1,10
 314 191 314 191 320 185 c 1,11,-1
 320 186 l 1,12,-1
 331 171 l 2,13,14
 342.625 156.469 342.625 156.469 358.003 141 c 1,15,-1
 256 141 l 1,6,-1
51 141 m 1,16,-1
 41 141 l 2,17,18
 28 141 28 141 14 126.5 c 128,-1,19
 0 112 0 112 0 100 c 2,20,-1
 0 15 l 2,21,22
 0 11 0 11 3.5 4 c 128,-1,23
 7 -3 7 -3 10 -6 c 0,24,25
 19 -13 19 -13 31 -13 c 2,26,-1
 52.4915 -13 l 1,27,28
 56.5965 -27.5965 56.5965 -27.5965 72 -43 c 0,29,30
 93 -64 93 -64 112.5 -64 c 128,-1,31
 132 -64 132 -64 153 -43 c 0,32,33
 168.404 -27.5965 168.404 -27.5965 172.509 -13 c 1,34,-1
 339.491 -13 l 1,35,36
 343.596 -27.5965 343.596 -27.5965 359 -43 c 0,37,38
 380 -64 380 -64 399.5 -64 c 128,-1,39
 419 -64 419 -64 440 -43 c 0,40,41
 455.404 -27.5965 455.404 -27.5965 459.509 -13 c 1,42,-1
 481 -13 l 2,43,44
 494 -13 494 -13 503 -3.5 c 128,-1,45
 512 6 512 6 512 18 c 2,46,-1
 512 79 l 2,47,48
 512 88 512 88 498 100 c 128,-1,49
 484 112 484 112 471 117 c 0,50,51
 435 132 435 132 391 141 c 0,52,53
 387 141 387 141 373 155 c 128,-1,54
 359 169 359 169 347 184 c 2,55,-1
 335 199 l 1,56,57
 327 207 327 207 311 215 c 128,-1,58
 295 223 295 223 287 223 c 2,59,-1
 195 223 l 2,60,61
 186 223 186 223 175 212.5 c 128,-1,62
 164 202 164 202 164 193 c 2,63,-1
 164 141 l 1,64,-1
 51 141 l 1,16,-1
389 120.578 m 1,65,66
 430.77 111.674 430.77 111.674 463 98 c 0,67,68
 470 95 470 95 477 90.5 c 128,-1,69
 484 86 484 86 488 83 c 128,-1,70
 492 80 492 80 492 79 c 2,71,-1
 492 18 l 1,72,73
 491 14 491 14 488 11 c 128,-1,74
 485 8 485 8 481 8 c 2,75,-1
 459.509 8 l 1,76,77
 455.404 22.5965 455.404 22.5965 440 38 c 0,78,79
 419 59 419 59 399.5 59 c 128,-1,80
 380 59 380 59 359 38 c 0,81,82
 343.596 22.5965 343.596 22.5965 339.491 8 c 1,83,-1
 172.509 8 l 1,84,85
 168.404 22.5965 168.404 22.5965 153 38 c 0,86,87
 132 59 132 59 112.5 59 c 128,-1,88
 93 59 93 59 72 38 c 0,89,90
 56.5965 22.5965 56.5965 22.5965 52.4915 8 c 1,91,-1
 31 8 l 2,92,93
 26 8 26 8 23 10 c 128,-1,94
 20 12 20 12 20 15 c 2,95,-1
 20 100 l 2,96,97
 20 108 20 108 26.5 114 c 128,-1,98
 33 120 33 120 41 120 c 2,99,-1
 51 120 l 1,100,-1
 184 120 l 1,101,-1
 389 120 l 1,102,-1
 389 120.578 l 1,65,66
73.7482 -13 m 1,103,-1
 152.185 -13 l 1,104,105
 149.049 -21.9505 149.049 -21.9505 140.5 -30.5 c 0,106,107
 127 -44 127 -44 112.5 -44 c 128,-1,108
 98 -44 98 -44 85 -30.5 c 0,109,110
 76.7672 -21.9505 76.7672 -21.9505 73.7482 -13 c 1,103,-1
152.161 8 m 1,111,-1
 73.7712 8 l 1,112,113
 76.7985 16.7985 76.7985 16.7985 85 25 c 0,114,115
 98 38 98 38 112.5 38 c 128,-1,116
 127 38 127 38 140.5 25 c 0,117,118
 149.017 16.7985 149.017 16.7985 152.161 8 c 1,111,-1
359.815 -13 m 1,119,-1
 438.252 -13 l 1,120,121
 435.233 -21.9505 435.233 -21.9505 427 -30.5 c 0,122,123
 414 -44 414 -44 399.5 -44 c 128,-1,124
 385 -44 385 -44 371.5 -30.5 c 0,125,126
 362.951 -21.9505 362.951 -21.9505 359.815 -13 c 1,119,-1
438.229 8 m 1,127,-1
 359.839 8 l 1,128,129
 362.983 16.7985 362.983 16.7985 371.5 25 c 0,130,131
 385 38 385 38 399.5 38 c 128,-1,132
 414 38 414 38 427 25 c 0,133,134
 435.201 16.7985 435.201 16.7985 438.229 8 c 1,127,-1
EndSplineSet
Validated: 524297
EndChar

StartChar: uniF14F
Encoding: 61775 61775 82
Width: 512
Flags: W
LayerCount: 2
Fore
SplineSet
448 223 m 2,0,1
 462 223 462 223 473 215.5 c 128,-1,2
 484 208 484 208 488 201.5 c 128,-1,3
 492 195 492 195 492 192 c 128,-1,4
 492 189 492 189 488 182.5 c 128,-1,5
 484 176 484 176 473.5 168.5 c 128,-1,6
 463 161 463 161 448 161 c 2,7,-1
 288 161 l 1,8,-1
 285 157 l 1,9,10
 158 -5 158 -5 156 -7 c 0,11,12
 154 -10 154 -10 152 -10 c 0,13,14
 146 -11 146 -11 136 -12 c 1,15,-1
 201 147 l 1,16,-1
 207 161 l 1,17,-1
 56 161 l 1,18,-1
 53 156 l 1,19,20
 28 108 28 108 21 95 c 1,21,22
 28 127 28 127 41 190 c 1,23,-1
 41 192 l 1,24,-1
 41 194 l 1,25,26
 27 257 27 257 21 289 c 1,27,28
 25 282 25 282 53 228 c 1,29,-1
 56 223 l 1,30,-1
 207 223 l 1,31,-1
 201 237 l 1,32,33
 156 347 156 347 136 396 c 1,34,35
 146 395 146 395 152 394 c 0,36,37
 154 394 154 394 156 391 c 2,38,-1
 285 227 l 1,39,-1
 288 223 l 1,40,-1
 448 223 l 2,0,1
448 243 m 2,41,-1
 298 243 l 1,42,43
 174 401 174 401 172 404 c 0,44,45
 165 413 165 413 154 414 c 0,46,47
 140 416 140 416 130 417 c 0,48,49
 122 418 122 418 116.5 411.5 c 128,-1,50
 111 405 111 405 114 396 c 0,51,52
 117 388 117 388 177 243 c 1,53,-1
 68 243 l 1,54,55
 45 287 45 287 41 294 c 0,56,57
 36 304 36 304 21 305 c 1,58,-1
 -1 305 l 1,59,-1
 0 290 l 2,60,61
 1 285 1 285 20 192 c 1,62,63
 1 100 1 100 0 95 c 2,64,-1
 -3 79 l 1,65,-1
 21 79 l 1,66,67
 36 80 36 80 41 90 c 0,68,69
 45 97 45 97 68 141 c 1,70,-1
 177 141 l 1,71,72
 117 -4 117 -4 114 -12 c 0,73,74
 111 -21 111 -21 116.5 -27.5 c 128,-1,75
 122 -34 122 -34 130 -33 c 0,76,77
 140 -32 140 -32 154 -30 c 0,78,79
 165 -29 165 -29 172 -20 c 0,80,81
 174 -18 174 -18 298 141 c 1,82,-1
 448 141 l 2,83,84
 478 141 478 141 495 158.5 c 128,-1,85
 512 176 512 176 512 192 c 128,-1,86
 512 208 512 208 495 225.5 c 128,-1,87
 478 243 478 243 448 243 c 2,41,-1
EndSplineSet
Validated: 9
EndChar

StartChar: uniF150
Encoding: 61776 61776 83
Width: 512
Flags: W
LayerCount: 2
Fore
SplineSet
451 130 m 2,0,1
 451 126 451 126 448.5 123.5 c 128,-1,2
 446 121 446 121 444 121 c 2,3,-1
 441 120 l 1,4,-1
 421 120 l 1,5,6
 410 121 410 121 410 130 c 2,7,-1
 410 144 l 2,8,9
 410 148 410 148 416 148 c 0,10,11
 419 148 419 148 421 147 c 128,-1,12
 423 146 423 146 423 145 c 2,13,-1
 423 144 l 1,14,-1
 423 136 l 1,15,16
 424 132 424 132 430 132 c 0,17,18
 433 132 433 132 434.5 133 c 128,-1,19
 436 134 436 134 437 135 c 1,20,-1
 437 136 l 1,21,-1
 437 144 l 1,22,23
 438 148 438 148 444 148 c 1,24,-1
 451 144 l 1,25,-1
 451 130 l 2,0,1
505 -60 m 1,26,-1
 498 -40 l 1,27,28
 491 -43 491 -43 483 -43 c 0,29,30
 452 -43 452 -43 432 -28 c 1,31,-1
 426 -23 l 1,32,-1
 420 -28 l 1,33,34
 400 -43 400 -43 369 -43 c 128,-1,35
 338 -43 338 -43 319 -28 c 2,36,-1
 313 -23 l 1,37,-1
 306 -28 l 1,38,39
 287 -43 287 -43 256 -43 c 128,-1,40
 225 -43 225 -43 206 -28 c 1,41,-1
 199 -23 l 1,42,-1
 193 -28 l 2,43,44
 174 -43 174 -43 143 -43 c 128,-1,45
 112 -43 112 -43 92 -28 c 1,46,-1
 86 -23 l 1,47,-1
 80 -28 l 1,48,49
 60 -43 60 -43 29 -43 c 0,50,51
 21 -43 21 -43 12 -42 c 1,52,-1
 9 -62 l 1,53,54
 19 -63 19 -63 29 -63 c 0,55,56
 61 -63 61 -63 86 -48 c 1,57,58
 110 -63 110 -63 142.5 -63 c 128,-1,59
 175 -63 175 -63 199 -48 c 1,60,61
 224 -63 224 -63 256 -63 c 128,-1,62
 288 -63 288 -63 313 -48 c 1,63,64
 337 -63 337 -63 369.5 -63 c 128,-1,65
 402 -63 402 -63 426 -48 c 1,66,67
 451 -63 451 -63 483 -63 c 0,68,69
 495 -63 495 -63 505 -60 c 1,26,-1
505 -19 m 1,70,-1
 498 0 l 1,71,72
 491 -2 491 -2 483 -2 c 0,73,74
 452 -2 452 -2 432 13 c 1,75,-1
 426 18 l 1,76,-1
 420 13 l 2,77,78
 404.891 1.66846 404.891 1.66846 383.505 -1.10283 c 1,79,80
 416.494 13.8543 416.494 13.8543 446 41 c 0,81,82
 496 87 496 87 511 155 c 0,83,84
 514 170 514 170 507 180 c 1,85,86
 497 192 497 192 481 192 c 2,87,-1
 403.212 192 l 1,88,-1
 312 294 l 1,89,-1
 218 294 l 1,90,-1
 197 233 l 1,91,-1
 158 233 l 1,92,-1
 107 294 l 1,93,-1
 46 294 l 1,94,-1
 70 234 l 1,95,-1
 42.2979 192 l 1,96,-1
 31 192 l 2,97,98
 18 192 18 192 9 183 c 128,-1,99
 0 174 0 174 0 161 c 2,100,-1
 0 105 l 2,101,102
 0 65 0 65 20 36 c 0,103,104
 34.7542 14.6064 34.7542 14.6064 53.8622 0.831818 c 1,105,106
 42.4694 -2 42.4694 -2 29 -2 c 0,107,108
 21 -2 21 -2 12 -1 c 1,109,-1
 9 -21 l 1,110,111
 19 -22 19 -22 29 -22 c 0,112,113
 61 -22 61 -22 86 -7 c 1,114,115
 110 -22 110 -22 142.5 -22 c 128,-1,116
 175 -22 175 -22 199 -7 c 1,117,118
 224 -22 224 -22 256 -22 c 128,-1,119
 288 -22 288 -22 313 -7 c 1,120,121
 337 -22 337 -22 369.5 -22 c 128,-1,122
 402 -22 402 -22 426 -7 c 1,123,124
 451 -22 451 -22 483 -22 c 0,125,126
 495 -22 495 -22 505 -19 c 1,70,-1
372 174.146 m 1,127,-1
 372 182 l 1,128,-1
 64 182 l 1,129,-1
 64 176.75 l 1,130,-1
 61.6965 183.776 l 1,131,-1
 80.0175 212 l 1,132,-1
 149 212 l 1,133,-1
 212 212 l 1,134,-1
 357.408 212 l 1,135,-1
 380.079 186.166 l 1,136,-1
 372 174.146 l 1,127,-1
363.164 161 m 1,137,-1
 343 131 l 1,138,-1
 79 131 l 1,139,-1
 69.1639 161 l 1,140,-1
 363.164 161 l 1,137,-1
338.98 233 m 1,141,-1
 219.113 233 l 1,142,-1
 233 274 l 1,143,-1
 303 274 l 1,144,-1
 338.98 233 l 1,141,-1
131.726 233 m 1,145,-1
 92.619 233 l 1,146,-1
 77 274 l 1,147,-1
 98 274 l 1,148,-1
 131.726 233 l 1,145,-1
76.732 10.6976 m 1,149,150
 53.5492 23.6497 53.5492 23.6497 37 47.5 c 0,151,152
 20 72 20 72 20 105 c 2,153,-1
 20 161 l 2,154,155
 20 165 20 165 23.5 168.5 c 128,-1,156
 27 172 27 172 31 172 c 2,157,-1
 44 172 l 1,158,-1
 64 110 l 1,159,-1
 354 110 l 1,160,-1
 395 172 l 1,161,-1
 481 172 l 2,162,163
 487 172 487 172 491 167 c 0,164,165
 492 165 492 165 491 159 c 0,166,167
 477 98 477 98 431.5 56 c 0,168,169
 386.747 14.6897 386.747 14.6897 333.771 4.33704 c 1,170,171
 325.65 7.74964 325.65 7.74964 319 13 c 2,172,-1
 313 18 l 1,173,-1
 306 13 l 1,174,175
 287 -2 287 -2 256 -2 c 128,-1,176
 225 -2 225 -2 206 13 c 1,177,-1
 199 18 l 1,178,-1
 193 13 l 2,179,180
 174 -2 174 -2 143 -2 c 128,-1,181
 112 -2 112 -2 92 13 c 1,182,-1
 86 18 l 1,183,-1
 80 13 l 2,184,185
 78.4012 11.8009 78.4012 11.8009 76.732 10.6976 c 1,149,150
EndSplineSet
Validated: 524329
EndChar

StartChar: uniF151
Encoding: 61777 61777 84
Width: 512
Flags: W
LayerCount: 2
Fore
SplineSet
420 346 m 1,0,-1
 440 346 l 1,1,-1
 440 378 l 2,2,3
 440 390 440 390 431.5 398.5 c 128,-1,4
 423 407 423 407 411 407 c 2,5,-1
 357 407 l 2,6,7
 345 407 345 407 336.5 398.5 c 128,-1,8
 328 390 328 390 328 378 c 2,9,-1
 328 346 l 1,10,-1
 348 346 l 1,11,-1
 348 378 l 2,12,13
 348 387 348 387 357 387 c 2,14,-1
 411 387 l 2,15,16
 420 387 420 387 420 378 c 2,17,-1
 420 346 l 1,0,-1
164 346 m 1,18,-1
 184 346 l 1,19,-1
 184 378 l 2,20,21
 184 390 184 390 175.5 398.5 c 128,-1,22
 167 407 167 407 155 407 c 2,23,-1
 101 407 l 2,24,25
 89 407 89 407 80.5 398.5 c 128,-1,26
 72 390 72 390 72 378 c 2,27,-1
 72 346 l 1,28,-1
 92 346 l 1,29,-1
 92 378 l 2,30,31
 92 387 92 387 101 387 c 2,32,-1
 155 387 l 2,33,34
 164 387 164 387 164 378 c 2,35,-1
 164 346 l 1,18,-1
464 314 m 2,36,37
 475 314 475 314 483 306.5 c 128,-1,38
 491 299 491 299 491 288 c 2,39,-1
 491 25 l 2,40,41
 491 14 491 14 483 6 c 128,-1,42
 475 -2 475 -2 464 -2 c 2,43,-1
 48 -2 l 2,44,45
 37 -2 37 -2 29 6 c 128,-1,46
 21 14 21 14 21 25 c 2,47,-1
 21 288 l 2,48,49
 21 299 21 299 29 306.5 c 128,-1,50
 37 314 37 314 48 314 c 2,51,-1
 464 314 l 2,36,37
464 336 m 2,52,-1
 48 336 l 2,53,54
 28 336 28 336 13.5 322 c 128,-1,55
 -1 308 -1 308 -1 288 c 2,56,-1
 -1 25 l 2,57,58
 -1 5 -1 5 13.5 -9.5 c 128,-1,59
 28 -24 28 -24 48 -24 c 2,60,-1
 464 -24 l 2,61,62
 484 -24 484 -24 498.5 -9.5 c 128,-1,63
 513 5 513 5 513 25 c 2,64,-1
 513 288 l 2,65,66
 513 308 513 308 498.5 322 c 128,-1,67
 484 336 484 336 464 336 c 2,52,-1
72 141 m 1,68,-1
 72 172 l 1,69,-1
 184 172 l 1,70,-1
 184 141 l 1,71,-1
 72 141 l 1,68,-1
328 141 m 1,72,-1
 328 172 l 1,73,-1
 440 172 l 1,74,-1
 440 141 l 1,75,-1
 328 141 l 1,72,-1
369 100 m 1,76,-1
 369 212 l 1,77,-1
 399 212 l 1,78,-1
 399 100 l 1,79,-1
 369 100 l 1,76,-1
EndSplineSet
Validated: 5
EndChar

StartChar: uniF152
Encoding: 61778 61778 85
Width: 512
Flags: W
LayerCount: 2
Fore
SplineSet
378 237 m 1,0,-1
 358 237 l 1,1,-1
 358 90 l 1,2,-1
 211 90 l 1,3,-1
 211 70 l 1,4,-1
 378 70 l 1,5,-1
 378 237 l 1,0,-1
144 318 m 1,6,-1
 130 304 l 1,7,-1
 353 81 l 1,8,-1
 367 95 l 1,9,-1
 144 318 l 1,6,-1
EndSplineSet
Validated: 5
EndChar

StartChar: uniF153
Encoding: 61779 61779 86
Width: 512
Flags: W
LayerCount: 2
Fore
SplineSet
245 200 m 1,0,-1
 147 86 l 1,1,-1
 161 72 l 1,2,-1
 246 158 l 1,3,-1
 246 -47 l 1,4,-1
 382 90 l 1,5,-1
 282 190 l 1,6,-1
 376 287 l 1,7,-1
 382 294 l 1,8,-1
 246 431 l 1,9,-1
 246 226 l 1,10,-1
 161 312 l 1,11,-1
 147 298 l 1,12,-1
 245 200 l 1,0,-1
266 179 m 1,13,-1
 355 90 l 1,14,-1
 266 1 l 1,15,-1
 266 172 l 1,16,-1
 266 175 l 1,17,-1
 266 179 l 1,13,-1
266 205 m 1,18,-1
 266 383 l 1,19,-1
 355 294 l 1,20,-1
 266 205 l 1,18,-1
EndSplineSet
Validated: 9
EndChar

StartChar: uniF154
Encoding: 61780 61780 87
Width: 512
Flags: W
LayerCount: 2
Fore
SplineSet
20 191 m 128,-1,1
 20 93 20 93 89 24 c 128,-1,2
 158 -45 158 -45 256 -45 c 128,-1,3
 354 -45 354 -45 423 24 c 128,-1,4
 492 93 492 93 492 191 c 128,-1,5
 492 289 492 289 423 358 c 128,-1,6
 354 427 354 427 256 427 c 128,-1,7
 158 427 158 427 89 358 c 128,-1,0
 20 289 20 289 20 191 c 128,-1,1
0 192 m 128,-1,9
 0 297 0 297 75 371.5 c 128,-1,10
 150 446 150 446 256 446 c 128,-1,11
 362 446 362 446 437 371.5 c 128,-1,12
 512 297 512 297 512 192 c 128,-1,13
 512 87 512 87 437 12.5 c 128,-1,14
 362 -62 362 -62 256 -62 c 128,-1,15
 150 -62 150 -62 75 12.5 c 128,-1,8
 0 87 0 87 0 192 c 128,-1,9
241 137 m 2,16,-1
 241 152 l 2,17,18
 241 170 241 170 252 185 c 2,19,-1
 277 219 l 2,20,21
 294 242 294 242 294 257 c 0,22,23
 294 273 294 273 284 282 c 128,-1,24
 274 291 274 291 258 291 c 0,25,26
 227 291 227 291 220 256 c 0,27,28
 219 253 219 253 216 253 c 2,29,-1
 193 257 l 2,30,31
 189 258 189 258 190 262 c 0,32,33
 194 288 194 288 212.5 304 c 128,-1,34
 231 320 231 320 259 320 c 0,35,36
 289 320 289 320 307 302.5 c 128,-1,37
 325 285 325 285 325 257 c 0,38,39
 325 236 325 236 307 210 c 2,40,-1
 282 176 l 2,41,42
 273 163 273 163 273 148 c 2,43,-1
 273 137 l 2,44,45
 273 133 273 133 269 133 c 2,46,-1
 245 133 l 2,47,48
 241 133 241 133 241 137 c 2,16,-1
239 101 m 2,49,50
 239 105 239 105 243 105 c 2,51,-1
 271 105 l 2,52,53
 274 105 274 105 274 101 c 2,54,-1
 274 70 l 2,55,56
 274 66 274 66 271 66 c 2,57,-1
 243 66 l 2,58,59
 239 66 239 66 239 70 c 2,60,-1
 239 101 l 2,49,50
EndSplineSet
Validated: 1
EndChar

StartChar: uniF155
Encoding: 61781 61781 88
Width: 512
Flags: W
LayerCount: 2
Fore
SplineSet
461 217.5 m 128,-1,1
 461 241 461 241 444.5 257.5 c 128,-1,2
 428 274 428 274 404.5 274 c 128,-1,3
 381 274 381 274 364.5 257.5 c 128,-1,4
 348 241 348 241 348 217.5 c 128,-1,5
 348 194 348 194 364.5 177.5 c 128,-1,6
 381 161 381 161 404.5 161 c 128,-1,7
 428 161 428 161 444.5 177.5 c 128,-1,0
 461 194 461 194 461 217.5 c 128,-1,1
440 217.5 m 128,-1,9
 440 203 440 203 429.5 192.5 c 128,-1,10
 419 182 419 182 404.5 182 c 128,-1,11
 390 182 390 182 379.5 192.5 c 128,-1,12
 369 203 369 203 369 217.5 c 128,-1,13
 369 232 369 232 379.5 242.5 c 128,-1,14
 390 253 390 253 404.5 253 c 128,-1,15
 419 253 419 253 429.5 242.5 c 128,-1,8
 440 232 440 232 440 217.5 c 128,-1,9
495 63 m 1,16,-1
 508 78 l 1,17,18
 501 85 501 85 489.5 93 c 128,-1,19
 478 101 478 101 442.5 115.5 c 128,-1,20
 407 130 407 130 373 130 c 0,21,22
 335 130 335 130 265.5 112 c 128,-1,23
 196 94 196 94 158 94 c 0,24,25
 116 94 116 94 81 104.5 c 128,-1,26
 46 115 46 115 31 125 c 1,27,-1
 17 136 l 1,28,-1
 4 120 l 1,29,30
 10 114 10 114 22 106.5 c 128,-1,31
 34 99 34 99 74 86 c 128,-1,32
 114 73 114 73 158 73 c 0,33,34
 201 73 201 73 270.5 91.5 c 128,-1,35
 340 110 340 110 373 110 c 0,36,37
 403 110 403 110 433.5 98 c 128,-1,38
 464 86 464 86 480 74 c 2,39,-1
 495 63 l 1,16,-1
74 106 m 1,40,-1
 84 88 l 1,41,-1
 267 197 l 1,42,-1
 244 247 l 2,43,44
 244 248 244 248 243.5 249.5 c 128,-1,45
 243 251 243 251 240.5 256 c 128,-1,46
 238 261 238 261 234.5 263 c 128,-1,47
 231 265 231 265 225.5 267 c 128,-1,48
 220 269 220 269 213 266 c 0,49,50
 203 262 203 262 162 242 c 128,-1,51
 121 222 121 222 117 221 c 0,52,53
 108 218 108 218 103 219.5 c 128,-1,54
 98 221 98 221 100 227 c 128,-1,55
 102 233 102 233 111 238 c 0,56,57
 128 248 128 248 154 261.5 c 128,-1,58
 180 275 180 275 203 286.5 c 128,-1,59
 226 298 226 298 228 299 c 0,60,61
 235 304 235 304 240 303 c 128,-1,62
 245 302 245 302 251 292 c 0,63,64
 260 277 260 277 292 227 c 128,-1,65
 324 177 324 177 329 168 c 0,66,67
 338 153 338 153 338 146 c 128,-1,68
 338 139 338 139 327 126 c 1,69,-1
 341 111 l 1,70,71
 370 139 370 139 347 179 c 0,72,73
 342 188 342 188 309.5 238.5 c 128,-1,74
 277 289 277 289 269 303 c 0,75,76
 250 335 250 335 218 317 c 0,77,78
 217 317 217 317 193.5 305 c 128,-1,79
 170 293 170 293 144 279.5 c 128,-1,80
 118 266 118 266 101 256 c 0,81,82
 83 245 83 245 81 229 c 128,-1,83
 79 213 79 213 92 203.5 c 128,-1,84
 105 194 105 194 125 202 c 0,85,86
 130 204 130 204 171.5 224 c 128,-1,87
 213 244 213 244 219 246 c 0,88,89
 221 247 221 247 222.5 245.5 c 128,-1,90
 224 244 224 244 225 240 c 2,91,-1
 240 205 l 1,92,-1
 74 106 l 1,40,-1
EndSplineSet
Validated: 37
EndChar

StartChar: uniF156
Encoding: 61782 61782 89
Width: 512
Flags: W
LayerCount: 2
Fore
SplineSet
157 150 m 1,0,1
 160 143 160 143 174 137.5 c 128,-1,2
 188 132 188 132 201 124 c 128,-1,3
 214 116 214 116 215 100 c 1,4,-1
 61 100 l 1,5,6
 62 116 62 116 75 124 c 128,-1,7
 88 132 88 132 102.5 137.5 c 128,-1,8
 117 143 117 143 119 150 c 0,9,10
 120 154 120 154 120 167 c 1,11,12
 112 171 112 171 111 187 c 1,13,14
 105 187 105 187 104 198 c 0,15,16
 103 204 103 204 107 207 c 1,17,18
 93 263 93 263 138 264 c 0,19,20
 152 264 152 264 156 257 c 1,21,22
 172 254 172 254 173.5 234.5 c 128,-1,23
 175 215 175 215 170 207 c 1,24,25
 173 204 173 204 173 198 c 1,26,27
 171 187 171 187 166 187 c 1,28,29
 164 171 164 171 157 167 c 1,30,31
 157 154 157 154 157 150 c 1,0,1
266 223 m 1,32,-1
 266 202 l 1,33,-1
 451 202 l 1,34,-1
 451 223 l 1,35,-1
 266 223 l 1,32,-1
266 172 m 1,36,-1
 266 151 l 1,37,-1
 451 151 l 1,38,-1
 451 172 l 1,39,-1
 266 172 l 1,36,-1
266 120 m 1,40,-1
 266 100 l 1,41,-1
 451 100 l 1,42,-1
 451 120 l 1,43,-1
 266 120 l 1,40,-1
481 315 m 2,44,45
 486 315 486 315 489 312 c 128,-1,46
 492 309 492 309 492 305 c 2,47,-1
 492 18 l 2,48,49
 492 14 492 14 489 11 c 128,-1,50
 486 8 486 8 481 8 c 2,51,-1
 430 8 l 1,52,-1
 430 28 l 1,53,-1
 369 28 l 1,54,-1
 369 8 l 1,55,-1
 143 8 l 1,56,-1
 143 28 l 1,57,-1
 82 28 l 1,58,-1
 82 8 l 1,59,-1
 31 8 l 2,60,61
 26 8 26 8 23 11 c 128,-1,62
 20 14 20 14 20 18 c 2,63,-1
 20 346 l 2,64,65
 20 350 20 350 23 353 c 128,-1,66
 26 356 26 356 31 356 c 2,67,-1
 236 356 l 2,68,69
 240 356 240 356 243 353 c 128,-1,70
 246 350 246 350 246 346 c 2,71,-1
 246 315 l 1,72,-1
 481 315 l 2,44,45
481 335 m 2,73,-1
 266 335 l 1,74,-1
 266 346 l 2,75,76
 266 358 266 358 257 367 c 128,-1,77
 248 376 248 376 236 376 c 2,78,-1
 31 376 l 2,79,80
 18 376 18 376 9 367 c 128,-1,81
 0 358 0 358 0 346 c 2,82,-1
 0 18 l 2,83,84
 0 5 0 5 9 -4 c 128,-1,85
 18 -13 18 -13 31 -13 c 2,86,-1
 102 -13 l 1,87,-1
 102 8 l 1,88,-1
 123 8 l 1,89,-1
 123 -13 l 1,90,-1
 389 -13 l 1,91,-1
 389 8 l 1,92,-1
 410 8 l 1,93,-1
 410 -13 l 1,94,-1
 481 -13 l 2,95,96
 494 -13 494 -13 503 -4 c 128,-1,97
 512 5 512 5 512 18 c 2,98,-1
 512 305 l 2,99,100
 512 317 512 317 503 326 c 128,-1,101
 494 335 494 335 481 335 c 2,73,-1
EndSplineSet
Validated: 41
EndChar

StartChar: uniF157
Encoding: 61783 61783 90
Width: 512
Flags: W
LayerCount: 2
Fore
SplineSet
258 281 m 1,0,-1
 255 260 l 1,1,-1
 260 259.5 l 2,2,3
 265 259 265 259 274 258 c 128,-1,4
 283 257 283 257 294.5 255.5 c 128,-1,5
 306 254 306 254 318.5 252 c 128,-1,6
 331 250 331 250 344 248.5 c 128,-1,7
 357 247 357 247 369.5 245.5 c 128,-1,8
 382 244 382 244 392 242.5 c 128,-1,9
 402 241 402 241 409 240 c 0,10,11
 410.232 239.824 410.232 239.824 411.309 239.679 c 2,12,-1
 256 179 l 1,13,-1
 41 263 l 1,14,-1
 256 328 l 1,15,-1
 471 263 l 1,16,-1
 443.396 252.215 l 1,17,18
 434.464 258.317 434.464 258.317 421 260 c 2,19,-1
 258 281 l 1,0,-1
471 110 m 0,20,21
 471 119 471 119 465 125 c 0,22,23
 463.122 126.878 463.122 126.878 461 128.168 c 1,24,-1
 461 211 l 2,25,26
 461 225.179 461 225.179 456.846 235.308 c 1,27,-1
 533 265 l 1,28,-1
 256 350 l 1,29,-1
 -21 265 l 1,30,-1
 102 217.043 l 1,31,-1
 102 136 l 2,32,33
 102 104 102 104 148 86.5 c 128,-1,34
 194 69 194 69 256 69 c 128,-1,35
 318 69 318 69 364 86.5 c 128,-1,36
 410 104 410 104 410 136 c 2,37,-1
 410 217.043 l 1,38,-1
 438.034 227.973 l 2,39,40
 438.291 227.266 438.291 227.266 438.5 226.5 c 0,41,42
 440 221 440 221 440 211 c 2,43,-1
 440 128.168 l 1,44,45
 437.878 126.878 437.878 126.878 436 125 c 0,46,47
 430 119 430 119 430 110 c 0,48,49
 430 99 430 99 451 49 c 1,50,-1
 456 61 l 2,51,52
 461 74 461 74 466 89.5 c 128,-1,53
 471 105 471 105 471 110 c 0,20,21
123 208.856 m 1,54,-1
 256 157 l 1,55,-1
 389 208.856 l 1,56,-1
 389 136 l 2,57,58
 389 120 389 120 350.5 105 c 128,-1,59
 312 90 312 90 256 90 c 0,60,61
 218 90 218 90 186 97.5 c 128,-1,62
 154 105 154 105 138.5 115.5 c 128,-1,63
 123 126 123 126 123 136 c 2,64,-1
 123 208.856 l 1,54,-1
EndSplineSet
Validated: 524297
EndChar

StartChar: uniF158
Encoding: 61784 61784 91
Width: 512
Flags: W
LayerCount: 2
Fore
SplineSet
481 376 m 2,0,-1
 185 376 l 1,1,2
 184 377 184 377 178 387.5 c 128,-1,3
 172 398 172 398 163 407.5 c 128,-1,4
 154 417 154 417 143 417 c 2,5,-1
 31 417 l 2,6,7
 18 417 18 417 9 408 c 128,-1,8
 0 399 0 399 0 387 c 2,9,-1
 0 284 l 1,10,-1
 0 172 l 1,11,-1
 0 -3 l 2,12,13
 0 -15 0 -15 9 -24 c 128,-1,14
 18 -33 18 -33 31 -33 c 2,15,-1
 481 -33 l 2,16,17
 494 -33 494 -33 503 -24 c 128,-1,18
 512 -15 512 -15 512 -3 c 2,19,-1
 512 172 l 1,20,-1
 512 284 l 1,21,-1
 512 346 l 2,22,23
 512 358 512 358 503 367 c 128,-1,24
 494 376 494 376 481 376 c 2,0,-1
481 356 m 2,25,26
 486 356 486 356 489 353 c 128,-1,27
 492 350 492 350 492 346 c 2,28,-1
 492 313.137 l 1,29,30
 486.914 315 486.914 315 481 315 c 2,31,-1
 31 315 l 2,32,33
 25.0861 315 25.0861 315 20 313.137 c 1,34,-1
 20 387 l 2,35,36
 20 391 20 391 23 394 c 128,-1,37
 26 397 26 397 31 397 c 2,38,-1
 143 397 l 1,39,40
 145 392 145 392 149 385.5 c 128,-1,41
 153 379 153 379 163.5 367.5 c 128,-1,42
 174 356 174 356 184 356 c 2,43,-1
 481 356 l 2,25,26
20 172 m 1,44,-1
 20 284 l 2,45,46
 20 288 20 288 23 291 c 128,-1,47
 26 294 26 294 31 294 c 2,48,-1
 481 294 l 2,49,50
 486 294 486 294 489 291 c 128,-1,51
 492 288 492 288 492 284 c 2,52,-1
 492 172 l 1,53,-1
 492 -3 l 2,54,55
 492 -7 492 -7 489 -10 c 128,-1,56
 486 -13 486 -13 481 -13 c 2,57,-1
 31 -13 l 2,58,59
 26 -13 26 -13 23 -10 c 128,-1,60
 20 -7 20 -7 20 -3 c 2,61,-1
 20 172 l 1,44,-1
EndSplineSet
Validated: 524297
EndChar

StartChar: uniF159
Encoding: 61785 61785 92
Width: 512
Flags: W
LayerCount: 2
Fore
SplineSet
452.03 213.414 m 1,0,-1
 445.27 212.832 l 1,1,-1
 444.417 222.83 l 2,2,3
 443.454 234.129 443.454 234.129 442.182 242.318 c 2,4,-1
 440.952 250.228 l 1,5,-1
 447.181 252.781 l 2,6,7
 447.34 253.714 447.34 253.714 447.181 254.559 c 0,8,9
 444.068 272.025 444.068 272.025 438.112 292.353 c 1,10,11
 434.85 293.663 434.85 293.663 434.833 293.649 c 128,-1,12
 434.748 293.579 434.748 293.579 434.253 293.778 c 2,13,-1
 430.231 295.394 l 1,14,-1
 428.592 299.404 l 2,15,16
 426.585 304.421 426.585 304.421 422.397 314.472 c 2,17,-1
 419.876 320.522 l 1,18,-1
 424.812 325.735 l 2,19,20
 424.431 325.639 424.431 325.639 424.487 328.369 c 1,21,22
 417.679 343.167 417.679 343.167 408.844 357.244 c 1,23,-1
 403.665 348.183 l 1,24,-1
 394.68 363.335 l 1,25,-1
 388.156 371.574 l 1,26,-1
 384.012 376.482 l 1,27,-1
 387.217 383.248 l 1,28,-1
 387.017 385.857 l 1,29,30
 376.278 396.954 376.278 396.954 365.836 404.938 c 1,31,32
 362.328 404.99 362.328 404.99 353.761 404.131 c 2,33,-1
 336.141 402.365 l 1,34,-1
 339.092 418.378 l 1,35,-1
 339.092 420.284 l 1,36,37
 326.134 425.196 326.134 425.196 315.566 426.807 c 2,38,-1
 315.036 426.902 l 1,39,-1
 299.241 427.548 l 1,40,41
 285.659 422.882 285.659 422.882 270.807 414.423 c 1,42,43
 266.566 405.06 266.566 405.06 261.646 400.539 c 128,-1,44
 256.726 396.018 256.726 396.018 253.518 395.236 c 128,-1,45
 250.309 394.455 250.309 394.455 241.361 393.421 c 1,46,47
 237.573 390.135 237.573 390.135 233.038 385.774 c 1,48,49
 233.585 372.794 233.585 372.794 225.622 364.93 c 128,-1,50
 217.66 357.067 217.66 357.067 207.864 356.286 c 1,51,52
 200.43 345.629 200.43 345.629 194 334.166 c 1,53,54
 196.104 301.966 196.104 301.966 176.777 295.604 c 1,55,56
 171.406 280.187 171.406 280.187 167.391 262.811 c 1,57,58
 174.2 251.462 174.2 251.462 170.847 240.21 c 128,-1,59
 167.495 228.959 167.495 228.959 161.306 224.179 c 1,60,61
 159.75 206.52 159.75 206.52 159.75 190.8 c 1,62,63
 168.469 188.939 168.469 188.939 168.376 172.524 c 128,-1,64
 168.283 156.109 168.283 156.109 162.14 149.271 c 1,65,66
 164.475 131.227 164.475 131.227 168.173 115.244 c 1,67,68
 191.006 97.007 191.006 97.007 180.303 76.623 c 1,69,70
 185.604 63.8252 185.604 63.8252 191.471 52.5273 c 1,71,72
 215.839 38.5702 215.839 38.5702 211.237 21.5557 c 1,73,74
 220.032 10.2743 220.032 10.2743 228.021 2.09375 c 1,75,76
 246.297 -0.930503 246.297 -0.930503 251.803 -18.7979 c 1,77,78
 272.97 -34.6798 272.97 -34.6798 297.959 -44.0869 c 1,79,-1
 310.63 -43.5186 l 2,80,81
 318.137 -43.2549 318.137 -43.2549 325.549 -41.6953 c 1,82,83
 327.716 -39.2388 327.716 -39.2388 332.207 -32.8799 c 2,84,-1
 335.096 -28.7939 l 1,85,-1
 340.094 -28.5605 l 1,86,-1
 354.849 -27.9141 l 1,87,88
 365.588 -21.2712 365.588 -21.2712 376.595 -11.6875 c 0,89,90
 376.898 -10.8454 376.898 -10.8454 376.814 -9.38086 c 2,91,-1
 374.015 -2.28613 l 1,92,-1
 378.699 2.41113 l 2,93,94
 381.954 5.67394 381.954 5.67394 386.243 10.7256 c 0,95,96
 396.444 23.9941 396.444 23.9941 404.418 28.2603 c 128,-1,97
 412.391 32.5265 412.391 32.5265 416.928 40.8711 c 0,98,99
 417.372 41.6966 417.372 41.6966 417.008 43.918 c 1,100,-1
 412.723 49.3203 l 1,101,-1
 415.521 54.9795 l 2,102,103
 416.874 57.7153 416.874 57.7153 420.431 60.8895 c 128,-1,104
 423.989 64.0638 423.989 64.0638 427.248 71.916 c 0,105,106
 430.501 80.5052 430.501 80.5052 435.893 91.5152 c 128,-1,107
 441.285 102.525 441.285 102.525 443.439 111.597 c 0,108,109
 443.754 112.946 443.754 112.946 443.439 113.749 c 2,110,-1
 437.645 116.93 l 1,111,-1
 439.15 124.244 l 2,112,113
 440.805 132.282 440.805 132.282 442.426 143.495 c 2,114,-1
 443.647 151.95 l 1,115,-1
 450.399 151.95 l 1,116,117
 452.63 173.514 452.63 173.514 452.63 192.246 c 0,118,119
 452.618 201.53 452.618 201.53 452.03 213.414 c 1,0,-1
404 -11 m 2,120,121
 404.003 -13.3984 404.003 -13.3984 390.645 -26.5557 c 0,122,123
 377.882 -38.1694 377.882 -38.1694 363.938 -46.3203 c 2,124,-1
 360.398 -48.3896 l 1,125,-1
 356.35 -48.3896 l 2,126,127
 346.953 -48.3896 346.953 -48.3896 346.642 -48.7432 c 0,128,129
 346.53 -48.8704 346.53 -48.8704 345.1 -50.8755 c 128,-1,130
 343.67 -52.8806 343.67 -52.8806 342.276 -54.5339 c 128,-1,131
 340.882 -56.1873 340.882 -56.1873 338.199 -58.1296 c 128,-1,132
 335.517 -60.0718 335.517 -60.0718 332.58 -60.9297 c 0,133,134
 323.306 -63.567 323.306 -63.567 310.93 -64.001 c 0,135,136
 307.74 -63.9816 307.74 -63.9816 294.298 -63.9102 c 2,137,-1
 293.851 -63.9102 l 1,138,-1
 292.46 -63.9102 l 1,139,-1
 292.439 -63.902 l 1,140,141
 207.686 -63.4151 207.686 -63.4151 195.05 -63.4199 c 0,142,143
 192.262 -63.4199 192.262 -63.4199 180.215 -62.4448 c 128,-1,144
 168.167 -61.4697 168.167 -61.4697 167.53 -61.4697 c 2,145,-1
 165.922 -61.4697 l 1,146,-1
 164.28 -61.1016 l 2,147,148
 149.183 -57.7157 149.183 -57.7157 134.785 -50.4258 c 0,149,150
 124.16 -45.1595 124.16 -45.1595 124.323 -31.1328 c 1,151,152
 119.279 -29.5853 119.279 -29.5853 117.374 -29.2812 c 2,153,-1
 116.205 -29.0947 l 1,154,-1
 113.648 -29.5638 l 2,155,156
 111.091 -30.0329 111.091 -30.0329 106.169 -28.4502 c 128,-1,157
 101.247 -26.8674 101.247 -26.8674 96.5186 -22.7637 c 0,158,159
 89.7717 -16.8836 89.7717 -16.8836 81.8281 -7.42578 c 0,160,161
 74.0564 1.7634 74.0564 1.7634 78.6855 12.6641 c 1,162,163
 74.1739 17.428 74.1739 17.428 72.5664 18.6367 c 0,164,165
 71.3525 19.3173 71.3525 19.3173 66.6802 21.5557 c 128,-1,166
 62.0078 23.8015 62.0078 23.8015 60.244 25.4942 c 128,-1,167
 58.4802 27.1833 58.4802 27.1833 56.4033 30.7695 c 0,168,169
 53.213 36.1137 53.213 36.1137 46.8516 50.4326 c 0,170,171
 43.584 57.8422 43.584 57.8422 43.4587 58.9415 c 128,-1,172
 43.3334 60.0409 43.3334 60.0409 47.6055 74.8691 c 1,173,-1
 41.8652 86.1455 l 1,174,175
 30.6312 95.0417 30.6312 95.0417 28.6475 102.24 c 0,176,177
 25.3653 114.377 25.3653 114.377 22.7324 132.845 c 0,178,179
 22.607 133.724 22.607 133.724 21.7179 136.631 c 128,-1,180
 20.8288 139.537 20.8288 139.537 21.1793 140.946 c 128,-1,181
 21.5298 142.355 21.5298 142.355 24.0835 146.633 c 128,-1,182
 26.6371 150.91 26.6371 150.91 32.209 157.206 c 1,183,-1
 32.0469 162.235 l 1,184,185
 18.9509 175.273 18.9509 175.273 18.6748 184.658 c 0,186,187
 18.5127 190.079 18.5127 190.079 18.4805 196.085 c 0,188,189
 18.4805 211.594 18.4805 211.594 18.9746 217.591 c 0,190,191
 19.8558 228.021 19.8558 228.021 30.4717 235.139 c 1,192,-1
 32.4512 247.689 l 1,193,194
 24.1642 260.777 24.1642 260.777 26.042 270.342 c 0,195,196
 30.2429 290.825 30.2429 290.825 34.1396 302.462 c 0,197,198
 37.4981 312.534 37.4981 312.534 50.248 314.687 c 1,199,200
 51.2315 317.431 51.2315 317.431 51.7725 318.459 c 0,201,202
 56.1922 326.861 56.1922 326.861 51.3145 344.046 c 0,203,204
 50.1164 348.267 50.1164 348.267 65.1777 369.731 c 0,205,206
 68.1373 373.927 68.1373 373.927 69.1224 374.838 c 128,-1,207
 70.1074 375.749 70.1074 375.749 73.9825 376.744 c 128,-1,208
 77.8575 377.739 77.8575 377.739 87.0605 378.315 c 1,209,-1
 91.5996 383.313 l 1,210,-1
 90.7733 387.329 l 2,211,212
 89.9469 391.344 89.9469 391.344 90.8244 397.064 c 128,-1,213
 91.7018 402.783 91.7018 402.783 95.1094 406.19 c 0,214,215
 105.38 416.541 105.38 416.541 109.755 419.717 c 0,216,217
 116.096 424.327 116.096 424.327 133.009 423.135 c 1,218,-1
 134.43 422.861 l 1,219,220
 135.801 424.946 135.801 424.946 138.357 429.169 c 128,-1,221
 140.912 433.391 140.912 433.391 142.001 434.837 c 128,-1,222
 143.089 436.283 143.089 436.283 145.478 438.316 c 128,-1,223
 147.866 440.35 147.866 440.35 150.99 441.613 c 0,224,225
 162.018 446.057 162.018 446.057 178.509 447.849 c 0,226,227
 181.329 448.047 181.329 448.047 193.07 447.849 c 128,-1,228
 204.806 447.649 204.806 447.649 206.011 447.805 c 2,229,-1
 206.668 447.89 l 1,230,-1
 289.25 447.89 l 1,231,-1
 289.25 445.98 l 1,232,233
 304.092 449.274 304.092 449.274 318.654 447.053 c 0,234,235
 333.922 444.724 333.922 444.724 348.595 438.471 c 0,236,237
 352.054 436.975 352.054 436.975 353.671 435.829 c 128,-1,238
 355.288 434.682 355.288 434.682 355.799 433.832 c 128,-1,239
 356.311 432.983 356.311 432.983 357.458 430.493 c 128,-1,240
 358.606 428.004 358.606 428.004 360.181 425.503 c 1,241,-1
 362.268 426.182 l 2,242,243
 364.355 426.86 364.355 426.86 368.477 426.08 c 128,-1,244
 372.599 425.299 372.599 425.299 376.668 422.381 c 0,245,246
 390.018 412.658 390.018 412.658 402.217 399.545 c 0,247,248
 408.305 392.885 408.305 392.885 407.518 379.623 c 1,249,250
 421.259 375.72 421.259 375.72 424.487 370.729 c 0,251,252
 443.644 341.37 443.644 341.37 443.093 336.931 c 0,253,254
 440.436 316.091 440.436 316.091 442.577 314.472 c 0,255,256
 443.333 313.905 443.333 313.905 448.048 310.907 c 128,-1,257
 452.764 307.906 452.764 307.906 454.49 305.607 c 128,-1,258
 456.217 303.309 456.217 303.309 457.479 298.981 c 0,259,260
 463.626 279.059 463.626 279.059 467.36 258.162 c 0,261,262
 469.063 248.56 469.063 248.56 463.252 239.604 c 1,263,-1
 464.179 231.502 l 1,264,-1
 466.09 229.975 l 2,265,266
 468.002 228.448 468.002 228.448 470.062 224.418 c 128,-1,267
 472.122 220.388 472.122 220.388 472.419 215.382 c 0,268,269
 473.094 204.007 473.094 204.007 473.11 192.246 c 0,270,271
 473.11 170.646 473.11 170.646 470.665 148.982 c 0,272,273
 470.538 147.843 470.538 147.843 470.486 145.569 c 128,-1,274
 470.435 143.296 470.435 143.296 470.169 142.664 c 128,-1,275
 469.903 142.032 469.903 142.032 468.65 140.129 c 128,-1,276
 467.397 138.227 467.397 138.227 464.829 136.115 c 128,-1,277
 462.261 134.003 462.261 134.003 457.644 130.484 c 1,278,279
 465.218 116.836 465.218 116.836 463.36 106.843 c 128,-1,280
 461.524 96.9666 461.524 96.9666 455.372 85.261 c 0,281,282
 446.295 67.9919 446.295 67.9919 446.282 64.3643 c 0,283,284
 444 45 444 45 433 33 c 0,285,286
 423 22 423 22 413 11 c 1,287,-1
 404 -11 l 2,120,121
99 7 m 0,288,289
 101.033 -0.522461 101.033 -0.522461 109.941 -7.2959 c 0,290,291
 110.751 -7.99824 110.751 -7.99824 118.803 -8.76953 c 0,292,293
 129.946 -10.5509 129.946 -10.5509 134.155 -11.5303 c 128,-1,294
 138.364 -12.5096 138.364 -12.5096 145.129 -18.7979 c 128,-1,295
 151.893 -25.0861 151.893 -25.0861 152.969 -36.2012 c 1,296,297
 158.353 -38.4043 158.353 -38.4043 167.702 -40.9277 c 1,298,299
 173.388 -41.3081 173.388 -41.3081 179.862 -41.8382 c 128,-1,300
 186.331 -42.3682 186.331 -42.3682 189.96 -42.6543 c 128,-1,301
 193.597 -42.9404 193.597 -42.9404 195.05 -42.9404 c 0,302,303
 204.402 -42.9404 204.402 -42.9404 250.506 -43.1934 c 1,304,305
 240.864 -36.3379 240.864 -36.3379 225.816 -24.3447 c 1,306,-1
 218.696 -17.5049 l 2,307,308
 202.796 -2.23024 202.796 -2.23024 189.96 15.9805 c 1,309,-1
 194 24 l 1,310,-1
 186.962 19.0576 l 1,311,-1
 177.677 35.1797 l 2,312,313
 155.082 74.4115 155.082 74.4115 158.302 76.875 c 2,314,-1
 165 82 l 1,315,316
 160.367 83.582 160.367 83.582 159.251 87.3447 c 0,317,318
 158.968 88.2992 158.968 88.2992 160.989 89.3713 c 128,-1,319
 163.011 90.4435 163.011 90.4435 162.235 92.1211 c 1,320,-1
 154.936 84.9434 l 1,321,-1
 150.405 101.943 l 2,322,323
 143.581 127.551 143.581 127.551 140.957 154.798 c 2,324,-1
 139.897 165.8 l 1,325,-1
 148.909 165.978 l 1,326,327
 148.979 168.282 148.979 168.282 148.744 170.359 c 1,328,-1
 139.27 166.369 l 1,329,-1
 139.27 190.8 l 2,330,331
 139.27 212.951 139.27 212.951 141.762 233.881 c 1,332,-1
 152 240 l 1,333,-1
 142.214 241.093 l 1,334,-1
 145.678 258.932 l 2,335,336
 150.957 286.115 150.957 286.115 160.63 310.907 c 0,337,338
 161.188 312.345 161.188 312.345 161.859 313.496 c 0,339,340
 161.911 313.585 161.911 313.585 161.962 313.672 c 1,341,342
 161.223 313.389 161.223 313.389 160.376 313.135 c 2,343,-1
 170.97 334.337 l 2,344,345
 183.486 359.387 183.486 359.387 197.416 377.358 c 1,346,-1
 211.952 393.549 l 2,347,348
 230.814 414.557 230.814 414.557 249.265 427.452 c 1,349,350
 228.957 427.474 228.957 427.474 208.648 427.495 c 0,351,352
 202.501 427.099 202.501 427.099 198.728 427.125 c 0,353,354
 193.125 427.163 193.125 427.163 186.962 427.323 c 128,-1,355
 180.794 427.483 180.794 427.483 180.303 427.449 c 0,356,357
 168.863 426.202 168.863 426.202 162.198 423.944 c 1,358,359
 162.688 413.025 162.688 413.025 156.909 407.631 c 128,-1,360
 151.131 402.237 151.131 402.237 144.097 402.584 c 0,361,362
 140.952 402.739 140.952 402.739 131.571 402.705 c 2,363,-1
 120.651 402.665 l 1,364,365
 116.22 398.806 116.22 398.806 112.91 395.111 c 1,366,367
 115.21 376.726 115.21 376.726 106.769 366.415 c 0,368,369
 98.8565 356.738 98.8565 356.738 85.959 357.244 c 2,370,-1
 81.4668 357.444 l 1,371,372
 78.4745 352.73 78.4745 352.73 69.7051 335.034 c 0,373,374
 68.2426 332.049 68.2426 332.049 67.6245 331.867 c 2,375,-1
 73.0029 323.816 l 1,376,377
 73.5085 315.541 73.5085 315.541 69.3789 304.875 c 128,-1,378
 65.2494 294.21 65.2494 294.21 54.0098 294.21 c 1,379,380
 48.4176 277.51 48.4176 277.51 46.1387 266.397 c 0,381,382
 45.8222 264.786 45.8222 264.786 45.5058 264.262 c 2,383,-1
 51.9062 256.695 l 1,384,385
 41.0967 242.987 41.0967 242.987 39.0195 210.927 c 0,386,387
 38.96 210.007 38.96 210.007 38.96 196.194 c 0,388,389
 38.9903 190.481 38.9903 190.481 39.1455 185.262 c 0,390,391
 39.2318 182.465 39.2318 182.465 42.8818 180.73 c 0,392,393
 52.0053 176.375 52.0053 176.375 53.4403 167.217 c 0,394,395
 55.5145 153.98 55.5145 153.98 52.7693 151.518 c 0,396,397
 42.0848 141.94 42.0848 141.94 44.0596 128.356 c 0,398,399
 46.4171 112.765 46.4171 112.765 48.3926 107.68 c 0,400,401
 48.8388 106.527 48.8388 106.527 49.7939 106.003 c 0,402,403
 51.1942 91.3485 51.1942 91.3485 67.5625 54.2246 c 0,404,405
 73.212 42.0198 73.212 42.0198 73.5879 41.8691 c 0,406,407
 79.5 34.5 79.5 34.5 87.5 29 c 0,408,409
 94.9055 23.392 94.9055 23.392 99 7 c 0,288,289
369.365 88.1102 m 128,-1,411
 344.049 46.04 344.049 46.04 311.69 46.04 c 128,-1,412
 279.33 46.0394 279.33 46.0394 253.999 88.1102 c 128,-1,413
 228.67 130.183 228.67 130.183 228.67 191.948 c 2,414,-1
 228.67 191.95 l 2,415,416
 228.67 253.73 228.67 253.73 253.999 295.8 c 128,-1,417
 279.329 337.87 279.329 337.87 311.69 337.87 c 128,-1,418
 344.052 337.869 344.052 337.869 369.365 295.8 c 128,-1,419
 394.679 253.735 394.679 253.735 394.68 191.95 c 128,-1,410
 394.68 130.18 394.68 130.18 369.365 88.1102 c 128,-1,411
311.688 25.5596 m 2,420,-1
 311.69 25.5596 l 2,421,422
 356.591 25.5596 356.591 25.5596 385.876 74.9563 c 128,-1,423
 415.16 124.353 415.16 124.353 415.16 191.95 c 128,-1,424
 415.16 259.556 415.16 259.556 385.876 308.953 c 128,-1,425
 356.591 358.35 356.591 358.35 311.69 358.35 c 128,-1,426
 266.791 358.349 266.791 358.349 237.491 308.953 c 128,-1,427
 208.19 259.558 208.19 259.558 208.19 191.95 c 2,428,-1
 208.19 191.947 l 2,429,430
 208.19 124.359 208.19 124.359 237.491 74.9563 c 128,-1,431
 266.793 25.5596 266.793 25.5596 311.688 25.5596 c 2,420,-1
EndSplineSet
Validated: 524325
EndChar

StartChar: uniF15A
Encoding: 61786 61786 93
Width: 512
Flags: W
LayerCount: 2
Fore
SplineSet
225 325 m 1,0,-1
 205 325 l 1,1,-1
 205 253 l 1,2,-1
 133 253 l 1,3,-1
 133 233 l 1,4,-1
 205 233 l 1,5,-1
 205 161 l 1,6,-1
 225 161 l 1,7,-1
 225 233 l 1,8,-1
 297 233 l 1,9,-1
 297 253 l 1,10,-1
 225 253 l 1,11,-1
 225 325 l 1,0,-1
35 243.8 m 128,-1,13
 35 318.32 35 318.32 87.7402 371.06 c 128,-1,14
 140.48 423.8 140.48 423.8 215 423.8 c 128,-1,15
 289.52 423.8 289.52 423.8 342.26 371.06 c 128,-1,16
 395 318.32 395 318.32 395 243.8 c 0,17,18
 395 175.793 395 175.793 351.075 125.925 c 1,19,-1
 480 -3 l 1,20,-1
 451 -32 l 1,21,-1
 320.955 98.0452 l 1,22,23
 275.048 63.7998 275.048 63.7998 215 63.7998 c 0,24,25
 140.48 63.7998 140.48 63.7998 87.7402 116.54 c 128,-1,12
 35 169.28 35 169.28 35 243.8 c 128,-1,13
61 242.8 m 128,-1,27
 61 179.044 61 179.044 106.122 133.922 c 128,-1,28
 151.244 88.7998 151.244 88.7998 215 88.7998 c 128,-1,29
 278.756 88.7998 278.756 88.7998 323.878 133.922 c 128,-1,30
 369 179.044 369 179.044 369 242.8 c 128,-1,31
 369 306.556 369 306.556 323.878 351.678 c 128,-1,32
 278.756 396.8 278.756 396.8 215 396.8 c 128,-1,33
 151.244 396.8 151.244 396.8 106.122 351.678 c 128,-1,26
 61 306.556 61 306.556 61 242.8 c 128,-1,27
EndSplineSet
Validated: 524297
EndChar

StartChar: uniF15B
Encoding: 61787 61787 94
Width: 512
Flags: W
LayerCount: 2
Fore
SplineSet
328 100 m 1,0,-1
 328 79 l 1,1,-1
 421 79 l 2,2,3
 459 79 459 79 485.5 106 c 128,-1,4
 512 133 512 133 512 171 c 0,5,6
 512 206 512 206 487.5 231.5 c 128,-1,7
 463 257 463 257 431 261 c 1,8,9
 432 264 432 264 432 267 c 0,10,11
 432 323 432 323 392.5 362 c 128,-1,12
 353 401 353 401 297 401 c 0,13,14
 258 401 258 401 226 380.5 c 128,-1,15
 194 360 194 360 176 326 c 1,16,17
 156 338 156 338 137 338 c 0,18,19
 108 338 108 338 88 318.5 c 128,-1,20
 68 299 68 299 65 271 c 1,21,22
 34 259 34 259 17 234.5 c 128,-1,23
 0 210 0 210 0 178 c 0,24,25
 0 137 0 137 29 108 c 128,-1,26
 58 79 58 79 99 79 c 2,27,-1
 184 79 l 1,28,-1
 184 100 l 1,29,-1
 99 100 l 2,30,31
 66 100 66 100 43 123 c 128,-1,32
 20 146 20 146 20 178 c 0,33,34
 20 205 20 205 36.5 226 c 128,-1,35
 53 247 53 247 78 254 c 2,36,-1
 85 256 l 1,37,-1
 85 266 l 2,38,39
 85 288 85 288 100.5 303 c 128,-1,40
 116 318 116 318 137 318 c 128,-1,41
 158 318 158 318 173 303 c 2,42,-1
 184 291 l 1,43,-1
 190 306 l 1,44,45
 202 339 202 339 231.5 360 c 128,-1,46
 261 381 261 381 297 381 c 0,47,48
 344 381 344 381 377.5 347.5 c 128,-1,49
 411 314 411 314 411 267 c 0,50,51
 411 261 411 261 410 253 c 2,52,-1
 409 241 l 1,53,-1
 422 241 l 1,54,55
 450 240 450 240 471 220 c 128,-1,56
 492 200 492 200 492 170.5 c 128,-1,57
 492 141 492 141 471 120.5 c 128,-1,58
 450 100 450 100 421 100 c 2,59,-1
 328 100 l 1,0,-1
198 169 m 1,60,-1
 212 154 l 1,61,-1
 256 198 l 1,62,-1
 300 154 l 1,63,-1
 314 169 l 1,64,-1
 256 227 l 1,65,-1
 198 169 l 1,60,-1
246 8 m 1,66,-1
 266 8 l 1,67,-1
 266 209 l 1,68,-1
 246 209 l 1,69,-1
 246 8 l 1,66,-1
EndSplineSet
Validated: 5
EndChar

StartChar: uniF15C
Encoding: 61788 61788 95
Width: 512
Flags: W
LayerCount: 2
Fore
SplineSet
62 245 m 128,-1,1
 62 182 62 182 107 137 c 128,-1,2
 152 92 152 92 215 92 c 128,-1,3
 278 92 278 92 323 137 c 128,-1,4
 368 182 368 182 368 245 c 128,-1,5
 368 308 368 308 323 353 c 128,-1,6
 278 398 278 398 215 398 c 128,-1,7
 152 398 152 398 107 353 c 128,-1,0
 62 308 62 308 62 245 c 128,-1,1
39 245 m 128,-1,9
 39 318 39 318 90.5 369.5 c 128,-1,10
 142 421 142 421 215 421 c 128,-1,11
 288 421 288 421 339.5 369.5 c 128,-1,12
 391 318 391 318 391 245 c 128,-1,13
 391 172 391 172 339.5 120.5 c 128,-1,14
 288 69 288 69 215 69 c 128,-1,15
 142 69 142 69 90.5 120.5 c 128,-1,8
 39 172 39 172 39 245 c 128,-1,9
345 132 m 1,16,-1
 480 -3 l 1,17,-1
 451 -32 l 1,18,-1
 316 103 l 1,19,-1
 345 132 l 1,16,-1
EndSplineSet
Validated: 5
EndChar

